<svg xmlns="http://www.w3.org/2000/svg" width="111.861" height="111.588" viewBox="0 0 111.861 111.588">
  <path id="Path_273" data-name="Path 273" d="M110.009,35.848,103.8,29.611c-2.5-2.509-6.35-.463-6.35-.463l-.011-.007a11.022,11.022,0,0,1-14.4-14.477c.016-.039.016-.063.033-.1a6.507,6.507,0,0,0-1.219-6.988L75.607,1.307c-2.727-2.736-5.687-.248-6.411.449L1.827,68.856c-3.743,3.723-.657,6.7-.657,6.7L8.4,82.81s1.783,1.928,5.245.531c.11-.044.194-.063.29-.093A11,11,0,0,1,28.9,97.383h0s-2.1,3.9.426,6.441l6.331,6.357c.45.444,3.777,3.432,7.93-.7l66.937-66.665C111.537,41.64,113.112,38.963,110.009,35.848ZM40.983,78.9l-.575.569a1.111,1.111,0,0,1-1.64-.068l-7.42-7.452-1.869,1.864a1.135,1.135,0,0,1-1.755-.03l-.248-.25s-.672-.6.351-1.62l5.683-5.66s.894-.989,1.746-.136l.194.193a1.067,1.067,0,0,1-.035,1.586l-1.928,1.925,7.134,7.165C41.507,77.869,41.257,78.536,40.983,78.9ZM47.3,72.6l-.464.463c-.723.721-1.67-.11-1.9-.33L37.1,64.866s-1.081-1.113-.194-1.993l.33-.328s.939-.875,2.232.424l7.693,7.723A1.284,1.284,0,0,1,47.3,72.6Zm9.56-9.995a10.22,10.22,0,0,1-1.916,2.655,5.959,5.959,0,0,1-4.694,2.015,7.955,7.955,0,0,1-4.984-2.667,8.8,8.8,0,0,1-2.171-3.327,5.829,5.829,0,0,1-.161-3.45A6.869,6.869,0,0,1,44.818,54.7a9.271,9.271,0,0,1,2.8-1.825,1.125,1.125,0,0,1,1.319.662l.12.283c.531,1.24-.953,1.653-.953,1.653v.006c-.061.029-.129.054-.192.082a4.669,4.669,0,0,0-1.322.92,3.069,3.069,0,0,0-.965,2.768,5.947,5.947,0,0,0,1.854,3.184q3.358,3.369,5.893.85a9.888,9.888,0,0,0,1.432-2,.294.294,0,0,1,.034.01s.615-1.06,1.193-.482l.358.362A1.332,1.332,0,0,1,56.859,62.609Zm10.2-9.687L66.038,53.94a1.9,1.9,0,0,1-1.635.4l-5.871-1.383L58.277,54.5,60.7,56.933c.87.872.676,1.544.4,1.928l-.529.521c-.744.746-1.584.094-1.9-.208l-7.889-7.92s-1.111-1.1-.309-1.9l.492-.491c.31-.258,1.045-.653,2.011.316l3.436,3.451-.342-2.026-.594-5.344a1.837,1.837,0,0,1,.514-1.4l.8-.8s.969-.978,1.13.428l0,0,.765,6.566L66.6,51.872C67.025,51.988,67.7,52.285,67.06,52.922Zm7.23-6.979-3.865,3.851a1.471,1.471,0,0,1-2.211-.019l-7.8-7.831a1.821,1.821,0,0,1,.051-2.317l3.779-3.762s.8-.891,1.455-.229l.3.3a1.066,1.066,0,0,1-.012,1.68l-2.059,2.048a1.033,1.033,0,0,0-.006,1.528l.608.6a1.182,1.182,0,0,0,1.759-.073l1.655-1.65s.823-.847,1.455-.215l.246.248a1.114,1.114,0,0,1,.147,1.615L68.2,43.31c-1,.992-.434,1.727-.256,1.912l1.089,1.1a.99.99,0,0,0,1.436-.087L72.5,44.2s.835-.9,1.381-.354l.346.345A1.182,1.182,0,0,1,74.29,45.943ZM79.836,40.2l-.335.33c-.665.661-1.484-.03-1.75-.289L71.42,33.886a1.172,1.172,0,0,0-1.774-.085L68.5,34.946a1.027,1.027,0,0,1-1.548-.068l-.3-.307a.987.987,0,0,1,.132-1.462l5.884-5.857c.354-.32,1.069-.8,1.682-.182l.19.194a1.107,1.107,0,0,1,.042,1.626l-1.184,1.177c-.159.166-.679.842.272,1.8l6.224,6.25A1.386,1.386,0,0,1,79.836,40.2Z" transform="translate(0.026 -0.052)" fill="#2193b0"/>
</svg>
