<svg xmlns="http://www.w3.org/2000/svg" width="1211.309" height="418.273" viewBox="0 0 1211.309 418.273">
  <g id="Group_90" data-name="Group 90" transform="translate(-434.319 315.674) rotate(8)" opacity="0.47">
    <path id="Path_777" data-name="Path 777" d="M1508.866-268.3c-12.53,2.9-34.523,5.267-59.987,7.181-69.24,5.205-164.131,7.052-164.131,7.052S797.1-228.726,431.586-322.956c0,0-53.166-17.462-3.78-40.955a193.537,193.537,0,0,1,24.116-9.223s.2-.131.609-.374a138.639,138.639,0,0,1,18.118-8.747,188.265,188.265,0,0,1,89.82-12.643L1520.4-297.636S1555.463-279.079,1508.866-268.3Z" transform="translate(0 20.598)" fill="#f2f2f2"/>
    <path id="Path_778" data-name="Path 778" d="M789.71-309.479,990.678-398.8l88.578,9.595-86.734,94.459S792.02-293.743,789.71-309.479Z" transform="translate(527.876 17.703)" fill="#f2f2f2"/>
    <path id="Path_779" data-name="Path 779" d="M577-346.034l400.3-70.324,64.529,8.445L861-356.96l-56.524,39.605Z" transform="translate(234.634 0)" fill="#f2f2f2"/>
    <path id="Path_780" data-name="Path 780" d="M1448.879-277.188c-69.24,5.205-164.131,7.052-164.131,7.052S797.1-244.8,431.586-339.028c0,0-53.166-17.462-3.78-40.955l.167.43s78.864,33.389,455.69,61.269Z" transform="translate(0 36.67)" fill="#f2f2f2"/>
    <path id="Path_781" data-name="Path 781" d="M818.354-322.942,997.33-277.171l44.957-3.127L935.235-330.691S805.757-347.989,818.354-322.942Z" transform="translate(566.174 80.493)" fill="#f2f2f2"/>
    <path id="Path_782" data-name="Path 782" d="M466.293-365.455c-8.546.092-28.108-8.882-40.269-14.916a138.643,138.643,0,0,1,18.118-8.747c9.8,4.713,27.256,12.344,36.956,12.073C495.1-377.437,479.149-365.6,466.293-365.455Z" transform="translate(26.508 27.461)" fill="#f2f2f2"/>
    <path id="Path_783" data-name="Path 783" d="M1090.256-160.158l-114.9,3.761L652.308-292.853l-59.973-25.332L563.188-330.5c54.657-28.939,277.63,10.96,277.63,10.96,4.272,2.257,5.625,6.008,5.43,10.149-.366,7.759-6.182,16.892-8.428,20.143-.538.783-.87,1.225-.87,1.225Z" transform="translate(215.598 75.944)" fill="#f2f2f2"/>
    <path id="Path_784" data-name="Path 784" d="M1508.866-268.3c-12.53,2.9-34.523,5.267-59.987,7.181-69.24,5.205-164.131,7.052-164.131,7.052S797.1-228.726,431.586-322.956c0,0-53.166-17.462-3.78-40.955a193.537,193.537,0,0,1,24.116-9.223s.2-.131.609-.374a138.639,138.639,0,0,1,18.118-8.747,188.265,188.265,0,0,1,89.82-12.643L1520.4-297.636S1555.463-279.079,1508.866-268.3Z" transform="translate(0 20.598)" fill="#026781" stroke="#026781" stroke-width="1"/>
    <path id="Path_785" data-name="Path 785" d="M789.71-309.479,990.678-398.8l88.578,9.595-86.734,94.459S792.02-293.743,789.71-309.479Z" transform="translate(527.876 17.703)" fill="#026781" stroke="#026781" stroke-width="1"/>
    <path id="Path_786" data-name="Path 786" d="M577-346.034l400.3-70.324,64.529,8.445L861-356.96l-56.524,39.605Z" transform="translate(234.634 0)" fill="#026781" stroke="#026781" stroke-width="1"/>
    <path id="Path_787" data-name="Path 787" d="M1448.879-277.188c-69.24,5.205-164.131,7.052-164.131,7.052S797.1-244.8,431.586-339.028c0,0-53.166-17.462-3.78-40.955l.167.43s78.864,33.389,455.69,61.269Z" transform="translate(0 36.67)" fill="#6dd5ed"/>
    <path id="Path_788" data-name="Path 788" d="M818.354-322.942,997.33-277.171l44.957-3.127L935.235-330.691S805.757-347.989,818.354-322.942Z" transform="translate(566.174 80.493)" fill="#026781" stroke="#026781" stroke-width="1"/>
    <path id="Path_789" data-name="Path 789" d="M466.293-365.455c-8.546.092-28.108-8.882-40.269-14.916a138.643,138.643,0,0,1,18.118-8.747c9.8,4.713,27.256,12.344,36.956,12.073C495.1-377.437,479.149-365.6,466.293-365.455Z" transform="translate(26.508 27.461)" fill="#6dd5ed"/>
    <path id="Path_790" data-name="Path 790" d="M1090.256-160.158l-114.9,3.761L652.308-292.853l-59.973-25.332L563.188-330.5c54.657-28.939,277.63,10.96,277.63,10.96,4.272,2.257,5.625,6.008,5.43,10.149-.366,7.759-6.182,16.892-8.428,20.143-.538.783-.87,1.225-.87,1.225Z" transform="translate(215.598 75.944)" fill="#026781" stroke="#026781" stroke-width="1"/>
  </g>
</svg>
