<svg id="a8904fed-7223-4ff2-9071-b444910320a0" xmlns="http://www.w3.org/2000/svg" viewBox="0 0 992.13 708.66"><defs><style>.cls-1{fill:#3f3d56;}.cls-2{fill:#ff6584;}.cls-3,.cls-5{fill:#2193b0;}.cls-4{opacity:0.1;}.cls-4,.cls-5{isolation:isolate;}.cls-5{opacity:0.4;}.cls-6{fill:#ccc;}.cls-7{fill:#f2f2f2;}.cls-8{fill:none;}</style></defs><title>tripPlanner</title><path class="cls-1" d="M128.36,533.2l-1.7-.38a387.41,387.41,0,0,1,134-215.07C426.56,183.68,669.87,209.4,804.06,375.21a386,386,0,0,1,76.19,156.58l-1.7.39c-40.07-175.79-194.27-298.56-375-298.56C325.23,233.61,167.43,359.61,128.36,533.2Z"/><ellipse class="cls-2" cx="785.6" cy="280.48" rx="47.26" ry="47.22"/><rect class="cls-1" x="765.9" y="469.26" width="1.74" height="68.68"/><path class="cls-3" d="M783.7,478c.11,24-16.8,43.56-16.8,43.56s-17.09-19.39-17.2-43.41,16.8-43.56,16.8-43.56S783.59,454,783.7,478Z"/><path class="cls-4" d="M783.7,478c.11,24-16.8,43.56-16.8,43.56s-17.09-19.39-17.2-43.41,16.8-43.56,16.8-43.56S783.59,454,783.7,478Z"/><ellipse class="cls-5" cx="438.77" cy="305.55" rx="27.19" ry="27.17"/><ellipse class="cls-5" cx="388.45" cy="318.52" rx="19.07" ry="19.06"/><ellipse class="cls-5" cx="183.98" cy="373.29" rx="19.07" ry="19.06"/><ellipse class="cls-5" cx="747.9" cy="303.31" rx="27.19" ry="27.17"/><path class="cls-1" d="M52.11,530.3c1.47,5.44,6.52,8.82,6.52,8.82s2.66-5.45,1.18-10.9-6.52-8.82-6.52-8.82S50.63,524.86,52.11,530.3Z"/><path class="cls-3" d="M54.27,529.13c4,3.93,4.54,10,4.54,10s-6.06-.33-10.11-4.26-4.54-10-4.54-10S50.23,525.2,54.27,529.13Z"/><path class="cls-1" d="M584.6,530.3c1.47,5.44,6.52,8.82,6.52,8.82s2.66-5.45,1.18-10.9-6.52-8.82-6.52-8.82S583.13,524.86,584.6,530.3Z"/><path class="cls-3" d="M586.77,529.13c4,3.93,4.54,10,4.54,10s-6.06-.33-10.11-4.26-4.54-10-4.54-10S582.72,525.2,586.77,529.13Z"/><polygon class="cls-1" points="62.12 489.38 58.52 483.39 92.12 454.61 178.51 454.61 178.51 463 147.31 496.57 111.32 503.77 62.12 489.38"/><polygon class="cls-6" points="193.38 471.5 193.38 452.74 182.07 452.74 182.07 458.65 178.51 454.61 149.71 483.39 144.91 488.18 138.91 512.16 149.71 538.53 204.91 538.53 204.91 484.58 193.38 471.5"/><rect class="cls-7" x="58.52" y="483.39" width="91.19" height="55.15"/><rect class="cls-1" x="117.92" y="500.77" width="19.2" height="16.78"/><rect class="cls-6" x="93.32" y="500.17" width="16.8" height="38.36"/><polygon class="cls-1" points="74.12 506.17 74.12 500.17 66.92 500.17 66.92 506.17 73.52 506.17 74.12 506.17"/><polygon class="cls-1" points="73.52 510.96 66.92 510.96 66.92 516.96 74.12 516.96 74.12 510.96 73.52 510.96"/><rect class="cls-1" x="78.92" y="500.17" width="7.2" height="5.99"/><rect class="cls-1" x="78.92" y="510.96" width="7.2" height="5.99"/><polygon class="cls-1" points="175.51 506.76 175.51 500.77 168.31 500.77 168.31 506.76 174.91 506.76 175.51 506.76"/><polygon class="cls-1" points="174.91 511.56 168.31 511.56 168.31 517.55 175.51 517.55 175.51 511.56 174.91 511.56"/><rect class="cls-1" x="180.31" y="500.77" width="7.2" height="5.99"/><rect class="cls-1" x="180.31" y="511.56" width="7.2" height="5.99"/><polygon class="cls-1" points="409.29 489.38 405.69 483.39 439.28 454.61 525.68 454.61 525.68 463 494.48 496.57 458.48 503.77 409.29 489.38"/><polygon class="cls-6" points="540.55 471.5 540.55 452.74 529.24 452.74 529.24 458.65 525.68 454.61 496.88 483.39 492.08 488.18 486.08 512.16 496.88 538.53 552.08 538.53 552.08 484.58 540.55 471.5"/><rect class="cls-7" x="405.69" y="483.39" width="91.19" height="55.15"/><rect class="cls-1" x="465.08" y="500.77" width="19.2" height="16.78"/><rect class="cls-6" x="440.48" y="500.17" width="16.8" height="38.36"/><polygon class="cls-1" points="421.29 506.17 421.29 500.17 414.09 500.17 414.09 506.17 420.69 506.17 421.29 506.17"/><polygon class="cls-1" points="420.69 510.96 414.09 510.96 414.09 516.96 421.29 516.96 421.29 510.96 420.69 510.96"/><rect class="cls-1" x="426.08" y="500.17" width="7.2" height="5.99"/><rect class="cls-1" x="426.08" y="510.96" width="7.2" height="5.99"/><polygon class="cls-1" points="522.68 506.76 522.68 500.77 515.48 500.77 515.48 506.76 522.08 506.76 522.68 506.76"/><polygon class="cls-1" points="522.08 511.56 515.48 511.56 515.48 517.55 522.68 517.55 522.68 511.56 522.08 511.56"/><rect class="cls-1" x="527.48" y="500.77" width="7.2" height="5.99"/><rect class="cls-1" x="527.48" y="511.56" width="7.2" height="5.99"/><polygon class="cls-1" points="246.91 388.67 240.91 383.88 274.51 353.9 359.7 353.9 359.7 380.28 304.5 417.45 246.91 388.67"/><polygon class="cls-6" points="375.23 370.72 375.23 354.5 363.92 354.5 363.92 358.47 359.7 353.9 332.1 383.88 321.3 391.07 304.56 513.3 329.81 538.53 388.5 538.53 388.5 385.07 375.23 370.72"/><rect class="cls-7" x="240.91" y="383.88" width="91.19" height="154.66"/><rect class="cls-6" x="276.31" y="500.77" width="16.8" height="37.77"/><polygon class="cls-1" points="258.31 511.56 258.31 505.57 251.11 505.57 251.11 511.56 257.71 511.56 258.31 511.56"/><polygon class="cls-1" points="257.71 516.36 251.11 516.36 251.11 522.35 258.31 522.35 258.31 516.36 257.71 516.36"/><rect class="cls-1" x="263.11" y="505.57" width="7.2" height="5.99"/><rect class="cls-1" x="263.11" y="516.36" width="7.2" height="5.99"/><polygon class="cls-1" points="307.5 511.56 307.5 505.57 300.3 505.57 300.3 511.56 306.9 511.56 307.5 511.56"/><polygon class="cls-1" points="306.9 516.36 300.3 516.36 300.3 522.35 307.5 522.35 307.5 516.36 306.9 516.36"/><rect class="cls-1" x="312.3" y="505.57" width="7.2" height="5.99"/><rect class="cls-1" x="312.3" y="516.36" width="7.2" height="5.99"/><polygon class="cls-1" points="357.9 391.67 357.9 385.68 350.7 385.68 350.7 391.67 357.3 391.67 357.9 391.67"/><polygon class="cls-1" points="357.3 396.47 350.7 396.47 350.7 402.46 357.9 402.46 357.9 396.47 357.3 396.47"/><rect class="cls-1" x="362.7" y="385.68" width="7.2" height="5.99"/><rect class="cls-1" x="362.7" y="396.47" width="7.2" height="5.99"/><polygon class="cls-1" points="357.9 425.24 357.9 419.24 350.7 419.24 350.7 425.24 357.3 425.24 357.9 425.24"/><polygon class="cls-1" points="357.3 430.04 350.7 430.04 350.7 436.03 357.9 436.03 357.9 430.04 357.3 430.04"/><rect class="cls-1" x="362.7" y="419.24" width="7.2" height="5.99"/><rect class="cls-1" x="362.7" y="430.03" width="7.2" height="5.99"/><polygon class="cls-1" points="357.9 458.81 357.9 452.81 350.7 452.81 350.7 458.81 357.3 458.81 357.9 458.81"/><polygon class="cls-1" points="357.3 463.6 350.7 463.6 350.7 469.6 357.9 469.6 357.9 463.6 357.3 463.6"/><rect class="cls-1" x="362.7" y="452.81" width="7.2" height="5.99"/><rect class="cls-1" x="362.7" y="463.6" width="7.2" height="5.99"/><polygon class="cls-1" points="357.9 492.38 357.9 486.38 350.7 486.38 350.7 492.38 357.3 492.38 357.9 492.38"/><polygon class="cls-1" points="357.3 497.17 350.7 497.17 350.7 503.17 357.9 503.17 357.9 497.17 357.3 497.17"/><rect class="cls-1" x="362.7" y="486.38" width="7.2" height="5.99"/><rect class="cls-1" x="362.7" y="497.17" width="7.2" height="5.99"/><rect class="cls-1" x="251.11" y="391.67" width="69.6" height="14.39"/><rect class="cls-1" x="251.11" y="420.44" width="69.6" height="14.39"/><rect class="cls-1" x="251.11" y="449.22" width="69.6" height="14.39"/><rect class="cls-1" x="251.11" y="477.99" width="69.6" height="14.39"/><polygon class="cls-1" points="597.55 388.67 591.55 383.88 625.15 353.9 710.35 353.9 710.35 380.28 655.15 417.45 597.55 388.67"/><polygon class="cls-6" points="725.88 370.72 725.88 354.5 714.57 354.5 714.57 358.47 710.35 353.9 682.75 383.88 671.95 391.07 655.2 513.3 680.46 538.53 739.14 538.53 739.14 385.07 725.88 370.72"/><rect class="cls-7" x="591.55" y="383.88" width="91.19" height="154.66"/><rect class="cls-6" x="626.95" y="500.77" width="16.8" height="37.77"/><polygon class="cls-1" points="608.95 511.56 608.95 505.57 601.75 505.57 601.75 511.56 608.35 511.56 608.95 511.56"/><polygon class="cls-1" points="608.35 516.36 601.75 516.36 601.75 522.35 608.95 522.35 608.95 516.36 608.35 516.36"/><rect class="cls-1" x="613.75" y="505.57" width="7.2" height="5.99"/><rect class="cls-1" x="613.75" y="516.36" width="7.2" height="5.99"/><polygon class="cls-1" points="658.15 511.56 658.15 505.57 650.95 505.57 650.95 511.56 657.55 511.56 658.15 511.56"/><polygon class="cls-1" points="657.55 516.36 650.95 516.36 650.95 522.35 658.15 522.35 658.15 516.36 657.55 516.36"/><rect class="cls-1" x="662.95" y="505.57" width="7.2" height="5.99"/><rect class="cls-1" x="662.95" y="516.36" width="7.2" height="5.99"/><polygon class="cls-1" points="708.55 391.67 708.55 385.68 701.35 385.68 701.35 391.67 707.95 391.67 708.55 391.67"/><polygon class="cls-1" points="707.95 396.47 701.35 396.47 701.35 402.46 708.55 402.46 708.55 396.47 707.95 396.47"/><rect class="cls-1" x="713.35" y="385.68" width="7.2" height="5.99"/><rect class="cls-1" x="713.35" y="396.47" width="7.2" height="5.99"/><polygon class="cls-1" points="708.55 425.24 708.55 419.24 701.35 419.24 701.35 425.24 707.95 425.24 708.55 425.24"/><polygon class="cls-1" points="707.95 430.04 701.35 430.04 701.35 436.03 708.55 436.03 708.55 430.04 707.95 430.04"/><rect class="cls-1" x="713.35" y="419.24" width="7.2" height="5.99"/><rect class="cls-1" x="713.35" y="430.03" width="7.2" height="5.99"/><polygon class="cls-1" points="708.55 458.81 708.55 452.81 701.35 452.81 701.35 458.81 707.95 458.81 708.55 458.81"/><polygon class="cls-1" points="707.95 463.6 701.35 463.6 701.35 469.6 708.55 469.6 708.55 463.6 707.95 463.6"/><rect class="cls-1" x="713.35" y="452.81" width="7.2" height="5.99"/><rect class="cls-1" x="713.35" y="463.6" width="7.2" height="5.99"/><polygon class="cls-1" points="708.55 492.38 708.55 486.38 701.35 486.38 701.35 492.38 707.95 492.38 708.55 492.38"/><polygon class="cls-1" points="707.95 497.17 701.35 497.17 701.35 503.17 708.55 503.17 708.55 497.17 707.95 497.17"/><rect class="cls-1" x="713.35" y="486.38" width="7.2" height="5.99"/><rect class="cls-1" x="713.35" y="497.17" width="7.2" height="5.99"/><rect class="cls-1" x="601.75" y="391.67" width="69.6" height="14.39"/><rect class="cls-1" x="601.75" y="420.44" width="69.6" height="14.39"/><rect class="cls-1" x="601.75" y="449.22" width="69.6" height="14.39"/><rect class="cls-1" x="601.75" y="477.99" width="69.6" height="14.39"/><polygon class="cls-1" points="789.84 388.67 783.84 383.88 817.44 353.9 902.64 353.9 902.64 380.28 847.44 417.45 789.84 388.67"/><polygon class="cls-6" points="918.17 370.72 918.17 354.5 906.86 354.5 906.86 358.47 902.64 353.9 875.04 383.88 864.24 391.07 847.49 513.3 872.75 538.53 931.43 538.53 931.43 385.07 918.17 370.72"/><rect class="cls-7" x="783.84" y="383.88" width="91.19" height="154.66"/><rect class="cls-6" x="819.24" y="500.77" width="16.8" height="37.77"/><polygon class="cls-1" points="801.24 511.56 801.24 505.57 794.04 505.57 794.04 511.56 800.64 511.56 801.24 511.56"/><polygon class="cls-1" points="800.64 516.36 794.04 516.36 794.04 522.35 801.24 522.35 801.24 516.36 800.64 516.36"/><rect class="cls-1" x="806.04" y="505.57" width="7.2" height="5.99"/><rect class="cls-1" x="806.04" y="516.36" width="7.2" height="5.99"/><polygon class="cls-1" points="850.44 511.56 850.44 505.57 843.24 505.57 843.24 511.56 849.84 511.56 850.44 511.56"/><polygon class="cls-1" points="849.84 516.36 843.24 516.36 843.24 522.35 850.44 522.35 850.44 516.36 849.84 516.36"/><rect class="cls-1" x="855.24" y="505.57" width="7.2" height="5.99"/><rect class="cls-1" x="855.24" y="516.36" width="7.2" height="5.99"/><polygon class="cls-1" points="900.84 391.67 900.84 385.68 893.64 385.68 893.64 391.67 900.24 391.67 900.84 391.67"/><polygon class="cls-1" points="900.24 396.47 893.64 396.47 893.64 402.46 900.84 402.46 900.84 396.47 900.24 396.47"/><rect class="cls-1" x="905.64" y="385.68" width="7.2" height="5.99"/><rect class="cls-1" x="905.64" y="396.47" width="7.2" height="5.99"/><polygon class="cls-1" points="900.84 425.24 900.84 419.24 893.64 419.24 893.64 425.24 900.24 425.24 900.84 425.24"/><polygon class="cls-1" points="900.24 430.04 893.64 430.04 893.64 436.03 900.84 436.03 900.84 430.04 900.24 430.04"/><rect class="cls-1" x="905.64" y="419.24" width="7.2" height="5.99"/><rect class="cls-1" x="905.64" y="430.03" width="7.2" height="5.99"/><polygon class="cls-1" points="900.84 458.81 900.84 452.81 893.64 452.81 893.64 458.81 900.24 458.81 900.84 458.81"/><polygon class="cls-1" points="900.24 463.6 893.64 463.6 893.64 469.6 900.84 469.6 900.84 463.6 900.24 463.6"/><rect class="cls-1" x="905.64" y="452.81" width="7.2" height="5.99"/><rect class="cls-1" x="905.64" y="463.6" width="7.2" height="5.99"/><polygon class="cls-1" points="900.84 492.38 900.84 486.38 893.64 486.38 893.64 492.38 900.24 492.38 900.84 492.38"/><polygon class="cls-1" points="900.24 497.17 893.64 497.17 893.64 503.17 900.84 503.17 900.84 497.17 900.24 497.17"/><rect class="cls-1" x="905.64" y="486.38" width="7.2" height="5.99"/><rect class="cls-1" x="905.64" y="497.17" width="7.2" height="5.99"/><rect class="cls-1" x="794.04" y="391.67" width="69.6" height="14.39"/><rect class="cls-1" x="794.04" y="420.44" width="69.6" height="14.39"/><rect class="cls-1" x="794.04" y="449.22" width="69.6" height="14.39"/><rect class="cls-1" x="794.04" y="477.99" width="69.6" height="14.39"/><rect class="cls-1" x="2.83" y="537.94" width="989.29" height="1.74"/><rect class="cls-1" x="222.1" y="469.26" width="1.74" height="68.68"/><path class="cls-3" d="M239.9,478c.11,24-16.8,43.56-16.8,43.56S206,502.18,205.9,478.17s16.8-43.56,16.8-43.56S239.79,454,239.9,478Z"/><rect class="cls-1" x="396.11" y="469.26" width="1.74" height="68.68"/><path class="cls-3" d="M413.91,478c.11,24-16.8,43.56-16.8,43.56s-17.09-19.39-17.2-43.41,16.8-43.56,16.8-43.56S413.8,454,413.91,478Z"/><rect class="cls-1" x="743.28" y="469.26" width="1.74" height="68.68"/><path class="cls-3" d="M761.08,478c.11,24-16.8,43.56-16.8,43.56s-17.09-19.39-17.2-43.41,16.8-43.56,16.8-43.56S761,454,761.08,478Z"/><ellipse class="cls-3" cx="514.01" cy="231.44" rx="33.06" ry="7.43"/><path class="cls-3" d="M551.43,127.55c0,21.13-38.28,80.85-38.28,80.85s-38.28-59.72-38.28-80.85a38.28,38.28,0,0,1,76.57,0Z"/><ellipse class="cls-7" cx="513.14" cy="127.55" rx="21.75" ry="21.73"/><rect class="cls-8" width="992.13" height="708.66"/></svg>