<?xml version="1.0" encoding="utf-8"?>
<!-- Generator: Adobe Illustrator 21.1.0, SVG Export Plug-In . SVG Version: 6.00 Build 0)  -->
<svg version="1.1" id="b4ce20e6-8fe7-43d5-87f7-68602c562594"
	 xmlns="http://www.w3.org/2000/svg" xmlns:xlink="http://www.w3.org/1999/xlink" x="0px" y="0px" viewBox="0 0 992.1 708.7"
	 style="enable-background:new 0 0 992.1 708.7;" xml:space="preserve">
<style type="text/css">
	.st0{fill:#F2F2F2;}
	.st1{clip-path:url(#SVGID_2_);fill:#F2F2F2;}
	.st2{clip-path:url(#SVGID_2_);fill:#3F3D56;}
	.st3{opacity:0.1;clip-path:url(#SVGID_2_);enable-background:new    ;}
	.st4{clip-path:url(#SVGID_2_);fill:#2F2E41;}
	.st5{clip-path:url(#SVGID_2_);fill:#2193B0;}
	.st6{clip-path:url(#SVGID_2_);fill:#FFB9B9;}
	.st7{clip-path:url(#SVGID_2_);fill:#D0CDE1;}
	.st8{clip-path:url(#SVGID_2_);fill:#A8A8A8;}
	.st9{opacity:0.2;clip-path:url(#SVGID_2_);enable-background:new    ;}
</style>
<title>task</title>
<rect x="52" y="60.1" class="st0" width="94.7" height="34"/>
<rect x="55.7" y="450.9" class="st0" width="94.7" height="34"/>
<g>
	<defs>
		<rect id="SVGID_1_" y="0" width="992.1" height="708.7"/>
	</defs>
	<clipPath id="SVGID_2_">
		<use xlink:href="#SVGID_1_"  style="overflow:visible;"/>
	</clipPath>
	<path class="st1" d="M1022.9,414.1c0,103.9-61.7,140.1-137.9,140.1s-137.9-36.3-137.9-140.1s137.9-236,137.9-236
		S1022.9,310.2,1022.9,414.1z"/>
	<polygon class="st2" points="880,538.3 881.4,451.4 940.1,343.9 881.6,437.8 882.2,398.7 922.7,320.9 882.4,388.3 882.4,388.3 
		883.5,318 926.9,256.1 883.7,307 884.4,178.1 879.9,348.7 880.3,341.7 836.2,274.2 879.6,355.2 875.5,433.7 875.4,431.6 
		824.5,360.6 875.2,439 874.7,448.8 874.6,449 874.7,449.8 864.2,648.9 878.2,648.9 879.8,546.1 930.4,467.8 	"/>
	<path class="st1" d="M736,319.6c0,134.3-79.9,181.2-178.4,181.2s-178.4-46.9-178.4-181.2S557.7,14.4,557.7,14.4
		S736,185.2,736,319.6z"/>
	<polygon class="st2" points="551.2,480.2 553,367.8 629,228.7 553.3,350.2 554.1,299.6 606.5,199 554.3,286.3 554.3,286.3 
		555.8,195.3 611.9,115.2 556,181.1 557,14.4 551.2,235 551.6,225.9 494.6,138.6 550.7,243.4 545.4,344.9 545.3,342.2 479.5,250.4 
		545.1,351.8 544.4,364.5 544.3,364.7 544.3,365.7 530.8,623.3 548.9,623.3 551,490.2 616.4,389.1 	"/>
	<path class="st2" d="M1011.9,668c0,10.1-29.4,19.5-80.1,27.5c-92,14.4-254.2,24-438.8,24c-286.6,0-519-23-519-51.5
		c0-3.9,4.5-7.8,12.9-11.5c9.5-4.2,24.2-8.1,43.2-11.8c39.2-7.7,97.1-14.2,167.8-19c82-5.6,181.2-9,288.2-9.1c2.3,0,4.6,0,6.9,0
		c12.9,0,25.7,0,38.3,0.1c6,0,11.9,0.1,17.8,0.2c63,0.7,122.7,2.5,176.9,5.2c2.4,0.1,4.8,0.2,7.2,0.4c0.8,0,1.6,0.1,2.5,0.1
		c0.2,0,0.4,0,0.7,0c10.6,0.6,21.1,1.2,31.2,1.8c3.3,0.2,6.7,0.4,9.9,0.6c31.9,2.1,61.3,4.5,87.8,7.2c4.5,0.5,9,0.9,13.3,1.4
		c33.5,3.7,61.7,7.8,83.4,12.4C993.9,652.6,1011.9,660.1,1011.9,668z"/>
	<ellipse class="st3" cx="726.8" cy="664.8" rx="113.1" ry="26.2"/>
	<path class="st3" d="M1011.9,668c0,10.1-29.4,19.5-80.1,27.5c-38.4-4.2-65-13.2-65-23.7c0-13,41.2-23.9,95-25.9
		C993.9,652.6,1011.9,660.1,1011.9,668z"/>
	<path class="st3" d="M536.5,656.1c0,17.3-123.1,31.3-274.9,31.3c-150.4,0-272.6-13.7-274.9-30.8c29.2-12.7,106-23.7,211-30.9
		c20.5-0.6,41.9-0.8,63.9-0.8C413.5,624.8,536.5,638.8,536.5,656.1z"/>
	<rect x="30" y="-23.4" class="st2" width="456" height="683.1"/>
	<rect x="57.5" y="213.8" class="st4" width="428.4" height="209.6"/>
	<rect x="230.4" y="218.4" class="st2" width="423.8" height="199.5"/>
	<rect x="256.4" y="247.9" class="st5" width="94.7" height="34"/>
	<rect x="279.8" y="307.6" class="st5" width="348.4" height="9.2"/>
	<rect x="279.8" y="331.5" class="st5" width="348.4" height="9.2"/>
	<rect x="279.8" y="355.4" class="st5" width="348.4" height="9.2"/>
	<rect x="279.8" y="379.3" class="st5" width="348.4" height="9.2"/>
	<rect x="83.7" y="113.6" class="st1" width="348.4" height="9.2"/>
	<rect x="83.7" y="137.5" class="st1" width="348.4" height="9.2"/>
	<rect x="83.7" y="161.4" class="st1" width="348.4" height="9.2"/>
	<rect x="83.7" y="185.3" class="st1" width="348.4" height="9.2"/>
	<rect x="87.4" y="504.4" class="st1" width="348.4" height="9.2"/>
	<rect x="87.4" y="528.3" class="st1" width="348.4" height="9.2"/>
	<rect x="87.4" y="552.2" class="st1" width="348.4" height="9.2"/>
	<rect x="87.4" y="576.1" class="st1" width="348.4" height="9.2"/>
	<path class="st6" d="M696.9,117.1c0,0,18.9,24.2,16.5,41.4s39-23.6,39-23.6s-14.2-29.5-6.5-43.7S696.9,117.1,696.9,117.1z"/>
	<path class="st4" d="M763.1,607.4c0,0,24.8,27.2,20.7,33.1s-76.8,28.4-85.1,27.2s-12.4-7.1-9.5-8.9s21.9-11.8,21.9-11.8l15.9-18.3
		c0,0,11.8-6.5,11.8-10S763.1,607.4,763.1,607.4z"/>
	<path class="st6" d="M721.2,637.5c0,0-9.5,15.4-11.2,15.9s8.9,21.9,8.9,21.9l24.8-7.7l13.6-11.2l-3-15.4L721.2,637.5z"/>
	<path class="st7" d="M695.8,344.5L684,397.1c0,0-40.8,91.6-12.4,107.5l62,118.7l33.1-14.8l-55.5-121.7l25.4-140L695.8,344.5z"/>
	<path class="st3" d="M695.8,344.5L684,397.1c0,0-40.8,91.6-12.4,107.5l62,118.7l33.1-14.8l-55.5-121.7l25.4-140L695.8,344.5z"/>
	<path class="st7" d="M699.9,352.8h-6c-0.5,18.2,0.5,36.3,3,54.3c4.1,30.1,14.8,99.2,14.8,99.2s-1.2,13,2.4,17.1s4.1-1.2,4.7,8.3
		S725,607,725,607s3.8,13.4-0.3,16.4s-12.4,18.9-6.5,21.3s46.7,5.3,48.4,3.5s0-112.8,0-112.8s-1.2-22.4-2.4-23.6
		c-1.2-1.2-6.5-17.1-4.7-20.7s0.6-14.2,0.6-15.9s-5.3,0-0.6-7.7s5.3-69.1,5.3-69.1s25.4-39,17.7-49L699.9,352.8z"/>
	<circle class="st6" cx="713.5" cy="87" r="39"/>
	<path class="st4" d="M752.5,128.3c0,0-23.6,5.9-33.1,20.1l-8.3,1.8v8.3c0,0-15.4,49-11.8,70.3s0,62.6-5.9,73.8s-7.7,13.6-4.7,18.3
		s7.1,20.7,4.1,27.8s0,14.2,27.2,15.9s65.6,1.8,65.6-7.7s-2.4-36,0-43.1s3.5-11.8,2.4-18.3s2.4-79.2,2.4-79.2
		S790.9,143.7,752.5,128.3z"/>
	<path class="st6" d="M696.9,310.9l-32.5,48.4c0,0-34.3,31.3-21.9,45.5c12.4,14.2,44.9-41.4,44.9-41.4l35.4-40.2L696.9,310.9z"/>
	<path class="st4" d="M717.6,656.4c0,0-1.2-7.7-5.3-7.7s-31.9,18.9-31.9,18.9s-36.6,4.1-22.4,11.8s101,8.9,101.6,5.9
		s1.8-32.1-2.4-32S720,660,720,660L717.6,656.4z"/>
	<path class="st4" d="M716.3,66.8c-1.4,0.7-2.9,1-4.5,1c-1.6,0.1-3.5,0-4.3-1.4c-0.4-0.9-0.6-1.9-0.5-2.8c-0.7-5.1-5.4-8.7-10.5-8
		c-0.1,0-0.3,0-0.4,0.1c0.2,2,0.8,3.8,1.7,5.5c-3.5,1.2-7.4,0.7-10.4-1.4l-0.6,8c-2.1,1-4.8,1.2-6.7-0.2s-2-4.9,0.1-5.9
		c-2.6-0.5-5.7-1.7-5.9-4.3c-0.2-2.4,2.4-4.2,2.8-6.5c0.4-1.9-0.7-4,0.1-5.8c1-2.4,4.5-3,5.3-5.5c0.4-1.3-0.2-2.6,0-3.9
		c0.3-3.4,4.6-4.8,8.1-4.6s7.2,1.1,10.1-0.7c1.4-0.9,2.4-2.3,3.6-3.4c3.5-3,8.6-3.5,12.6-1.1c1.4,0.9,2.6,2,4.1,2.6
		c3.2,1.1,6.4-1,9.7-1.4c2.4-0.4,4.9,0.3,6.8,2c1.8,1.7,2.2,4.5,1,6.7c1.9-0.3,4-0.6,5.8,0.1s3.2,2.9,2.4,4.7
		c-0.3,0.5-0.6,1-0.7,1.5c-0.2,1,0.8,1.9,1.8,2.2s2.1,0.2,3.1,0.6c4,1.5,3.1,8,6.3,10.9c1.1,0.8,2.2,1.5,3.5,2.1
		c3.3,2.3,4.5,6.5,3,10.2c-0.6,1.4-1.7,2.8-1.6,4.3c0.2,2.2,2.5,3.4,4.1,4.8c3.1,2.8,4,7.3,2.2,11.1c-1.5,3.1-4.7,5.5-5.1,9
		c-0.1,1.5,0.3,3,0.3,4.5c-0.2,2.8-1.7,5.4-4,7c-2.3,1.6-4.9,2.7-7.7,3.2c-1.3,0.3-2.8,0.8-3.1,2.1c-0.4,1.5,1.3,2.9,1.2,4.5
		c-0.1,0.7-0.5,1.3-1,1.7c-2.3,1.8-6,0.3-7.4-2.3s-1.2-5.7-1-8.6l0.8-10.6c0.2-3.3,0.2-7.2-2.5-9.1c-3-2.1-7.3-0.4-10.7-1.8
		c-3.5-1.5-4.8-5.9-4.6-9.7s1.2-7.6,0.6-11.4c-0.8-4.7-4.9-7.8-9.1-4.8C718.5,60.9,719.2,65.1,716.3,66.8z"/>
	<path class="st3" d="M748.9,156.7c0,0-23.6,9.5-23.6,29.5s1.2,46.7-3,55.5s-7.7,11.8-5.3,18.9c2.4,7.1,6.5,5.9,0,11.2
		s-5.9-3.5-6.5,5.3s5.9,10,0,14.2s-21.3,20.7-14.8,26s23.6,22.4,29.5,15.9s8.9-23,17.1-21.9s9.5,1.8,8.3-4.1s-6.5-5.9,0.6-7.7
		s10,2.4,7.7-3.5s-4.1-8.3,0.6-14.8s7.1-8.3,6.5-14.8s13-65,13-65S783.2,152,748.9,156.7z"/>
	<path class="st3" d="M742.4,155.5c0,0-23.6,9.5-23.6,29.5s1.2,46.7-3,55.5s-7.7,11.8-5.3,18.9c2.4,7.1,6.5,5.9,0,11.2
		s-5.9-3.5-6.5,5.3s5.9,10,0,14.2s-21.3,20.7-14.8,26s23.6,22.4,29.5,15.9s8.9-23,17.1-21.9s9.5,1.8,8.3-4.1s-6.5-5.9,0.6-7.7
		s10,2.4,7.7-3.5s-4.1-8.3,0.6-14.8s7.1-8.3,6.5-14.8s13-65,13-65S776.7,150.8,742.4,155.5z"/>
	<path class="st4" d="M745.4,153.7c0,0-23.6,9.5-23.6,29.5s1.2,46.7-3,55.5s-7.7,11.8-5.3,18.9c2.4,7.1,6.5,5.9,0,11.2
		s-5.9-3.5-6.5,5.3s5.9,10,0,14.2s-21.3,20.7-14.8,26s23.6,22.4,29.5,15.9s8.9-23,17.1-21.9s9.5,1.8,8.3-4.1s-6.5-5.9,0.6-7.7
		s10,2.4,7.7-3.5s-4.1-8.3,0.6-14.8s7.1-8.3,6.5-14.8s13-65,13-65S779.7,149,745.4,153.7z"/>
	<path class="st4" d="M868.9,561.9c0,51.7,32.4,93.5,72.5,93.5"/>
	<path class="st5" d="M941.4,655.4c0-52.3,36.2-94.6,80.9-94.6"/>
	<path class="st5" d="M895.2,566.5c0,49.1,20.7,88.8,46.2,88.8"/>
	<path class="st4" d="M941.4,655.4c0-66.8,41.8-120.8,93.5-120.8"/>
	<path class="st8" d="M926.1,656c0,0,10.3-0.3,13.4-2.5s15.8-4.8,16.6-1.3s15.5,17.6,3.8,17.7s-27-1.8-30.1-3.7S926.1,656,926.1,656
		z"/>
	<path class="st9" d="M960.1,668.7c-11.6,0.1-27-1.8-30.1-3.7c-2.4-1.4-3.3-6.6-3.6-9c-0.2,0-0.3,0-0.3,0s0.7,8.3,3.7,10.2
		c3.1,1.9,18.5,3.8,30.1,3.7c3.4,0,4.5-1.2,4.4-3C963.9,668,962.6,668.6,960.1,668.7z"/>
</g>
</svg>
