<?xml version="1.0" encoding="utf-8"?>
<!-- Generator: Adobe Illustrator 21.1.0, SVG Export Plug-In . SVG Version: 6.00 Build 0)  -->
<svg version="1.1" id="bf2b12fd-98ef-4df9-abe4-52340225686d"
	 xmlns="http://www.w3.org/2000/svg" xmlns:xlink="http://www.w3.org/1999/xlink" x="0px" y="0px" viewBox="0 0 992.1 708.7"
	 style="enable-background:new 0 0 992.1 708.7;" xml:space="preserve">
<style type="text/css">
	.st0{opacity:0.1;}
	.st1{fill:#3F3D56;}
	.st2{fill:#2193B0;}
	.st3{opacity:0.1;enable-background:new    ;}
	.st4{opacity:0.15;enable-background:new    ;}
	.st5{fill:none;stroke:#3F3D56;stroke-width:4;stroke-miterlimit:10;}
	.st6{fill:url(#SVGID_1_);}
	.st7{fill:#2F2E41;}
	.st8{fill:#FBBEBE;}
	.st9{fill:#E8E8F0;}
	.st10{fill:#F86D70;}
	.st11{fill:none;}
</style>
<g>
	<title>discount</title>
	<g class="st0">
		<ellipse class="st1" cx="725" cy="586.9" rx="18.7" ry="24.5"/>
		<path class="st1" d="M739.9,482c2.6-4.6,4-9.7,3.9-15c0-13.6-8.4-24.5-18.7-24.5s-18.7,11-18.7,24.5c-0.1,5.3,1.3,10.4,3.9,15
			c-5.2,9.3-5.2,20.7,0,30c-5.2,9.3-5.2,20.7,0,30c-2.6,4.6-4,9.7-3.9,15c0,13.6,8.4,24.5,18.7,24.5s18.7-11,18.7-24.5
			c0.1-5.3-1.3-10.4-3.9-15c5.2-9.3,5.2-20.7,0-30C745.1,502.6,745.1,491.3,739.9,482L739.9,482z"/>
		<ellipse class="st1" cx="725" cy="437" rx="18.7" ry="24.5"/>
		<ellipse class="st1" cx="725" cy="407" rx="18.7" ry="24.5"/>
		<path class="st2" d="M795.2,201.8c2.6-3.3,4.9-6.7,7-10.3l-49.2-8.1l53.3,0.4c10.3-22.5,10.9-48.2,1.7-71.1l-71.5,37.1l65.9-48.4
			c-24.9-42.9-79.8-57.5-122.7-32.7c-42.9,24.9-57.5,79.8-32.7,122.7c2.1,3.6,4.5,7.1,7.1,10.4c-4,5.1-7.4,10.6-10.2,16.4l63.9,33.2
			l-68.2-22.9c-9.7,28.7-4.3,60.4,14.4,84.3c-30.7,39-23.9,95.4,15.1,126.1c39,30.7,95.4,23.9,126.1-15.1c25.6-32.6,25.6-78.4,0-111
			C820.8,280.2,820.8,234.3,795.2,201.8L795.2,201.8z"/>
		<path class="st3" d="M634.9,257.3c0,20.1,6.7,39.7,19.2,55.5c-30.7,39-23.9,95.4,15.1,126.1c39,30.7,95.4,23.9,126.1-15.1
			c25.6-32.6,25.6-78.4,0-111C807.2,297.5,634.9,247.2,634.9,257.3z"/>
	</g>
	<g class="st0">
		<ellipse class="st1" cx="199.2" cy="570.3" rx="11.4" ry="14.9"/>
		<path class="st1" d="M208.3,506.4c1.6-2.8,2.4-5.9,2.4-9.1c0-8.2-5.1-14.9-11.4-14.9c-6.3,0-11.4,6.7-11.4,14.9
			c0,3.2,0.8,6.4,2.4,9.1c-3.2,5.7-3.2,12.6,0,18.3c-3.2,5.7-3.2,12.6,0,18.3c-1.6,2.8-2.4,5.9-2.4,9.1c0,8.3,5.1,14.9,11.4,14.9
			c6.3,0,11.4-6.7,11.4-14.9c0-3.2-0.8-6.3-2.4-9.1c3.2-5.7,3.2-12.6,0-18.3C211.5,519,211.5,512.1,208.3,506.4L208.3,506.4z"/>
		<ellipse class="st1" cx="199.2" cy="479" rx="11.4" ry="14.9"/>
		<ellipse class="st1" cx="199.2" cy="460.7" rx="11.4" ry="14.9"/>
		<path class="st2" d="M156.5,335.8c-1.6-2-3-4.1-4.2-6.3l30-4.9l-32.4,0.2c-6.3-13.7-6.7-29.3-1-43.3l43.5,22.6l-40.1-29.5
			c15.1-26.1,48.6-35,74.7-19.9c26.1,15.1,35,48.6,19.9,74.7c-1.3,2.2-2.7,4.3-4.3,6.3c2.4,3.1,4.5,6.4,6.2,10L209.7,366l41.5-13.9
			c5.9,17.5,2.6,36.8-8.8,51.3c18.7,23.7,14.6,58.1-9.2,76.7c-23.7,18.7-58.1,14.6-76.7-9.2c-15.6-19.8-15.6-47.7,0-67.6
			C140.9,383.6,140.9,355.6,156.5,335.8L156.5,335.8z"/>
		<path class="st3" d="M254.1,369.6c0,12.3-4.1,24.2-11.7,33.8c18.7,23.7,14.6,58.1-9.2,76.7c-23.7,18.7-58.1,14.6-76.7-9.2
			c-15.6-19.8-15.6-47.7,0-67.6C149.2,394.1,254.1,363.5,254.1,369.6z"/>
	</g>
	<g class="st0">
		<ellipse class="st1" cx="456.4" cy="578.2" rx="15.3" ry="20"/>
		<path class="st1" d="M468.5,492.7c2.1-3.7,3.2-7.9,3.2-12.2c0-11-6.8-20-15.3-20s-15.3,9-15.3,20c0,4.3,1.1,8.5,3.2,12.2
			c-4.3,7.6-4.3,16.8,0,24.4c-4.3,7.6-4.3,16.8,0,24.4c-2.1,3.7-3.2,7.9-3.2,12.2c0,11,6.8,20,15.3,20s15.3-9,15.3-20
			c0-4.3-1.1-8.5-3.2-12.2c4.2-7.6,4.2-16.8,0-24.4C472.7,509.6,472.7,500.3,468.5,492.7z"/>
		<ellipse class="st1" cx="456.4" cy="456.1" rx="15.3" ry="20"/>
		<ellipse class="st1" cx="456.4" cy="431.6" rx="15.3" ry="20"/>
		<path class="st2" d="M399.2,264.5c-2.1-2.7-4-5.5-5.7-8.4l40.1-6.6l-43.4,0.3c-8.4-18.3-8.9-39.3-1.4-58l58.2,30.2l-53.7-39.5
			c20.1-35,64.9-47.1,99.9-26.9s47.1,64.9,26.9,99.9c-1.8,3.1-3.8,6.1-6,8.9c3.2,4.1,6,8.6,8.3,13.3l-52.1,27.1l55.5-18.7
			c7.9,23.4,3.5,49.3-11.8,68.7c25,31.8,19.5,77.7-12.3,102.7c-31.8,25-77.7,19.5-102.7-12.3c-20.9-26.5-20.9-63.9,0-90.4
			C378.3,328.3,378.3,291,399.2,264.5L399.2,264.5z"/>
		<path class="st3" d="M529.8,309.7c0,16.4-5.5,32.3-15.7,45.2c25,31.8,19.5,77.7-12.3,102.7c-31.8,25-77.7,19.5-102.7-12.3
			c-20.9-26.5-20.9-63.9,0-90.4C389.4,342.5,529.8,301.5,529.8,309.7z"/>
	</g>
	<path class="st1" d="M981.9,596.4c0,5.8-42.6,11.2-113.1,15.3c-12.8,0.7-26.5,1.4-41.1,2.1c-12.6,0.6-25.8,1.1-39.6,1.6
		c-13.4,0.5-27.2,0.9-41.6,1.3c-45.4,1.3-95.7,2.2-149,2.7c-13,0.1-26.1,0.2-39.4,0.3c-13.9,0.1-27.9,0.1-42,0.1
		c-257.3,0-465.8-10.4-465.8-23.3c0-12.9,208.6-23.3,465.8-23.3c110.8,0,212.5,1.9,292.4,5.2l8.7,0.4h0.1
		C918,582.9,981.9,589.3,981.9,596.4z"/>
	<path class="st4" d="M981.9,596.4c0,5.8-42.6,11.2-113.1,15.3c-12.8,0.7-26.5,1.4-41.1,2.1c-12.6,0.6-25.8,1.1-39.6,1.6
		c-13.4,0.5-27.2,0.9-41.6,1.3c-45.4,1.3-95.7,2.2-149,2.7c-13,0.1-26.1,0.2-39.4,0.3c-13.9,0.1-27.9,0.1-42,0.1
		c-257.3,0-465.8-10.4-465.8-23.3c0-12.9,208.6-23.3,465.8-23.3c110.8,0,212.5,1.9,292.4,5.2l8.7,0.4h0.1
		C918,582.9,981.9,589.3,981.9,596.4z"/>
	<path class="st1" d="M943.5,592.3c0,4.9-42.6,9.3-113.1,12.7c-12.8,0.6-26.5,1.2-41.1,1.8c-12.6,0.5-25.8,0.9-39.6,1.3
		c-13.4,0.4-27.2,0.8-41.6,1.1c-45.4,1.1-95.7,1.9-149,2.3c-12.9,0.1-26.1,0.2-39.4,0.2c-13.9,0.1-27.9,0.1-42,0.1
		c-257.3,0-465.8-8.7-465.8-19.5s208.6-19.5,465.8-19.5c110.8,0,212.5,1.6,292.4,4.3l8.7,0.3h0.1C879.6,581,943.5,586.4,943.5,592.3
		z"/>
	<path class="st1" d="M132.1,415l-11.7-35.8l280.1-3.1l11.5,35.5L132.1,415z"/>
	<path class="st4" d="M132.1,415l-11.7-35.8l280.1-3.1l11.5,35.5L132.1,415z"/>
	<path class="st1" d="M113.5,415l-11.7-35.8l280.1-3.1l11.5,35.5L113.5,415z"/>
	<path class="st1" d="M591.6,360c-29,0-51.8-11.5-68.5-34.5s-25-50.8-25-83.5c0-32.9,8.1-60.7,24.2-83.4
		c16.1-22.7,38.9-34,68.3-33.9c31.2,0,54.6,11.9,70.4,35.8c15.8,23.9,23.7,51.5,23.7,82.9c0,31.2-8.2,58.4-24.5,81.7
		C643.8,348.3,621,360,591.6,360z M592.4,334.1c19.1,0,33.3-8.3,42.7-24.9c9.4-16.6,14.1-37.5,14.1-62.8c0-28.1-4.8-51.1-14.5-69.1
		c-9.6-17.9-24.4-26.9-44.4-26.9c-37.9,0-56.9,30.1-56.9,90.3C533.6,303,553.2,334.1,592.4,334.1L592.4,334.1z M602,581.8h-41.9
		l274.2-452.5h41.1L602,581.8z M844.5,586.4c-29.4,0-52.3-11.6-68.7-34.8c-16.4-23.2-24.7-51-24.8-83.6c0-32.7,8-60.4,24-83
		s38.8-34,68.5-33.9c30.9,0,54.3,11.9,69.9,35.8c15.7,23.9,23.5,51.5,23.5,82.9c0,31-8.1,58.1-24.4,81.6
		C896.4,574.7,873.7,586.4,844.5,586.4L844.5,586.4z M845,559.9c19,0,33.1-8.2,42.5-24.5c9.4-16.3,14-37.2,14-62.5
		c0-27.2-4.7-49.9-14.2-68.3c-9.5-18.4-24.2-27.6-44.3-27.6c-38.1,0-57.2,30.1-57.2,90.3C785.8,529,805.6,559.9,845,559.9L845,559.9
		z"/>
	<path class="st1" d="M591.6,360c-29,0-51.8-11.5-68.5-34.5s-25-50.8-25-83.5c0-32.9,8.1-60.7,24.2-83.4
		c16.1-22.7,38.9-34,68.3-33.9c31.2,0,54.6,11.9,70.4,35.8c15.8,23.9,23.7,51.5,23.7,82.9c0,31.2-8.2,58.4-24.5,81.7
		C643.8,348.3,621,360,591.6,360z M592.4,334.1c19.1,0,33.3-8.3,42.7-24.9c9.4-16.6,14.1-37.5,14.1-62.8c0-28.1-4.8-51.1-14.5-69.1
		c-9.6-17.9-24.4-26.9-44.4-26.9c-37.9,0-56.9,30.1-56.9,90.3C533.6,303,553.2,334.1,592.4,334.1L592.4,334.1z M602,581.8h-41.9
		l274.2-452.5h41.1L602,581.8z M844.5,586.4c-29.4,0-52.3-11.6-68.7-34.8c-16.4-23.2-24.7-51-24.8-83.6c0-32.7,8-60.4,24-83
		s38.8-34,68.5-33.9c30.9,0,54.3,11.9,69.9,35.8c15.7,23.9,23.5,51.5,23.5,82.9c0,31-8.1,58.1-24.4,81.6
		C896.4,574.7,873.7,586.4,844.5,586.4L844.5,586.4z M845,559.9c19,0,33.1-8.2,42.5-24.5c9.4-16.3,14-37.2,14-62.5
		c0-27.2-4.7-49.9-14.2-68.3c-9.5-18.4-24.2-27.6-44.3-27.6c-38.1,0-57.2,30.1-57.2,90.3C785.8,529,805.6,559.9,845,559.9L845,559.9
		z"/>
	<path class="st4" d="M591.6,360c-29,0-51.8-11.5-68.5-34.5s-25-50.8-25-83.5c0-32.9,8.1-60.7,24.2-83.4
		c16.1-22.7,38.9-34,68.3-33.9c31.2,0,54.6,11.9,70.4,35.8c15.8,23.9,23.7,51.5,23.7,82.9c0,31.2-8.2,58.4-24.5,81.7
		C643.8,348.3,621,360,591.6,360z M592.4,334.1c19.1,0,33.3-8.3,42.7-24.9c9.4-16.6,14.1-37.5,14.1-62.8c0-28.1-4.8-51.1-14.5-69.1
		c-9.6-17.9-24.4-26.9-44.4-26.9c-37.9,0-56.9,30.1-56.9,90.3C533.6,303,553.2,334.1,592.4,334.1L592.4,334.1z M602,581.8h-41.9
		l274.2-452.5h41.1L602,581.8z M844.5,586.4c-29.4,0-52.3-11.6-68.7-34.8c-16.4-23.2-24.7-51-24.8-83.6c0-32.7,8-60.4,24-83
		s38.8-34,68.5-33.9c30.9,0,54.3,11.9,69.9,35.8c15.7,23.9,23.5,51.5,23.5,82.9c0,31-8.1,58.1-24.4,81.6
		C896.4,574.7,873.7,586.4,844.5,586.4L844.5,586.4z M845,559.9c19,0,33.1-8.2,42.5-24.5c9.4-16.3,14-37.2,14-62.5
		c0-27.2-4.7-49.9-14.2-68.3c-9.5-18.4-24.2-27.6-44.3-27.6c-38.1,0-57.2,30.1-57.2,90.3C785.8,529,805.6,559.9,845,559.9L845,559.9
		z"/>
	<path class="st1" d="M565.3,360c-29,0-51.8-11.5-68.5-34.5s-25-50.8-25-83.5c0-32.9,8.1-60.7,24.2-83.4
		c16.1-22.7,38.9-34,68.3-33.9c31.2,0,54.6,11.9,70.4,35.8s23.7,51.5,23.7,82.9c0,31.2-8.2,58.4-24.5,81.7
		C617.5,348.3,594.7,360,565.3,360z M566.1,334.1c19.1,0,33.3-8.3,42.7-24.9c9.4-16.6,14.1-37.5,14.1-62.8
		c0-28.1-4.8-51.1-14.5-69.1c-9.6-17.9-24.4-26.9-44.4-26.9c-37.9,0-56.9,30.1-56.9,90.3C507.2,303,526.9,334.1,566.1,334.1
		L566.1,334.1z M575.7,581.8h-41.9L808,129.2h41.1L575.7,581.8z M818.2,586.4c-29.4,0-52.3-11.6-68.7-34.8
		c-16.4-23.2-24.7-51-24.8-83.6c0-32.7,8-60.4,24-83c16-22.7,38.8-34,68.5-33.9c30.9,0,54.3,11.9,69.9,35.8
		c15.7,23.9,23.5,51.5,23.5,82.9c0,31-8.1,58.1-24.4,81.6C870.1,574.7,847.4,586.4,818.2,586.4L818.2,586.4z M818.7,559.9
		c19,0,33.1-8.2,42.5-24.5c9.4-16.3,14-37.2,14-62.5c0-27.2-4.7-49.9-14.2-68.3c-9.5-18.4-24.2-27.6-44.3-27.6
		c-38.1,0-57.2,30.1-57.2,90.3C759.5,529,779.3,559.9,818.7,559.9L818.7,559.9z"/>
	<path class="st5" d="M656.9,593.1c3.5-6.5-0.5-14.4-5-20.2s-10.1-11.8-10-19.2c0.2-10.6,11.4-16.8,20.4-22.5
		c6.7-4.2,12.8-9.1,18.3-14.7c2.3-2.2,4.2-4.7,5.6-7.5c1.9-4.1,1.8-8.9,1.7-13.4c-0.4-15.1-1.1-30.2-2.2-45.3"/>
	<path class="st2" d="M702.7,449.5c-0.3-5.6-3.4-10.7-8.2-13.5l-3.7,7.3l0.1-8.9c-1.8-0.5-3.6-0.7-5.4-0.7
		c-9.1,0.4-16.2,8.2-15.7,17.3c0.4,9.1,8.2,16.2,17.3,15.7C696.1,466.4,703.1,458.6,702.7,449.5z"/>
	<path class="st2" d="M673.2,561.3c-4.2,8.1-14.1,11.3-22.2,7.1c-8.1-4.2-11.3-14.1-7.1-22.2c4.2-8.1,14.1-11.3,22.2-7.1
		c3.7,1.9,6.5,5.1,7.9,8.9l-10.3,8.4l11.4-2.6C675.1,556.4,674.4,559,673.2,561.3z"/>
	<path class="st2" d="M665.1,529.2c-9.1,0.4-16.8-6.6-17.3-15.7c0,0,0,0,0,0c-0.1-2.6,0.4-5.2,1.4-7.5c2-4.5,5.9-7.8,10.6-9.2
		l-0.1,6.8l3.7-7.4l0,0c9.1-0.4,16.8,6.6,17.3,15.7C681.1,521.1,674.1,528.8,665.1,529.2L665.1,529.2L665.1,529.2z"/>
	<path class="st2" d="M705.2,502.6c-9.1,0.6-17-6.3-17.6-15.4c-0.6-9.1,6.3-17,15.4-17.6c0.2,0,0.4,0,0.6,0c3.1-0.2,6.2,0.6,8.8,2.1
		l-2.9,8l6-5.8c3.2,2.9,5.2,7,5.4,11.4c0.1,1.5-0.1,3.1-0.4,4.5C718.8,497,712.5,502.2,705.2,502.6z"/>
	<path class="st3" d="M700.5,453.9c-3.8,0.4-7.5,1.6-11.3,1.8s-8-0.7-10.4-3.7c-1.3-1.6-2-3.6-3.1-5.4c-1-1.6-2.5-3-4.2-3.9
		c-4.1,8.1-0.9,18.1,7.3,22.2s18.1,0.9,22.2-7.3c0.6-1.3,1.1-2.6,1.4-4C701.7,453.8,701.1,453.9,700.5,453.9z"/>
	<path class="st3" d="M705.2,502.6c-9.1,0.4-16.9-6.6-17.3-15.8c-0.1-2.7,0.4-5.4,1.6-7.8c1.3,0.9,2.4,2,3.3,3.3
		c1.2,1.8,1.9,3.8,3.3,5.5c2.5,3,7,4,10.9,3.8c4-0.2,7.8-1.3,11.8-1.7c0.6-0.1,1.1-0.1,1.7-0.1C718.8,497,712.5,502.2,705.2,502.6z"
		/>
	<path class="st3" d="M665.1,529.2c-9.1,0.4-16.8-6.6-17.3-15.7c0,0,0,0,0,0c-0.1-2.6,0.4-5.2,1.4-7.5c1.4,0.9,2.5,2.1,3.5,3.4
		c1.3,1.8,2.1,3.9,3.6,5.6c2.8,3.1,7.5,4.2,11.7,4.1c4.2-0.1,8-1.1,12.1-1.4C678,524.3,672,528.9,665.1,529.2z"/>
	<path class="st3" d="M673.2,561.3c-4.1,8.1-14.1,11.4-22.2,7.2c-7.6-3.8-11-12.8-7.9-20.7c1.4,0.9,2.6,2,3.6,3.2
		c1.6,1.9,2.6,4.1,4.4,5.9c3.4,3.3,8.8,4.7,13.7,4.8C667.6,561.8,670.4,561.6,673.2,561.3z"/>
	<path class="st5" d="M912.3,592.3c3.5-6.5-0.5-14.4-5-20.2c-4.6-5.8-10.1-11.8-10-19.2c0.2-10.6,11.4-16.8,20.4-22.5
		c6.7-4.2,12.8-9.1,18.3-14.7c2.3-2.2,4.2-4.7,5.6-7.5c1.9-4.1,1.8-8.9,1.7-13.4c-0.4-15.1-1.1-30.2-2.2-45.3"/>
	<path class="st2" d="M958.1,448.7c-0.3-5.6-3.4-10.7-8.2-13.5l-3.7,7.3l0.1-8.9c-1.8-0.5-3.6-0.7-5.4-0.7
		c-9.1,0.4-16.2,8.2-15.7,17.3c0.4,9.1,8.2,16.2,17.3,15.7C951.5,465.5,958.6,457.8,958.1,448.7z"/>
	<path class="st2" d="M928.7,560.5c-4.2,8.1-14.1,11.3-22.2,7.1c-8.1-4.2-11.3-14.1-7.1-22.2c4.2-8.1,14.1-11.3,22.2-7.1
		c3.7,1.9,6.5,5.1,7.9,8.9l-10.3,8.4l11.4-2.6C930.5,555.6,929.9,558.1,928.7,560.5z"/>
	<path class="st2" d="M920.5,528.4c-9.1,0.4-16.8-6.6-17.3-15.7c0,0,0,0,0,0c-0.1-2.6,0.4-5.2,1.4-7.5c2-4.5,5.9-7.8,10.6-9.2
		l-0.1,6.8l3.7-7.4h0c9.1-0.4,16.8,6.6,17.3,15.7S929.6,527.9,920.5,528.4L920.5,528.4L920.5,528.4z"/>
	<path class="st2" d="M960.6,501.7c-9.1,0.6-17-6.3-17.6-15.4s6.3-17,15.4-17.6c0.2,0,0.4,0,0.6,0c3.1-0.2,6.2,0.6,8.8,2.1l-2.9,8
		l6-5.8c3.2,2.9,5.2,7,5.4,11.4c0.1,1.5-0.1,3.1-0.4,4.5C974.3,496.2,968,501.4,960.6,501.7z"/>
	<path class="st3" d="M955.9,453.1c-3.8,0.4-7.5,1.6-11.3,1.8c-3.8,0.2-8-0.7-10.4-3.7c-1.3-1.6-2-3.6-3.1-5.4c-1-1.6-2.5-3-4.2-3.9
		c-4.1,8.1-0.9,18.1,7.3,22.2c8.1,4.1,18.1,0.9,22.2-7.3c0.6-1.3,1.1-2.6,1.4-4C957.2,453,956.5,453,955.9,453.1z"/>
	<path class="st3" d="M960.6,501.7c-9.1,0.4-16.9-6.6-17.3-15.8c-0.1-2.7,0.4-5.4,1.6-7.8c1.3,0.9,2.4,2,3.3,3.3
		c1.2,1.8,1.9,3.8,3.3,5.5c2.5,3,7,4,10.9,3.8s7.8-1.3,11.8-1.7c0.6-0.1,1.1-0.1,1.7-0.1C974.3,496.2,968,501.4,960.6,501.7z"/>
	<path class="st3" d="M920.5,528.4c-9.1,0.4-16.8-6.6-17.3-15.7c0,0,0,0,0,0c-0.1-2.6,0.4-5.2,1.4-7.5c1.4,0.9,2.5,2.1,3.5,3.4
		c1.3,1.8,2.1,3.9,3.6,5.6c2.8,3.1,7.5,4.2,11.7,4.1c4.1-0.1,8-1.1,12.1-1.4C933.5,523.4,927.5,528.1,920.5,528.4z"/>
	<path class="st3" d="M928.7,560.5c-4.1,8.1-14.1,11.4-22.2,7.2c-7.6-3.8-11-12.8-7.9-20.7c1.4,0.9,2.6,2,3.6,3.2
		c1.6,1.9,2.6,4.1,4.4,5.9c3.4,3.3,8.8,4.7,13.7,4.8C923.1,560.9,925.9,560.8,928.7,560.5z"/>
	<path class="st5" d="M105.1,581.2c-3.5-6.5,0.5-14.4,5-20.2c4.6-5.8,10.1-11.8,10-19.2c-0.2-10.6-11.4-16.8-20.4-22.5
		c-6.7-4.2-12.8-9.1-18.3-14.7c-2.3-2.2-4.2-4.7-5.6-7.5c-1.9-4.1-1.8-8.9-1.7-13.4c0.4-15.1,1.1-30.2,2.2-45.3"/>
	<path class="st2" d="M59.3,437.6c0.3-5.6,3.4-10.7,8.2-13.5l3.7,7.3l-0.1-8.9c1.8-0.5,3.6-0.7,5.4-0.7c9.1,0.4,16.2,8.2,15.7,17.3
		c-0.4,9.1-8.2,16.2-17.3,15.7C65.9,454.5,58.9,446.7,59.3,437.6z"/>
	<path class="st2" d="M88.8,549.4c4.2,8.1,14.1,11.3,22.2,7.1c8.1-4.2,11.3-14.1,7.1-22.2c-4.2-8.1-14.1-11.3-22.2-7.1
		c-3.7,1.9-6.5,5.1-7.9,8.9l10.3,8.4l-11.4-2.6C86.9,544.5,87.6,547.1,88.8,549.4z"/>
	<path class="st2" d="M96.9,517.4c9.1,0.4,16.8-6.6,17.3-15.7c0,0,0,0,0,0c0.1-2.6-0.4-5.2-1.4-7.5c-2-4.5-5.9-7.8-10.6-9.2l0.1,6.8
		l-3.7-7.4l0,0c-9.1-0.4-16.8,6.6-17.3,15.7C80.9,509.2,87.9,516.9,96.9,517.4L96.9,517.4z"/>
	<path class="st2" d="M56.8,490.7c9.1,0.6,17-6.3,17.6-15.4s-6.3-17-15.4-17.6c-0.2,0-0.4,0-0.6,0c-3.1-0.1-6.1,0.6-8.8,2.1l2.9,8
		l-6.1-5.7c-3.2,2.9-5.1,7-5.4,11.4c-0.1,1.5,0.1,3.1,0.4,4.5C43.2,485.1,49.5,490.3,56.8,490.7z"/>
	<path class="st3" d="M61.6,442c3.8,0.4,7.5,1.6,11.3,1.8s8-0.7,10.4-3.7c1.3-1.6,2-3.6,3.1-5.4c1-1.6,2.5-3,4.2-3.9
		c4.1,8.1,0.9,18.1-7.3,22.2s-18.1,0.9-22.2-7.3c-0.6-1.3-1.1-2.6-1.4-4C60.3,441.9,60.9,442,61.6,442z"/>
	<path class="st3" d="M56.8,490.7c9.1,0.4,16.9-6.6,17.3-15.8c0.1-2.7-0.4-5.4-1.6-7.8c-1.3,0.9-2.4,2-3.3,3.3
		c-1.2,1.8-1.9,3.8-3.3,5.5c-2.5,3-7,4-10.9,3.8s-7.8-1.3-11.8-1.7c-0.6-0.1-1.1-0.1-1.7-0.1C43.2,485.1,49.5,490.3,56.8,490.7z"/>
	<path class="st3" d="M96.9,517.4c9.1,0.4,16.8-6.6,17.3-15.7c0,0,0,0,0,0c0.1-2.6-0.4-5.2-1.4-7.5c-1.4,0.9-2.5,2.1-3.5,3.4
		c-1.3,1.8-2.1,3.9-3.6,5.6c-2.8,3.1-7.5,4.2-11.7,4.1c-4.1-0.1-8-1.1-12.1-1.4C84,512.4,90,517,96.9,517.4z"/>
	<path class="st3" d="M88.8,549.4c4.1,8.1,14.1,11.4,22.2,7.2c7.6-3.8,11-12.8,7.9-20.7c-1.4,0.9-2.6,2-3.6,3.2
		c-1.6,1.9-2.6,4.1-4.4,5.9c-3.4,3.3-8.8,4.7-13.7,4.8C94.4,549.9,91.6,549.8,88.8,549.4z"/>
	
		<linearGradient id="SVGID_1_" gradientUnits="userSpaceOnUse" x1="521.941" y1="-6.2867" x2="521.941" y2="129.1996" gradientTransform="matrix(1 0 0 -1 -28.5 593.0414)">
		<stop  offset="0" style="stop-color:#808080;stop-opacity:0.25"/>
		<stop  offset="0.54" style="stop-color:#808080;stop-opacity:0.12"/>
		<stop  offset="1" style="stop-color:#808080;stop-opacity:0.1"/>
	</linearGradient>
	<path class="st6" d="M583.4,501.7c0-4.2-1.9-8.1-5.2-10.6c-0.2-7.8-5.8-14.1-12.9-15.1c-1.1-5.4-5-9.8-10.3-11.5l0,0
		c-0.6-0.2-1.3-0.3-1.9-0.4h-0.2l-0.3,0h-0.3H552h-0.4h-0.2h-0.6c-7.3,0-13.3,5.6-14.6,12.9c-4.7-1.1-9,0.3-9.8,3.3
		c-0.2,0.8-0.2,1.6,0.1,2.4c0.8,2.3,3.4,4.5,6.9,5.6l0.5,0.1c0.2,0.1,0.5,0.1,0.7,0.2h0.2l0,0c-2.7,5.7-0.4,12.6,5.2,15.5
		c-0.1,0.1-0.2,0.1-0.3,0.2c-0.4,0.4-0.8,0.9-1,1.4c-0.9,1.5-1.5,3.1-2,4.7c-0.3,1.4-0.4,2.9-0.8,4.3c-0.8,2.5-2.8,4.8-3,7.5
		c-0.1,1.2,0.1,2.6-0.8,3.4c-0.2,0.2-0.4,0.4-0.7,0.5c-0.6,0.4-1.1,0.9-1.5,1.6c-0.3,0.5-0.6,1-1,1.4c-0.8,0.6-2,0.5-2.4,1.4
		c-0.4,0.9,0.6,2,0.4,2.9c-0.2,0.8-1.1,1.2-1.7,1.7c-0.7,0.8-1.2,1.7-1.4,2.7c-2.6,0.5-5.2-0.2-7.2-1.8c0.3,0.9,0.6,1.8,0.7,2.7
		c-1-1.1-2.7-1.4-3.9-2c-1.6-0.7-3-1.8-4.2-3.1l2.2-0.3l-9.8-14.9l-2.9-0.6l2.6,5c-0.4,0.2-0.7,0.6-0.8,1.1
		c-0.1,0.6-0.2,1.1-0.1,1.7c0.1,1.3,0.4,2.7,0.7,4l0.8,3.5c0.1,0.3,0.1,0.7,0.2,1c-1,0-2,0.1-2.9,0.3c-2-0.7-4-1.2-6.1-1.4
		c-0.5-0.1-0.9-0.1-1.4,0.1c-0.5,0.2-0.9,0.6-1.3,1c-1.7,2-3.2,4.1-4.5,6.3c-5.3,9.2-12.3,17.2-19,25.5c-4.6,1.9-9.2,3.6-13.8,5.4
		l-9.9,3.8c-2,0.8-4,1.5-6.1,1.4c-1-0.1-2.1-0.2-2.6,0.6c-0.3,0.4-0.5,0.8-0.6,1.3c-0.3,0-0.7,0.1-1,0.1h-0.1
		c-0.6-1.6-1.2-3.2-2.4-4.4c-0.5,0.1-0.9,0.4-1.1,0.8c-0.2,0.4-0.4,0.9-0.7,1.3c-0.5,0.8-1.5,1.2-2.1,1.8s-1.1,1.7-1.8,2.3
		c-1,0.7-2.2,1.2-3.4,1.3c-1.8,0.4-3.6,1.1-5.3,2c-0.6,0.4-1.3,0.7-2,0.9c-0.8,0.1-1.5,0.2-2.3,0.1l-5.2-0.4c-0.5-0.1-0.9,0-1.4,0.1
		c-1.1,0.4-1.8,1.5-1.7,2.7c0.1,1.1,0.7,2.2,1.7,2.9c0.9,0.7,1.9,1.2,3,1.6c4.6,1.8,9.3,3.1,14,4.1v1.1c3.3,1.7,7,2.5,10.7,2.5
		c0.3,0,0.5,0,0.8-0.1c0.3-0.3,0.6-0.6,0.7-1.1c1.1-3.3,1.8-6.8,2.1-10.3l0,0c0.7,0,1.3-0.2,1.9-0.5c1.8-0.5,3.6,0.7,5.5,1
		c2.3,0.2,4.4-1.1,6.6-1.9c0.3-0.1,0.6-0.2,0.9-0.3c-0.6,0.8-1.3,1.5-2.2,2.1c-0.9,0.6-1.9,1.1-2.8,1.8c-0.7,0.7-1.5,1.3-2.4,1.8
		c-0.6,0.3-1.2,0.5-1.8,0.7c-0.9,0.3-1.8,0.8-2.5,1.3c-0.7,0.4-1.3,1-1.8,1.7c-0.7,1.1-0.5,2.5,0.6,3.2c0.3,0.2,0.6,0.3,1,0.4
		c0.7,0.1,1.4,0.1,2.1,0.1c2.8-0.2,5.7-0.5,8.5-0.7c1.2-0.1,2.4-0.2,3.6-0.5c0.6-0.2,1.2-0.4,1.9-0.5c1.1-0.3,2.1-0.4,3.2-0.5
		c0.3,0,0.6,0,0.9,0.1c0.7,0.2,1.1,0.8,1.8,1c0.4,0,0.9,0,1.3-0.2c2.1-0.4,4.2-0.7,6.3-0.7c0.9-0.1,2-0.2,2.4-1.1
		c0.5-1.1-0.4-2.2-0.7-3.4c-0.2-0.7-0.3-1.5-0.3-2.2c-0.2-1.8-0.7-3.6-1.6-5.3c-0.5-0.8-0.9-1.6-1.2-2.4c4.1-1.5,7.9-3.5,11.6-5.9
		c2.1-1.3,4.2-2.7,6.6-3.2c2.7-0.6,5.6,0.2,8.3,1c6.4,1.9,12.8,4.1,19,6.6c3,1.2,5.9,2.5,9,3.4c0.9,1.2,2,2.2,3.2,3.1
		c2,1.3,4.5,1.7,6.9,1.9c3.2,0.3,6.5,0.4,9.7,0.4c2.5,0,5-0.2,7.2-1.3c0.5-0.3,1.1-0.6,1.5-1c1.7,0.3,3.4-0.6,4.8-1.8
		c1.8-1.5,3-3.5,3.6-5.7c0.8-3.1,0.2-6.6,2.1-9.1c0.5-0.7,1.2-1.2,1.6-1.9c0.6-0.9,0.9-2,0.8-3.1l0.1-0.1c0.4-1,0.7-2,0.8-3.1
		c0.2-0.8,0.5-1.6,0.8-2.4c1-2.4,1.8-4.8,2.5-7.2c0.5-1.6,0.9-3.3,1.2-5c0.2-1.3,0.3-2.7,0.4-4c0.1-2.1,0.5-4.2,1.2-6.2
		c1.7-4.8,2.6-9.8,2.8-14.9c0-0.1,0-0.2,0-0.3c5.1-0.6,8.9-4.9,8.9-10c0-1.5-0.3-3-0.9-4.3C582.8,506.4,583.4,504.1,583.4,501.7z
		 M535.4,560c0.1,0.5,0.3,1,0.5,1.6c-0.8-0.8-1.6-1.6-2.3-2.3c0.3,0.1,0.6,0.2,0.9,0.3C534.8,559.7,535.1,559.8,535.4,560L535.4,560
		z M531.6,557.5c-4.6-4-10-7.1-14.7-11c2.5,1.3,5.1,2.8,7.6,4.2c3,1.7,6,3.3,9,4.9C533,556.3,532.4,556.9,531.6,557.5L531.6,557.5z
		 M533.6,547.3l0.2-0.2c0,0.6,0,1.1,0,1.6c-0.4-0.1-0.8-0.3-1.2-0.4C532.9,548,533.3,547.7,533.6,547.3L533.6,547.3z M492.8,558.2
		c1.9-2.2,3.6-4.5,4.9-7.1c1.8,3.2,4.8,5.5,7.4,8.2C501,558.8,496.9,558.4,492.8,558.2L492.8,558.2z"/>
	<polygon class="st7" points="499.4,519.1 502.3,519.7 512.3,534.4 507.9,535 	"/>
	<path class="st8" d="M428.5,578.9c0.8,2.6,1.8,5.2,2.9,7.6c3.3-0.7,6.6-1.6,9.7-2.8c-0.6-1-1.3-1.9-2-2.7c-0.8-0.9-1.7-1.6-2.7-2.1
		c-1-0.4-2.3-0.1-3.3-0.1C431.5,578.9,430,578.9,428.5,578.9z"/>
	<path class="st7" d="M436.4,582.9c-1.6-0.5-2.7-2.2-3.3-3.8s-1.2-3.4-2.5-4.5c-0.5,0.1-0.9,0.4-1.1,0.8c-0.2,0.4-0.4,0.9-0.7,1.3
		c-0.5,0.8-1.5,1.1-2.1,1.8c-0.7,0.7-1.1,1.6-1.8,2.3c-1,0.7-2.2,1.2-3.4,1.3c-1.9,0.4-3.6,1.1-5.3,2c-0.6,0.4-1.3,0.6-2,0.8
		c-0.8,0.1-1.5,0.2-2.3,0.1l-5.3-0.4c-0.5-0.1-0.9,0-1.4,0.1c-1.1,0.4-1.8,1.5-1.7,2.6c0.1,1.1,0.8,2.2,1.7,2.8
		c0.9,0.7,1.9,1.2,3,1.5c4.6,1.7,9.3,3.1,14.2,4v1c3.4,1.7,7,2.5,10.8,2.5c0.3,0,0.6,0,0.8-0.1c0.3-0.3,0.6-0.6,0.7-1
		c1.3-3.7,2-7.6,2.2-11.5c0.1-1,0-2-0.2-3C436.4,582.8,437.3,583.2,436.4,582.9"/>
	<path class="st7" d="M537.8,562.9c-15.7,1-31.2-3.6-46.9-4.1c-1.9-0.1-3.9,0-5.8,0.4c-2,0.5-3.9,1.3-5.8,2.2
		c-8.4,3.9-17.1,7.2-25.8,10.4l-10,3.7c-2,0.7-4.1,1.5-6.2,1.4c-1-0.1-2.1-0.2-2.7,0.6c-1.6,2.4-0.8,5.9,0.2,8.6
		c0.3,0.8,0.9,1.8,1.9,1.9c0.7,0,1.3-0.2,1.9-0.5c1.8-0.5,3.6,0.7,5.5,0.9c2.3,0.2,4.5-1.1,6.6-1.9c3.6-1.3,7.6-1.3,11.4-1.9
		c6.4-1.1,12.3-4,17.8-7.4c2.1-1.3,4.2-2.7,6.7-3.1c2.8-0.5,5.6,0.2,8.4,0.9c6.5,1.8,12.9,4,19.2,6.5c3.3,1.4,6.6,2.6,10,3.6
		c7.4,2,15.3,1.5,22.4-1.3c2.5-1,5.2-2.7,5.4-5.4c0.1-1.5-1.1-2.9-1.9-4.2c-0.5-0.8-1-1.7-1.6-2.5
		C545.8,567.8,542.5,562.6,537.8,562.9z"/>
	<path class="st3" d="M537.8,562.9c-15.7,1-31.2-3.6-46.9-4.1c-1.9-0.1-3.9,0-5.8,0.4c-2,0.5-3.9,1.3-5.8,2.2
		c-8.4,3.9-17.1,7.2-25.8,10.4l-10,3.7c-2,0.7-4.1,1.5-6.2,1.4c-1-0.1-2.1-0.2-2.7,0.6c-1.6,2.4-0.8,5.9,0.2,8.6
		c0.3,0.8,0.9,1.8,1.9,1.9c0.7,0,1.3-0.2,1.9-0.5c1.8-0.5,3.6,0.7,5.5,0.9c2.3,0.2,4.5-1.1,6.6-1.9c3.6-1.3,7.6-1.3,11.4-1.9
		c6.4-1.1,12.3-4,17.8-7.4c2.1-1.3,4.2-2.7,6.7-3.1c2.8-0.5,5.6,0.2,8.4,0.9c6.5,1.8,12.9,4,19.2,6.5c3.3,1.4,6.6,2.6,10,3.6
		c7.4,2,15.3,1.5,22.4-1.3c2.5-1,5.2-2.7,5.4-5.4c0.1-1.5-1.1-2.9-1.9-4.2c-0.5-0.8-1-1.7-1.6-2.5
		C545.8,567.8,542.5,562.6,537.8,562.9z"/>
	<path class="st8" d="M458.6,579.7c2.5,0.8,4.9,1.6,7.4,2.3c1.4-2.3,4-3.9,4.6-6.5c0-0.1,0-0.2,0-0.3c-0.1-0.1-0.2-0.2-0.3-0.3
		c-1.8-1-3.8-1.6-5.8-1.7c-1.6-0.1-2.3,1.6-3.1,2.8C461.2,576.4,459.3,579.9,458.6,579.7z"/>
	<path class="st7" d="M462.1,578c-1.5-0.2-2.8-1.1-3.6-2.4c-0.3-0.6-0.7-1.4-1.4-1.4s-0.9,0.8-1.1,1.4c-0.5,2.4-1.1,4.7-2,7
		c-0.9,2.3-2.4,4.2-4.3,5.7c-0.9,0.6-1.9,1.1-2.8,1.8c-0.7,0.7-1.5,1.3-2.4,1.8c-0.6,0.3-1.2,0.5-1.8,0.7c-0.9,0.3-1.8,0.7-2.6,1.3
		c-0.7,0.4-1.3,1-1.8,1.7c-0.4,0.7-0.5,1.6-0.2,2.4c0.4,0.6,1,1.1,1.7,1.2c0.7,0.1,1.4,0.1,2.2,0.1c2.9-0.2,5.7-0.5,8.6-0.7
		c1.2-0.1,2.4-0.2,3.6-0.5c0.6-0.2,1.2-0.4,1.9-0.5c1.1-0.3,2.2-0.4,3.3-0.5c0.3,0,0.6,0,1,0.1c0.7,0.2,1.1,0.8,1.8,1
		c0.4,0,0.9,0,1.3-0.2c2.1-0.4,4.2-0.7,6.3-0.7c0.9-0.1,2-0.2,2.5-1.1c0.5-1-0.3-2.2-0.7-3.3c-0.2-0.7-0.3-1.5-0.3-2.2
		c-0.2-1.8-0.7-3.6-1.6-5.2c-0.7-1.3-1.7-2.8-1.2-4.2c0.3-0.4,0.4-0.9,0.5-1.5C468.6,577.5,463.3,578.3,462.1,578z"/>
	<path class="st8" d="M514.3,537.8c-2.8-1.2-5-3.4-6.2-6.2c-0.3-0.6-0.5-1.2-0.7-1.8c-0.8-2-2.1-3.8-3.7-5.2
		c-0.4-0.4-0.9-0.6-1.4-0.6c-0.5,0.2-0.9,0.6-1,1.1c-0.1,0.6-0.2,1.1-0.1,1.7c0.1,1.3,0.4,2.6,0.7,3.9l0.8,3.5
		c0.1,0.5,0.3,1.1,0.5,1.5c0.3,0.6,0.8,1.1,1.3,1.5c0.7,0.6,1.4,1.3,2.1,1.9c0.4,0.4,0.8,0.7,1.3,0.9c0.8,0.4,1.6,0.6,2.4,0.7
		c3.1,0.6,6.3,1.4,8.9,3.4c0,0,0-2.3-0.1-2.5c0-0.7-0.3-1.3-0.7-1.9C517.2,538.6,515.5,538.3,514.3,537.8z"/>
	<path class="st3" d="M514.3,537.8c-2.8-1.2-5-3.4-6.2-6.2c-0.3-0.6-0.5-1.2-0.7-1.8c-0.8-2-2.1-3.8-3.7-5.2
		c-0.4-0.4-0.9-0.6-1.4-0.6c-0.5,0.2-0.9,0.6-1,1.1c-0.1,0.6-0.2,1.1-0.1,1.7c0.1,1.3,0.4,2.6,0.7,3.9l0.8,3.5
		c0.1,0.5,0.3,1.1,0.5,1.5c0.3,0.6,0.8,1.1,1.3,1.5c0.7,0.6,1.4,1.3,2.1,1.9c0.4,0.4,0.8,0.7,1.3,0.9c0.8,0.4,1.6,0.6,2.4,0.7
		c3.1,0.6,6.3,1.4,8.9,3.4c0,0,0-2.3-0.1-2.5c0-0.7-0.3-1.3-0.7-1.9C517.2,538.6,515.5,538.3,514.3,537.8z"/>
	<ellipse class="st7" cx="546.2" cy="507.5" rx="3.8" ry="3.8"/>
	<path class="st7" d="M543.8,505.2c-1-0.2-2.1-0.1-3,0.4c-0.4,0.4-0.8,0.9-1,1.4c-0.9,1.5-1.5,3-2,4.7c-0.3,1.4-0.4,2.9-0.8,4.2
		c-0.8,2.5-2.8,4.7-3,7.4c-0.1,1.2,0.1,2.6-0.8,3.4c-0.2,0.2-0.4,0.3-0.7,0.5c-0.6,0.4-1.1,0.9-1.5,1.5c-0.3,0.6-0.6,1-1.1,1.5
		c-0.8,0.6-2.1,0.5-2.4,1.4c-0.4,0.9,0.6,1.9,0.4,2.9c-0.2,0.8-1.1,1.2-1.7,1.7c-0.7,0.8-1.2,1.7-1.5,2.7c-2.6,0.5-5.2-0.2-7.3-1.8
		c1.1,2.6,1.1,5.5,1.1,8.3c0.1,0.9-0.1,1.8-0.7,2.5c3,0.1,6,0.8,9,1.6c1.3,0.4,2.6,0.4,3.9,0c0.7-0.4,1.3-0.8,1.8-1.4
		c1.6-1.6,3.3-3.4,3.7-5.7c0.1-1.3,0.1-2.6,0.1-3.9c0.2-1.6,0.5-3.2,1-4.7c0.9-3.2,1.4-6.4,1.7-9.6c0.2-2,1.9-3.6,2.8-5.4
		c1.7-3.4,3.5-6.9,3.6-10.7C545.5,506.8,545.1,505.3,543.8,505.2z"/>
	<path class="st3" d="M543.8,505.2c-1-0.2-2.1-0.1-3,0.4c-0.4,0.4-0.8,0.9-1,1.4c-0.9,1.5-1.5,3-2,4.7c-0.3,1.4-0.4,2.9-0.8,4.2
		c-0.8,2.5-2.8,4.7-3,7.4c-0.1,1.2,0.1,2.6-0.8,3.4c-0.2,0.2-0.4,0.3-0.7,0.5c-0.6,0.4-1.1,0.9-1.5,1.5c-0.3,0.6-0.6,1-1.1,1.5
		c-0.8,0.6-2.1,0.5-2.4,1.4c-0.4,0.9,0.6,1.9,0.4,2.9c-0.2,0.8-1.1,1.2-1.7,1.7c-0.7,0.8-1.2,1.7-1.5,2.7c-2.6,0.5-5.2-0.2-7.3-1.8
		c1.1,2.6,1.1,5.5,1.1,8.3c0.1,0.9-0.1,1.8-0.7,2.5c3,0.1,6,0.8,9,1.6c1.3,0.4,2.6,0.4,3.9,0c0.7-0.4,1.3-0.8,1.8-1.4
		c1.6-1.6,3.3-3.4,3.7-5.7c0.1-1.3,0.1-2.6,0.1-3.9c0.2-1.6,0.5-3.2,1-4.7c0.9-3.2,1.4-6.4,1.7-9.6c0.2-2,1.9-3.6,2.8-5.4
		c1.7-3.4,3.5-6.9,3.6-10.7C545.5,506.8,545.1,505.3,543.8,505.2z"/>
	<path class="st7" d="M540.3,566.2c-3.3-1.6-5.7-4.4-8.3-6.9c-5-4.7-11.2-8.1-16.5-12.5c-3.5-2.9-6.6-6.4-10.5-8.8
		c-3.4-2.2-7.2-3.5-11.3-3.9c-0.5-0.1-0.9-0.1-1.4,0.1c-0.5,0.2-0.9,0.6-1.3,1c-1.7,1.9-3.2,4-4.5,6.2c-6.7,11.4-16.2,21-24.1,31.6
		c-0.5,0.5-0.6,1.4-0.1,1.9l1.6,3.1c0.9,1.8,2.3,3.8,4.2,3.5c0.9-0.3,1.7-0.7,2.2-1.4l7.2-6.9l7.6-7.2c4.4-4.2,8.9-8.6,11.8-14
		c2.3,3.9,6.3,6.5,9,10.1c1,1.4,1.9,2.9,2.8,4.3c1.5,2.3,3.2,4.5,4.9,6.7l8.7,11.1c1.1,1.6,2.5,3,4,4.1c2.1,1.3,4.6,1.6,7,1.9
		c3.3,0.3,6.5,0.4,9.8,0.4c2.5,0,5.1-0.2,7.3-1.3c2.2-1.1,4.1-3.4,4-5.9c-0.1-1.3-0.6-2.6-1.2-3.7
		C550.1,573.7,546.1,569,540.3,566.2z"/>
	<ellipse class="st9" cx="548.5" cy="510.1" rx="2.9" ry="2.9"/>
	<path class="st8" d="M547.9,507.9c0.7,1.3,0.8,2.8,0.3,4.2c-0.5,1.4-1.1,2.7-1.9,3.9c-0.7,1.3-1.5,2.4-2.5,3.5
		c4.5,0.2,8.9-1.6,12.9-3.7c3.2-1.7,6.4-3.9,8.1-7.1c-1,0.2-2.1,0-3-0.6c-0.9-0.6-1.6-1.3-2.3-2.1l-2.3-2.5c-0.5-0.6-1-1.2-1.4-1.8
		c-0.5-0.9-0.7-1.9-0.6-3c-0.9,0.9-1.9,1.8-3,2.5c-1.6,1.1-3.4,1.8-5,2.9c-0.6,0.4-1.9,1-1.5,1.7S547.4,507.1,547.9,507.9z"/>
	<path class="st3" d="M547.9,507.9c0.7,1.3,0.8,2.8,0.3,4.2c-0.5,1.4-1.1,2.7-1.9,3.9c-0.7,1.3-1.5,2.4-2.5,3.5
		c4.5,0.2,8.9-1.6,12.9-3.7c3.2-1.7,6.4-3.9,8.1-7.1c-1,0.2-2.1,0-3-0.6c-0.9-0.6-1.6-1.3-2.3-2.1l-2.3-2.5c-0.5-0.6-1-1.2-1.4-1.8
		c-0.5-0.9-0.7-1.9-0.6-3c-0.9,0.9-1.9,1.8-3,2.5c-1.6,1.1-3.4,1.8-5,2.9c-0.6,0.4-1.9,1-1.5,1.7S547.4,507.1,547.9,507.9z"/>
	<path class="st9" d="M547.9,508.4c-0.9,1.3-0.9,3.1,0,4.4c0.1,0.2,0.6,1.2,0.8,1.2c0.2,0,0.4-0.1,0.5-0.3c1-1.1,2-2.2,2.9-3.4
		c0.9-1.2,2.2-2.1,3.6-2.4c1.8-0.3,3.5,0.7,5,1.6c0.7,0.3,1.2,0.8,1.7,1.4c0.3,0.6,0.5,1.2,0.6,1.9c0.4,4,0.6,8.1,0.5,12.2
		c0.1,2.9-0.1,5.9-0.6,8.8c-0.3,1.5-0.7,3-0.9,4.5c-0.1,1.3-0.2,2.7-0.2,4v5.6c0,1,0,2.1,0.2,3.1c0.4,1.2,0.8,2.4,1.2,3.6
		c0.4,1.4,0.7,2.8,0.8,4.2l0.8,5.8c0.2,1.8,0.4,3.8-0.7,5.3c-0.5,0.7-1.2,1.2-1.7,1.9c-1.9,2.4-1.3,5.9-2.1,9
		c-0.6,2.2-1.9,4.2-3.7,5.6c-1.3,1.1-3.1,2.1-4.8,1.7c-2.4-0.4-3.8-2.9-4.4-5.2c-0.6-2.3-0.8-4.8-2.3-6.8c-1.1-1.6-2.9-2.6-4.5-3.8
		c-1.6-1.1-3.1-2.6-3.5-4.5c-0.2-0.8-0.1-1.7-0.1-2.5c-0.3-2.2-1.7-4.1-3.8-4.9c-1.2-0.5-2.7-0.6-3.4-1.7c1.7-1.1,3-2.8,3.5-4.7
		c0.5-1.9,0.8-3.9,0.8-5.9l0.4-6.7c0.2-3,0.3-6,1.6-8.7c0.6-1.2,1.3-2.3,1.9-3.5c0.8-1.7,1.5-3.4,2.1-5.2c1-2.8,1.9-5.5,2.8-8.3
		c0.3-1.4,0.9-2.7,1.5-3.9C545.5,510.1,546.6,508.6,547.9,508.4z"/>
	<path class="st7" d="M533,552.1l1.8,0.1l0.4-2.7c0.1-0.5,0.2-1.1,0.4-1.6c0.3-0.5,0.6-1,1-1.5c1.8-2.5,1.6-5.8,2.1-8.8
		c0.6-4,2.3-7.8,3.9-11.5l3.5-7.7c0.3-0.6,0.6-1.3,0.7-2c0.2-0.8,0.2-1.5,0.2-2.3c0-1.2,0.4-5.5,0.4-6.7c0-0.4-1-0.2-1.2-0.6
		c-0.4-0.8-1,1.5-1.8,2c-0.8,0.6-1.3,1.4-1.6,2.3c-0.7,1.9-1.2,4-1.9,5.9c-0.6,2-1.7,3.8-3.2,5.3c-0.7,0.6-1.5,1.1-2.2,1.8
		c-2.2,2.1-2.4,5.5-2.4,8.5C532.9,534.5,532.6,552.1,533,552.1z"/>
	<path class="st7" d="M558.6,505.1c-1.7,0.7-2.7,2.5-3.2,4.4s-0.7,3.7-1.6,5.3c-2.2,3.8-7.7,4.9-9.3,9c-0.4,1.4-0.6,2.8-0.6,4.2
		c-0.3,2.9-1.2,5.8-1.5,8.7c-0.1,2.3-0.1,4.6,0.2,6.8l1.9,23.1c0.4,3.4,0.2,6.8-0.6,10.2c2,0.3,4,0,5.8-1c1.8-0.8,3.5-2,5.2-2.9
		c3-1.7,6.3-2.8,9-5.1c0.5-0.4,0.9-0.8,1.2-1.3c0.4-1,0.7-2,0.8-3c0.2-0.8,0.5-1.6,0.8-2.4c1-2.3,1.8-4.7,2.5-7.1
		c0.5-1.6,0.9-3.2,1.2-4.9c0.2-1.3,0.3-2.6,0.4-4c0.1-2.1,0.5-4.1,1.2-6.1c1.7-4.7,2.6-9.6,2.8-14.6c0.1-0.7,0-1.4-0.1-2.2
		c-0.3-0.9-0.7-1.7-1.2-2.4c-0.8-1.5-1.3-3.2-2.1-4.7c-1.7-3.5-4.7-6.1-7.9-8.3C562.2,505.6,560.4,504.5,558.6,505.1z"/>
	<path class="st8" d="M518.1,542.8c-1.4-0.7-2.6-1.7-3.7-2.8c-0.5-0.6-0.8-1.2-1.4-1.8c-1.2-1.3-2.9-2.3-4.6-2.6
		c-1.8-0.4-3.6-0.6-5.4-0.5c-1.2-0.1-2.4,0.1-3.6,0.4c-1.2,0.4-2.1,1.3-2.4,2.5c-0.3,1.4,0.7,2.8,1.8,3.8c1,0.9,2.3,1.5,3.6,1.8
		c1.1,0.2,2.2,0.3,3.3,0.4c6.4,0.7,12.1,4.2,17.8,7.3c4.9,2.8,10,5.4,15.1,7.8c0.2-1.5,0.3-3.1,0.3-4.6c0-1.2-0.1-2.9-1.2-3.6
		c-1.3-0.8-3.4-1-4.8-1.5c-3.3-1.1-6.5-2.4-9.7-3.9C521.5,544.7,519.8,543.8,518.1,542.8z"/>
	<ellipse class="st8" cx="546.2" cy="495.1" rx="11.4" ry="11.5"/>
	<path class="st7" d="M561.9,518.2c-0.9,1.3-1.7,2.7-2.2,4.1c-1.4,2.9-3.6,5.4-4.7,8.5c-1.2,3.2-1.1,7-3.4,9.5
		c-0.5,0.4-0.8,0.9-1,1.4c0,0.4-0.1,0.7-0.1,1c-0.3,0.9-1.8,1-2.1,1.9c-0.1,0.3,0,0.6-0.1,0.8c-0.2,0.6-1,0.7-1.6,1.1
		c-1.1,0.8-0.8,2.5-1.7,3.6c-0.7,0.8-1.8,1.2-2.9,1c-1-0.2-2-0.6-3-1.1c-0.3-0.2-0.7-0.3-1.1-0.3c-0.4,0-0.9,0.2-1.2,0.4
		c-2.1,1.3-3.1,4-3.1,6.5c0.1,2.5,0.7,5,1.8,7.3c0.1,0.4,0.3,0.8,0.6,1.1c0.7,0.7,1.9,0.6,2.9,0.2c0.9-0.5,1.8-0.9,2.8-1.2
		c1.8-0.3,3.5,0.9,5.3,0.8c1.3-0.2,2.5-0.7,3.6-1.6c1.8-1.1,3.4-2.5,4.8-4.1c0.8-1,1.4-2.2,2-3.3c0.9-1.3,1.8-2.6,2.9-3.9l6.6-8.1
		c0.7-0.8,1.3-1.6,1.8-2.5c0.6-1.2,1.1-2.4,1.4-3.7c0.7-2.1,1.2-4.3,1.4-6.6c0-1.8-0.1-3.7-0.5-5.5c-0.2-1.8-0.7-3.6-1.4-5.2
		C568.1,517.5,564.6,515,561.9,518.2z"/>
	<path class="st10" d="M584.9,503.2c0-4.1-2-8-5.3-10.5c-0.1-7.5-5.6-13.8-13-14.9c-1.6-8-9.5-13.2-17.5-11.6
		c-6.1,1.2-10.9,6.2-11.8,12.4c-4.8-1.1-9.1,0.3-9.9,3.3c-0.8,3.1,2.5,6.6,7.6,8c1.6,0.4,3.2,0.6,4.8,0.5c2.4,3.5,6.1,5.8,10.2,6.4
		c1.2,5.6,5.6,10.1,11.2,11.5c0.8,1.8,1.9,3.5,3.4,4.8c0,0.4-0.1,0.7-0.1,1.1c-0.2,5.3,3.9,9.9,9.3,10.1s9.9-3.9,10.1-9.3
		c0-0.3,0-0.5,0-0.8c0-1.5-0.3-2.9-0.9-4.2C584.3,507.8,584.9,505.5,584.9,503.2z"/>
	<path class="st3" d="M530.7,482.5c0.8-2.9,5.1-4.3,9.9-3.3c1.2-7.3,7.4-12.6,14.7-12.7c0.3,0,0.7,0,1,0c-1.4-0.4-2.8-0.6-4.2-0.6
		c-7.3,0.1-13.6,5.5-14.7,12.7c-4.8-1.1-9.1,0.3-9.9,3.3c-0.8,3.1,2.5,6.6,7.6,8c0.9,0.3,1.9,0.4,2.9,0.5
		C533.1,488.9,529.9,485.5,530.7,482.5z"/>
	<path class="st3" d="M567.9,514.7c0-0.4,0-0.7,0.1-1.1c-1.5-1.3-2.7-2.9-3.4-4.8c-5.6-1.4-9.9-5.9-11.2-11.5
		c-4.2-0.6-7.9-2.9-10.2-6.4c-1,0.1-1.9,0-2.9-0.1c2.4,3.2,5.9,5.3,9.9,5.9c1.2,5.6,5.6,10.1,11.2,11.5c0.8,1.8,1.9,3.5,3.4,4.8
		c0,0.4-0.1,0.7-0.1,1.1c-0.1,5.4,4.2,9.9,9.6,10C570.4,522.6,567.8,518.9,567.9,514.7z"/>
	
		<ellipse transform="matrix(0.7963 -0.6049 0.6049 0.7963 -188.8661 433.9913)" class="st8" cx="550" cy="497.4" rx="1.8" ry="2.4"/>
	<path class="st2" d="M278.1,556.5l11.3-6.6c-1.5-2.6-3.5-4.9-5.8-6.9l-21.3,6.6l16.7-9.8c-13.2-7.2-29.7-2.4-36.9,10.8
		c-2.2,4-3.3,8.5-3.3,13c0,15,12.2,15.5,27.2,15.5c15,0,27.2-0.5,27.2-15.5c0-3.8-0.8-7.6-2.3-11L278.1,556.5z"/>
	<path class="st3" d="M281,571.1c-1.2-1.2-2.5-2.3-4-3.1c-2-1.4-4.2-2.8-6.6-3.2c-2.1-0.4-4.3-0.1-6.5-0.2c-3.8-0.2-7.3-1.9-9.9-4.5
		c-1.5-1.6-2.8-3.6-4.6-4.8c-2.1-1.2-4.5-1.7-6.9-1.3c-0.7,0.1-1.4,0.2-2,0.4c-1.1,3-1.6,6.1-1.6,9.2c0,15,12.2,15.5,27.2,15.5
		c7.3,0,13.9-0.1,18.8-2l-0.8-1.5C283.1,574,282.2,572.5,281,571.1z"/>
</g>
<rect class="st11" width="992.1" height="708.7"/>
</svg>
