<?xml version="1.0" ?><!DOCTYPE svg  PUBLIC '-//W3C//DTD SVG 1.1//EN'  'http://www.w3.org/Graphics/SVG/1.1/DTD/svg11.dtd'><svg height="512px" style="enable-background:new 0 0 512 512;" version="1.1" viewBox="0 0 512 512" width="512px" xml:space="preserve" xmlns="http://www.w3.org/2000/svg" xmlns:xlink="http://www.w3.org/1999/xlink"><g id="D_-_8_x2C__Building_x2C__office_x2C__Tower_x2C__Headoffice"><g><rect height="28.113" width="28.113" x="211.957" y="246.629"/><rect height="28.113" width="28.113" x="80.763" y="312.226"/><rect height="28.113" width="28.113" x="211.957" y="312.226"/><rect height="28.113" width="28.113" x="146.36" y="246.629"/><rect height="28.113" width="28.113" x="146.36" y="181.032"/><rect height="28.113" width="28.113" x="80.763" y="181.032"/><rect height="28.113" width="28.113" x="80.763" y="246.629"/><rect height="28.113" width="28.113" x="146.36" y="115.436"/><rect height="28.113" width="28.113" x="211.957" y="181.032"/><rect height="28.113" width="28.113" x="80.763" y="115.436"/><rect height="28.113" width="28.113" x="146.36" y="312.226"/><rect height="28.113" width="28.113" x="211.957" y="115.436"/><rect height="28.113" width="159.306" x="80.763" y="40.468"/><path d="M408.746,124.807h-23.427v-24.365c0-2.587-2.098-4.686-4.686-4.686s-4.686,2.099-4.686,4.686v24.365h-28.073h-0.041    h-0.107l-0.359-43.145c-0.022-2.575-2.115-4.647-4.686-4.647c-0.014,0-0.025,0-0.039,0c-2.588,0.022-4.668,2.137-4.646,4.725    l0.358,43.067h-23.317v37.484h93.709V124.807z"/><path d="M485.588,462.161V318.462l-39.357-52.983v196.683h-9.371V251.314v-79.653h-23.428h-103.08h-23.428v290.5h-9.371V166.976    V77.952h-32.798H76.078H43.279v384.209H26.412c-2.587,0-4.686,2.098-4.686,4.686s2.098,4.686,4.686,4.686h459.176    c2.589,0,4.686-2.098,4.686-4.686S488.177,462.161,485.588,462.161z M202.585,110.75c0-2.587,2.099-4.686,4.686-4.686h37.484    c2.588,0,4.686,2.099,4.686,4.686v37.484c0,2.588-2.098,4.686-4.686,4.686h-37.484c-2.587,0-4.686-2.098-4.686-4.686V110.75z     M202.585,176.347c0-2.587,2.099-4.686,4.686-4.686h37.484c2.588,0,4.686,2.099,4.686,4.686v37.484    c0,2.588-2.098,4.686-4.686,4.686h-37.484c-2.587,0-4.686-2.098-4.686-4.686V176.347z M202.585,241.943    c0-2.587,2.099-4.685,4.686-4.685h37.484c2.588,0,4.686,2.098,4.686,4.685v37.484c0,2.588-2.098,4.686-4.686,4.686h-37.484    c-2.587,0-4.686-2.098-4.686-4.686V241.943z M202.585,307.54c0-2.588,2.099-4.686,4.686-4.686h37.484    c2.588,0,4.686,2.098,4.686,4.686v37.484c0,2.588-2.098,4.686-4.686,4.686h-37.484c-2.587,0-4.686-2.098-4.686-4.686V307.54z     M136.989,110.75c0-2.587,2.098-4.686,4.686-4.686h37.484c2.588,0,4.686,2.099,4.686,4.686v37.484    c0,2.588-2.098,4.686-4.686,4.686h-37.484c-2.587,0-4.686-2.098-4.686-4.686V110.75z M136.989,176.347    c0-2.587,2.098-4.686,4.686-4.686h37.484c2.588,0,4.686,2.099,4.686,4.686v37.484c0,2.588-2.098,4.686-4.686,4.686h-37.484    c-2.587,0-4.686-2.098-4.686-4.686V176.347z M136.989,241.943c0-2.587,2.098-4.685,4.686-4.685h37.484    c2.588,0,4.686,2.098,4.686,4.685v37.484c0,2.588-2.098,4.686-4.686,4.686h-37.484c-2.587,0-4.686-2.098-4.686-4.686V241.943z     M136.989,307.54c0-2.588,2.098-4.686,4.686-4.686h37.484c2.588,0,4.686,2.098,4.686,4.686v37.484    c0,2.588-2.098,4.686-4.686,4.686h-37.484c-2.587,0-4.686-2.098-4.686-4.686V307.54z M71.392,110.75    c0-2.587,2.098-4.686,4.686-4.686h37.484c2.588,0,4.686,2.099,4.686,4.686v37.484c0,2.588-2.098,4.686-4.686,4.686H76.078    c-2.587,0-4.686-2.098-4.686-4.686V110.75z M71.392,176.347c0-2.587,2.098-4.686,4.686-4.686h37.484    c2.588,0,4.686,2.099,4.686,4.686v37.484c0,2.588-2.098,4.686-4.686,4.686H76.078c-2.587,0-4.686-2.098-4.686-4.686V176.347z     M71.392,241.943c0-2.587,2.098-4.685,4.686-4.685h37.484c2.588,0,4.686,2.098,4.686,4.685v37.484    c0,2.588-2.098,4.686-4.686,4.686H76.078c-2.587,0-4.686-2.098-4.686-4.686V241.943z M71.392,307.54    c0-2.588,2.098-4.686,4.686-4.686h37.484c2.588,0,4.686,2.098,4.686,4.686v37.484c0,2.588-2.098,4.686-4.686,4.686H76.078    c-2.587,0-4.686-2.098-4.686-4.686V307.54z M193.215,462.161v-84.339h-65.597v84.339h-9.371v-89.024    c0-2.588,2.098-4.686,4.686-4.686H197.9c2.588,0,4.686,2.098,4.686,4.686v89.024H193.215z M315.037,462.161V204.46    c0-2.587,2.098-4.686,4.686-4.686s4.686,2.098,4.686,4.686v257.701H315.037z M343.15,462.161V204.46    c0-2.587,2.098-4.686,4.686-4.686s4.686,2.098,4.686,4.686v257.701H343.15z M371.263,462.161V204.46    c0-2.587,2.098-4.686,4.686-4.686s4.686,2.098,4.686,4.686v257.701H371.263z M399.375,462.161V204.46    c0-2.587,2.098-4.686,4.686-4.686c2.589,0,4.686,2.098,4.686,4.686v257.701H399.375z"/></g></g><g id="Layer_1"/></svg>