<?xml version="1.0" ?><!DOCTYPE svg  PUBLIC '-//W3C//DTD SVG 1.1//EN'  'http://www.w3.org/Graphics/SVG/1.1/DTD/svg11.dtd'><svg enable-background="new 0 0 512 512" height="512px" id="Hangouts_2_" version="1.1" viewBox="0 0 512 512" width="512px" xml:space="preserve" xmlns="http://www.w3.org/2000/svg" xmlns:xlink="http://www.w3.org/1999/xlink"><g id="bg_9_"><g><polygon fill="#3F992C" points="0,0 0,512 355,512 512,354 512,0   "/></g></g><g id="Hangouts"><g><path d="M256.5,69C167.858,69,96,140.864,96,229.514s71.858,160.514,160.5,160.514c0,12.018,0,49.248,0,50.103    c0,1.019,0,3.339,2.783,2.783c3.427-0.556,53.651-23.172,94.63-65.876c25.488-26.561,49.52-70.431,57.158-104.174    c3.859-13.79,5.929-28.328,5.929-43.35C417,140.864,345.142,69,256.5,69z M230.523,287.039    c-11.413,11.413-24.709,14.845-27.832,14.845c-7.328,0-7.422-3.765-7.422-5.567c0-1.802,0-9.745,0-12.989    c0-5.131,4.899-4.855,7.422-5.566c2.523-0.712,6.489-1.256,11.133-7.423c3.75-4.35,4.625-11.222,4.754-15.773h-39.081    c-4.099,0-7.422-3.323-7.422-7.422v-55.67c0-4.1,3.323-7.423,7.422-7.423h55.665c4.099,0,7.422,3.323,7.422,7.423v48.247    C242.584,259.553,243.856,273.833,230.523,287.039z M328.864,287.039c-11.413,11.413-24.709,14.845-27.832,14.845    c-7.328,0-7.423-3.765-7.423-5.567c0-1.802,0-9.745,0-12.989c0-5.131,4.899-4.855,7.423-5.566    c2.522-0.712,6.488-1.256,11.133-7.423c3.749-4.35,4.625-11.222,4.754-15.773h-39.081c-4.099,0-7.422-3.323-7.422-7.422v-55.67    c0-4.1,3.323-7.423,7.422-7.423h55.665c4.099,0,7.422,3.323,7.422,7.423v48.247C340.925,259.553,342.197,273.833,328.864,287.039z    " fill="#FFFFFF"/></g></g><g id="Clip_Light_9_"><g><polygon fill="#4FB33A" points="355,354 355,512.02 512,354   "/></g></g><g id="Shadow_Clip_9_" opacity="0.102"><g><polygon points="198,512 355,512 355,353.98   "/></g></g></svg>