<svg xmlns="http://www.w3.org/2000/svg" width="1831.609" height="559" viewBox="0 0 1831.609 559">
  <g id="Group_87" data-name="Group 87" transform="translate(-11953.5 -3859.5)">
    <path id="Path_792" data-name="Path 792" d="M404.485,453.124c-3.549-1.121-7.175-2.241-10.826-3.414,1.852-7.975,3.574-16.706,5.143-25.906,7.535-5.239,15.07-10.634,22.476-16.159.386,4.769.643,9.383.874,13.943-5.76,11.311-11.649,21.919-17.667,31.536ZM202.538,95c4.295-3.362,8.589-6.49,12.781-9.487.18-2.215.386-4.3.591-6.333,4.192-1.642,8.332-3.258,12.421-4.743C233.243,81,238.9,89.186,245.047,98.673c-1.954,2.059-3.909,4.17-5.889,6.333-6.635,2.294-13.372,4.691-20.084,7.115.771-7.376,1.62-14.23,2.572-20.407-2.6,4.222-5.22,8.7-7.895,13.4-4.6.156-9.206.339-13.758.521q1.234-5.59,2.546-10.634Zm344.773,179.91c-6.558,8.105-14.272,16.68-22.913,25.62-.154,5.369-.334,10.79-.54,16.159-3.266,4.639-6.635,9.3-10.183,14.048-3.369-14-7.2-28.538-11.624-43.368q-7.368-11.845-15.764-24.134c-13.012-3.284-27.1-6.62-41.968-10.06-4.4-4.274-8.923-8.522-13.5-12.823-2.212,1.355-4.372,2.684-6.583,4.014q5.207,12.745,10.081,25.515c5.015-2.763,10-5.551,14.787-8.262q9.8,8.522,18.875,16.758c-17.9,12.693-37.648,26.037-58.452,39.511-9.9-22.023-20.778-44.984-32.222-67.789-2.366.365-4.732.756-7.1,1.147,11.778,27.157,23.093,54.549,32.916,80.533,10.826-5.551,21.4-11.077,31.6-16.524-3.5,12.275-7.252,24.5-11.212,36.462-10.8,10.269-21.961,20.381-33.2,30.259.54,13.917.823,27.183.771,39.459-6.249,4.352-12.472,8.575-18.747,12.666-12.806,17.41-25.459,32.5-37.468,44.124-10.081,1.355-20.11,2.554-30.062,3.727-7.483-11.885-16.355-28.122-26.024-47.408,2.289-8.835,4.732-18.27,7.2-28.252-6.095-17.358-12.549-36.305-19.081-56.035-21.884,1.355-43.537,2.528-64.7,3.492-12.241-11.676-24.327-23.587-36.105-35.549,1.543-19.182,3.472-38.781,5.709-58.276,11.495-14.543,23.376-29.086,35.308-43.368,22.527-4.222,45.543-8.314,68.4-12.2,1.44,5.968,2.854,11.989,4.295,18.035,9.386,6.073,18.8,12.275,28.236,18.478,3.6-5.082,7.123-10.138,10.646-15.09,14.3,3.753,28.467,7.558,42.405,11.389q5.323-3.284,10.569-6.49c1.44-5.317,2.777-10.555,4.14-15.742-9.438-1.772-19.03-3.6-28.7-5.369-3.266-5.395-6.558-10.79-9.823-16.107-2.34-1.121-4.629-2.267-6.918-3.44-1.8,6.594-3.626,13.318-5.529,20.12-4.423-5.473-8.821-10.868-13.244-16.211.232-4.431.463-8.809.617-13.136q-8.679-6.607-17.255-12.927c-3.42-1.616-6.815-3.206-10.209-4.769.334,4.144.591,8.366.926,12.64,7.123,4.587,14.349,9.252,21.576,14.022q-5.478,6.1-11.058,12.484-7.946-10.2-15.635-19.99c-3.729-4.092-7.38-8.132-11.058-12.093-8.538,3.988-17.152,8.132-25.767,12.3-6.172,9.018-12.421,18.3-18.644,27.757q-13.655-1.955-27.027-3.779c-.129-11.233-.154-22.205-.077-32.709q16.857.7,34.125,1.616c-3.446-5.525-6.84-10.946-10.183-16.211-1.954-4.3-3.883-8.522-5.786-12.588,8.589-2.658,17.2-5.291,25.767-7.793,4.886-5.551,9.669-10.894,14.427-16,3.755-.235,7.535-.5,11.264-.73-.72-2.841-1.466-5.63-2.186-8.314,2.469-2.554,4.835-4.952,7.2-7.376q2.7,5.942,5.452,12.406c10.441.209,20.881.521,31.3.86,2.674-5.994,5.169-11.676,7.586-16.993,3.96,1.043,7.921,2.111,11.881,3.154q-2.469-5.63-4.912-10.738c5.76-1.2,11.366-2.346,16.972-3.44-2.032-1.538-4.063-3-6.069-4.431-4.989.808-10.081,1.694-15.224,2.606-2.16-3.023-4.295-5.89-6.378-8.6l-.823-.026.334-.6c-.849-1.121-1.749-2.215-2.623-3.232,1.929-.808,3.857-1.616,5.735-2.346,1.517-2.606,2.752-4.535,4.115-6.646-1.877-.156-3.78-.339-5.658-.5-2.674,1.642-5.426,3.518-8.229,5.473-2.263,2.971-4.629,6.333-7.1,9.93,3.086,2.059,6.2,4.144,9.335,6.333-2.6,5.317-5.272,11.207-8.152,17.514-4.655,1.355-9.335,2.711-14.092,4.118-2.674-6.542-5.323-12.614-7.869-18.218-5.323,2.111-10.775,4.274-16.252,6.568-2.546-1.147-5.04-2.215-7.535-3.31.566-5.551,1.183-10.686,1.8-15.247,4.577-2.137,9.052-4.092,13.424-5.942a98.2,98.2,0,0,1,10.7-11.989c8.486-1.746,16.638-3.18,24.4-4.352,19.724.912,40.322,2.372,61.178,4.144,28.9-.99,63.955-2.267,79.411-3.023A271.771,271.771,0,0,0,102.4,62.029c3.163.443,6.3.912,9.489,1.407,1.877,4.769,4.012,9.93,6.532,15.716.823,2.945,1.723,6.1,2.7,9.356-4.989,4.822-9.9,10.034-14.684,15.585-1,2.737-1.98,5.5-2.932,8.366-3.652,2.085-7.2,4.222-10.749,6.359-2.314,7.793-4.449,16.028-6.429,24.577-4.346-.626-8.641-1.225-12.781-1.8-2.906-17.045-4.577-31.692-5.915-45.4a279.838,279.838,0,0,0-33.662,48.476c1.414-1.2,2.726-2.372,4.166-3.545,3.677,18.843,8.1,39.511,14.118,62-12.086,7.9-22.939,15.742-32.3,23.3A217.478,217.478,0,0,0,2.212,245.119,288.186,288.186,0,0,0,0,278.974a283.969,283.969,0,0,0,8.769,68.857c4.886,1.8,10.209,3.571,16.124,5.317a394.761,394.761,0,0,0,30.55,31.458q3.7,11.22,7.843,22.049c14.658,9.252,30.679,18.218,47.369,26.636-5.04,15.846-8.923,29.633-11.829,41.544-6.506.182-12.807.339-19.03.469C129.634,526.36,198.81,558,275.314,558c149.461,0,270.84-120.826,274.877-271.338C549.189,282.727,548.391,278.9,547.311,274.908Z" transform="translate(11954 3860)" fill="#6dd5ed" stroke="#6dd5ed" stroke-width="1" opacity="0.39"/>
    <path id="Path_269" data-name="Path 269" d="M134.7,143.007c-1.182-.354-2.389-.707-3.605-1.078.617-2.517,1.19-5.272,1.713-8.176,2.509-1.653,5.018-3.356,7.485-5.1.128,1.505.214,2.961.291,4.4-1.918,3.57-3.879,6.918-5.883,9.953ZM67.448,29.982c1.43-1.061,2.86-2.048,4.256-2.994.06-.7.128-1.357.2-2,1.4-.518,2.775-1.028,4.136-1.5,1.636,2.073,3.52,4.656,5.566,7.65-.651.65-1.3,1.316-1.961,2-2.209.724-4.453,1.481-6.688,2.246.257-2.328.54-4.491.856-6.44-.865,1.333-1.738,2.747-2.629,4.228-1.533.049-3.066.107-4.582.165q.411-1.764.848-3.356Zm114.814,56.78c-2.184,2.558-4.753,5.264-7.63,8.086-.051,1.694-.111,3.405-.18,5.1-1.088,1.464-2.209,2.936-3.391,4.433-1.122-4.417-2.4-9.007-3.871-13.687q-2.454-3.738-5.25-7.617c-4.333-1.036-9.026-2.089-13.976-3.175-1.464-1.349-2.972-2.69-4.5-4.047-.736.428-1.456.847-2.192,1.267q1.734,4.022,3.357,8.053c1.67-.872,3.331-1.752,4.924-2.607q3.263,2.69,6.286,5.289c-5.96,4.006-12.537,8.217-19.465,12.47-3.3-6.95-6.919-14.2-10.73-21.394-.788.115-1.576.239-2.364.362,3.922,8.571,7.69,17.216,10.962,25.416,3.605-1.752,7.125-3.5,10.525-5.215-1.165,3.874-2.415,7.732-3.734,11.507-3.6,3.241-7.313,6.432-11.056,9.55.18,4.392.274,8.579.257,12.453-2.081,1.374-4.153,2.706-6.243,4a113.914,113.914,0,0,1-12.477,13.926c-3.357.428-6.7.806-10.011,1.176-2.492-3.751-5.447-8.875-8.666-14.962.762-2.788,1.576-5.766,2.4-8.916-2.03-5.478-4.179-11.458-6.354-17.685-7.288.428-14.5.8-21.546,1.1-4.076-3.685-8.1-7.444-12.023-11.219.514-6.054,1.156-12.239,1.9-18.392,3.828-4.59,7.784-9.18,11.758-13.687,7.5-1.333,15.166-2.624,22.779-3.849.48,1.884.951,3.784,1.43,5.692,3.126,1.917,6.26,3.874,9.4,5.832,1.2-1.6,2.372-3.2,3.545-4.763,4.761,1.184,9.48,2.385,14.122,3.595q1.773-1.036,3.52-2.048c.48-1.678.925-3.331,1.379-4.968-3.143-.559-6.337-1.135-9.557-1.694-1.088-1.7-2.184-3.405-3.271-5.083-.779-.354-1.541-.716-2.3-1.086-.6,2.081-1.207,4.2-1.841,6.35-1.473-1.727-2.937-3.43-4.41-5.116.077-1.4.154-2.78.206-4.146q-2.89-2.085-5.746-4.08c-1.139-.51-2.269-1.012-3.4-1.505.111,1.308.2,2.64.308,3.989,2.372,1.448,4.779,2.92,7.185,4.425q-1.824,1.925-3.682,3.94-2.646-3.22-5.207-6.309c-1.242-1.291-2.458-2.566-3.682-3.817-2.843,1.258-5.712,2.566-8.581,3.882-2.055,2.846-4.136,5.774-6.209,8.76q-4.547-.617-9-1.193c-.043-3.545-.051-7.008-.026-10.323q5.613.222,11.364.51c-1.148-1.744-2.278-3.455-3.391-5.116-.651-1.357-1.293-2.69-1.927-3.973,2.86-.839,5.729-1.67,8.581-2.459,1.627-1.752,3.22-3.438,4.8-5.05,1.25-.074,2.509-.156,3.751-.23-.24-.9-.488-1.777-.728-2.624.822-.806,1.61-1.563,2.4-2.328q.9,1.875,1.816,3.915c3.477.066,6.954.165,10.422.271.891-1.892,1.721-3.685,2.526-5.363,1.319.329,2.638.666,3.956,1-.548-1.184-1.1-2.311-1.636-3.389,1.918-.378,3.785-.74,5.652-1.086-.677-.485-1.353-.946-2.021-1.4-1.661.255-3.357.535-5.07.823-.719-.954-1.43-1.859-2.124-2.714l-.274-.008.111-.189c-.283-.354-.582-.7-.873-1.02.642-.255,1.285-.51,1.91-.74.505-.823.916-1.431,1.37-2.1-.625-.049-1.259-.107-1.884-.156-.891.518-1.807,1.11-2.74,1.727-.754.938-1.541,2-2.364,3.134,1.028.65,2.064,1.308,3.109,2-.865,1.678-1.756,3.537-2.715,5.527-1.55.428-3.109.855-4.693,1.3-.891-2.065-1.773-3.981-2.62-5.75-1.773.666-3.588,1.349-5.412,2.073-.848-.362-1.678-.7-2.509-1.045.188-1.752.394-3.372.6-4.812,1.524-.674,3.014-1.291,4.47-1.875A31.624,31.624,0,0,1,93.353,19.9c2.826-.551,5.541-1,8.127-1.374,6.568.288,13.428.749,20.373,1.308,9.626-.313,21.3-.716,26.445-.954a94.406,94.406,0,0,0-114.2.7c1.053.14,2.1.288,3.16.444.625,1.505,1.336,3.134,2.175,4.96.274.929.574,1.925.9,2.953-1.661,1.522-3.3,3.167-4.89,4.919-.334.864-.659,1.736-.976,2.64-1.216.658-2.4,1.333-3.58,2.007-.771,2.459-1.482,5.059-2.141,7.757-1.447-.2-2.877-.387-4.256-.568-.968-5.379-1.524-10-1.97-14.329a88.383,88.383,0,0,0-11.21,15.3c.471-.378.908-.749,1.387-1.119,1.225,5.947,2.7,12.47,4.7,19.568C13.377,66.6,9.763,69.077,6.645,71.462a70.353,70.353,0,0,0-5.909,5.9A86.268,86.268,0,0,0,0,88.045a85.2,85.2,0,0,0,2.92,21.731c1.627.568,3.4,1.127,5.369,1.678a127.943,127.943,0,0,0,10.174,9.928q1.233,3.541,2.612,6.959c4.881,2.92,10.217,5.75,15.774,8.406-1.678,5-2.972,9.352-3.939,13.111-2.167.058-4.265.107-6.337.148a93.194,93.194,0,0,0,65.11,26.1c49.772,0,90.193-38.133,91.537-85.635C182.887,89.229,182.621,88.02,182.261,86.762Z" transform="matrix(0.643, 0.766, -0.766, 0.643, 13667.338, 4157.352)" fill="#6dd5ed" opacity="0.39"/>
  </g>
</svg>
