<svg xmlns="http://www.w3.org/2000/svg" width="204.774" height="201.933" viewBox="0 0 204.774 201.933">
  <g id="Group_61" data-name="Group 61" transform="translate(-21.015 -44.853)">
    <g id="D_-_8_Building_office_Tower_Headoffice" data-name="D - 8, Building, office, Tower, Headoffice">
      <g id="Group_60" data-name="Group 60">
        <rect id="Rectangle_968" data-name="Rectangle 968" width="10.637" height="12.941" transform="translate(92.995 139.756)" fill="#2193b0"/>
        <rect id="Rectangle_969" data-name="Rectangle 969" width="10.637" height="12.941" transform="translate(43.354 169.952)" fill="#2193b0"/>
        <rect id="Rectangle_970" data-name="Rectangle 970" width="10.637" height="12.941" transform="translate(92.995 169.952)" fill="#2193b0"/>
        <rect id="Rectangle_971" data-name="Rectangle 971" width="10.637" height="12.941" transform="translate(68.175 139.756)" fill="#2193b0"/>
        <rect id="Rectangle_972" data-name="Rectangle 972" width="10.637" height="12.941" transform="translate(68.175 109.559)" fill="#2193b0"/>
        <rect id="Rectangle_973" data-name="Rectangle 973" width="10.637" height="12.941" transform="translate(43.354 109.559)" fill="#2193b0"/>
        <rect id="Rectangle_974" data-name="Rectangle 974" width="10.637" height="12.941" transform="translate(43.354 139.756)" fill="#2193b0"/>
        <rect id="Rectangle_975" data-name="Rectangle 975" width="10.637" height="12.941" transform="translate(68.175 79.363)" fill="#2193b0"/>
        <rect id="Rectangle_976" data-name="Rectangle 976" width="10.637" height="12.941" transform="translate(92.995 109.559)" fill="#2193b0"/>
        <rect id="Rectangle_977" data-name="Rectangle 977" width="10.637" height="12.941" transform="translate(43.354 79.363)" fill="#2193b0"/>
        <rect id="Rectangle_978" data-name="Rectangle 978" width="10.637" height="12.941" transform="translate(68.175 169.952)" fill="#2193b0"/>
        <rect id="Rectangle_979" data-name="Rectangle 979" width="10.637" height="12.941" transform="translate(92.995 79.363)" fill="#2193b0"/>
        <rect id="Rectangle_980" data-name="Rectangle 980" width="60.279" height="12.941" transform="translate(43.354 44.853)" fill="#2193b0"/>
        <path id="Path_273" data-name="Path 273" d="M167.457,83.677h-8.865V72.461a1.807,1.807,0,1,0-3.546,0V83.677H144.368l-.136-19.861a1.989,1.989,0,0,0-1.773-2.139h-.015a2,2,0,0,0-1.758,2.175l.136,19.825H132v17.255h35.458V83.677Z" fill="#2193b0"/>
        <path id="Path_274" data-name="Path 274" d="M196.533,238.972V172.823l-14.892-24.39v90.539H178.1V105.245H121.362V238.972h-3.546V62.108H29.171V238.972H22.788a2.2,2.2,0,0,0,0,4.314H196.533a2.2,2.2,0,0,0,0-4.314ZM89.449,77.206a1.994,1.994,0,0,1,1.773-2.157h14.184a1.994,1.994,0,0,1,1.773,2.157V94.461a1.993,1.993,0,0,1-1.773,2.157H91.222a1.993,1.993,0,0,1-1.773-2.157V77.206Zm0,30.2a1.994,1.994,0,0,1,1.773-2.157h14.184a1.994,1.994,0,0,1,1.773,2.157v17.256a1.994,1.994,0,0,1-1.773,2.157H91.222a1.994,1.994,0,0,1-1.773-2.157V107.4Zm0,30.2a1.993,1.993,0,0,1,1.773-2.156h14.184a1.993,1.993,0,0,1,1.773,2.156v17.256a1.994,1.994,0,0,1-1.773,2.157H91.222a1.994,1.994,0,0,1-1.773-2.157V137.6Zm0,30.2a1.994,1.994,0,0,1,1.773-2.157h14.184a1.994,1.994,0,0,1,1.773,2.157V185.05a1.994,1.994,0,0,1-1.773,2.157H91.222a1.994,1.994,0,0,1-1.773-2.157V167.795ZM64.629,77.206A1.994,1.994,0,0,1,66.4,75.049H80.585a1.994,1.994,0,0,1,1.773,2.157V94.461a1.993,1.993,0,0,1-1.773,2.157H66.4a1.993,1.993,0,0,1-1.773-2.157V77.206Zm0,30.2a1.994,1.994,0,0,1,1.773-2.157H80.585a1.994,1.994,0,0,1,1.773,2.157v17.256a1.994,1.994,0,0,1-1.773,2.157H66.4a1.994,1.994,0,0,1-1.773-2.157V107.4Zm0,30.2a1.993,1.993,0,0,1,1.773-2.156H80.585a1.993,1.993,0,0,1,1.773,2.156v17.256a1.994,1.994,0,0,1-1.773,2.157H66.4a1.994,1.994,0,0,1-1.773-2.157V137.6Zm0,30.2a1.994,1.994,0,0,1,1.773-2.157H80.585a1.994,1.994,0,0,1,1.773,2.157V185.05a1.994,1.994,0,0,1-1.773,2.157H66.4a1.994,1.994,0,0,1-1.773-2.157V167.795ZM39.808,77.206a1.994,1.994,0,0,1,1.773-2.157H55.764a1.994,1.994,0,0,1,1.774,2.157V94.461a1.993,1.993,0,0,1-1.774,2.157H41.581a1.993,1.993,0,0,1-1.773-2.157Zm0,30.2a1.994,1.994,0,0,1,1.773-2.157H55.764a1.994,1.994,0,0,1,1.774,2.157v17.256a1.994,1.994,0,0,1-1.774,2.157H41.581a1.994,1.994,0,0,1-1.773-2.157Zm0,30.2a1.993,1.993,0,0,1,1.773-2.156H55.764a1.993,1.993,0,0,1,1.774,2.156v17.256a1.994,1.994,0,0,1-1.774,2.157H41.581a1.994,1.994,0,0,1-1.773-2.157Zm0,30.2a1.994,1.994,0,0,1,1.773-2.157H55.764a1.994,1.994,0,0,1,1.774,2.157V185.05a1.994,1.994,0,0,1-1.774,2.157H41.581a1.994,1.994,0,0,1-1.773-2.157Zm46.1,71.177V200.148H61.083v38.824H57.537V197.991a1.994,1.994,0,0,1,1.773-2.157H87.676a1.994,1.994,0,0,1,1.774,2.157v40.981Zm46.095,0V120.344a1.807,1.807,0,1,1,3.546,0V238.972Zm10.637,0V120.344a1.808,1.808,0,1,1,3.547,0V238.972Zm10.638,0V120.344a1.807,1.807,0,1,1,3.546,0V238.972Zm10.637,0V120.344a1.807,1.807,0,1,1,3.546,0V238.972Z" fill="#2193b0"/>
      </g>
    </g>
    <path id="Path_275" data-name="Path 275" d="M222.289,211.581c0,17.125-12.923,31.705-28.865,31.705s-28.866-14.58-28.866-31.705,12.923-31.008,28.866-31.008S222.289,194.456,222.289,211.581Z" fill="#fff" stroke="#2193b0" stroke-miterlimit="10" stroke-width="7"/>
    <path id="Path_276" data-name="Path 276" d="M197.284,230.613l-.386,2.744q-1.732,1.191-2.765,1.815a4.53,4.53,0,0,1-2.4.624,3.689,3.689,0,0,1-3.262-1.783,8.137,8.137,0,0,1-1.164-4.529c0-.709.028-1.438.086-2.18s.153-1.581.282-2.517l1.443-8.9q.193-1.279.326-2.425a18.265,18.265,0,0,0,.131-2.087,4.981,4.981,0,0,0-.4-2.38,1.654,1.654,0,0,0-1.544-.672,2.508,2.508,0,0,0-1.148.305c-.393.2-.728.4-1.01.58l.386-2.746a28.468,28.468,0,0,1,2.714-1.723,5.1,5.1,0,0,1,2.455-.717,3.6,3.6,0,0,1,3.213,1.755,8.3,8.3,0,0,1,1.129,4.559q0,.581-.078,2.043A23.162,23.162,0,0,1,195,215.06l-1.438,8.87q-.177,1.068-.316,2.443c-.1.911-.14,1.606-.14,2.073a4.489,4.489,0,0,0,.452,2.409,1.8,1.8,0,0,0,1.573.64,2.808,2.808,0,0,0,1.189-.32A5.108,5.108,0,0,0,197.284,230.613Zm.364-37.238a7.379,7.379,0,0,1-1,3.951,2.621,2.621,0,0,1-4.856,0,7.337,7.337,0,0,1-1.015-3.951,7.422,7.422,0,0,1,1.015-3.963,2.614,2.614,0,0,1,4.856,0A7.464,7.464,0,0,1,197.648,193.375Z" fill="#2193b0"/>
  </g>
</svg>
