<svg xmlns="http://www.w3.org/2000/svg" width="430.002" height="431.984" viewBox="0 0 430.002 431.984">
  <path id="Path_267" data-name="Path 267" d="M315.389,349.981c-2.767-.866-5.594-1.731-8.442-2.637,1.444-6.16,2.787-12.9,4.01-20.009,5.875-4.046,11.75-8.213,17.525-12.481.3,3.684.5,7.247.682,10.77-4.492,8.736-9.083,16.929-13.775,24.357ZM157.925,73.374c3.349-2.6,6.7-5.012,9.966-7.327.14-1.711.3-3.321.461-4.892,3.268-1.268,6.5-2.516,9.685-3.664,3.83,5.073,8.241,11.394,13.033,18.721-1.524,1.59-3.048,3.221-4.592,4.892-5.173,1.771-10.427,3.623-15.66,5.5.6-5.7,1.263-10.991,2.005-15.762-2.025,3.261-4.07,6.723-6.156,10.347-3.589.121-7.178.262-10.728.4q.962-4.318,1.985-8.213ZM426.754,212.332c-5.113,6.26-11.129,12.883-17.866,19.788-.12,4.147-.261,8.334-.421,12.481-2.547,3.583-5.173,7.186-7.94,10.85-2.627-10.81-5.614-22.042-9.063-33.5q-5.745-9.149-12.292-18.64c-10.146-2.536-21.134-5.113-32.724-7.77-3.429-3.3-6.958-6.583-10.527-9.9-1.724,1.047-3.409,2.073-5.133,3.1q4.06,9.844,7.86,19.707c3.91-2.134,7.8-4.288,11.53-6.381q7.64,6.582,14.718,12.944c-13.956,9.8-29.355,20.11-45.577,30.517-7.72-17.01-16.2-34.744-25.124-52.358-1.845.282-3.689.584-5.534.886,9.184,20.975,18.006,42.132,25.666,62.2,8.442-4.288,16.683-8.555,24.643-12.762-2.727,9.481-5.655,18.922-8.742,28.162-8.422,7.931-17.124,15.742-25.886,23.371.421,10.749.642,21,.6,30.477-4.872,3.362-9.725,6.623-14.617,9.783-9.986,13.447-19.851,25.1-29.215,34.08-7.86,1.047-15.68,1.973-23.44,2.879-5.835-9.179-12.753-21.72-20.292-36.617,1.785-6.824,3.689-14.111,5.614-21.821-4.752-13.407-9.785-28.041-14.878-43.28-17.064,1.047-33.947,1.953-50.449,2.7-9.544-9.018-18.969-18.218-28.152-27.457,1.2-14.816,2.707-29.953,4.451-45.011,8.963-11.233,18.227-22.465,27.531-33.5,17.565-3.261,35.511-6.421,53.337-9.421,1.123,4.61,2.226,9.26,3.349,13.93,7.319,4.69,14.658,9.481,22.016,14.272,2.807-3.925,5.554-7.831,8.3-11.655,11.149,2.9,22.2,5.838,33.065,8.8q4.151-2.536,8.241-5.012c1.123-4.107,2.166-8.153,3.228-12.159-7.359-1.369-14.838-2.778-22.377-4.147-2.547-4.167-5.113-8.334-7.66-12.44-1.825-.866-3.609-1.751-5.394-2.657-1.4,5.093-2.827,10.286-4.311,15.54-3.449-4.227-6.878-8.394-10.326-12.521.18-3.422.361-6.8.481-10.146q-6.767-5.1-13.454-9.984c-2.667-1.248-5.314-2.476-7.96-3.684.261,3.2.461,6.462.722,9.763,5.554,3.543,11.189,7.146,16.823,10.83q-4.271,4.71-8.622,9.642-6.2-7.881-12.191-15.44c-2.907-3.16-5.755-6.281-8.622-9.34-6.657,3.08-13.374,6.281-20.092,9.5-4.812,6.965-9.685,14.131-14.537,21.438q-10.647-1.51-21.074-2.919c-.1-8.676-.12-17.151-.06-25.263q13.144.544,26.608,1.248c-2.687-4.268-5.334-8.455-7.94-12.521-1.524-3.321-3.028-6.583-4.512-9.723,6.7-2.053,13.414-4.086,20.092-6.019,3.81-4.288,7.539-8.414,11.249-12.36,2.928-.181,5.875-.382,8.783-.564-.561-2.194-1.143-4.348-1.7-6.421,1.925-1.973,3.77-3.825,5.614-5.7q2.105,4.59,4.251,9.582c8.141.161,16.282.4,24.4.664,2.085-4.63,4.03-9.018,5.915-13.125,3.088.805,6.176,1.631,9.264,2.436q-1.925-4.348-3.83-8.294c4.492-.926,8.863-1.812,13.234-2.657-1.584-1.188-3.168-2.315-4.732-3.422-3.89.624-7.86,1.308-11.87,2.013-1.684-2.335-3.349-4.549-4.973-6.643l-.642-.02.261-.463c-.662-.866-1.364-1.711-2.045-2.5,1.5-.624,3.008-1.248,4.471-1.812,1.183-2.013,2.146-3.5,3.208-5.133-1.464-.121-2.948-.262-4.411-.382-2.085,1.268-4.231,2.718-6.416,4.227-1.765,2.295-3.609,4.892-5.534,7.67,2.406,1.59,4.832,3.2,7.279,4.892-2.025,4.107-4.111,8.656-6.356,13.527-3.629,1.047-7.279,2.094-10.988,3.181-2.085-5.053-4.151-9.743-6.136-14.071-4.151,1.631-8.4,3.3-12.673,5.073-1.985-.886-3.93-1.711-5.875-2.557.441-4.288.922-8.253,1.4-11.776,3.569-1.651,7.058-3.16,10.467-4.59a76.1,76.1,0,0,1,8.341-9.26c6.617-1.349,12.973-2.456,19.029-3.362,15.379.7,31.441,1.832,47.7,3.2,22.538-.765,49.868-1.751,61.919-2.335A213.475,213.475,0,0,0,79.845,47.909c2.466.342,4.913.7,7.4,1.087,1.464,3.684,3.128,7.67,5.093,12.138.642,2.275,1.343,4.71,2.105,7.227-3.89,3.724-7.72,7.75-11.449,12.038-.782,2.114-1.544,4.247-2.286,6.462-2.847,1.61-5.614,3.261-8.381,4.912-1.8,6.019-3.469,12.38-5.013,18.983-3.389-.483-6.737-.946-9.966-1.389C55.081,96.2,53.778,84.888,52.735,74.3a216.108,216.108,0,0,0-26.247,37.442c1.1-.926,2.125-1.832,3.248-2.738,2.867,14.554,6.316,30.517,11.008,47.889-9.424,6.1-17.886,12.159-25.185,18A168.656,168.656,0,0,0,1.724,189.323,220.518,220.518,0,0,0,0,215.472a217.376,217.376,0,0,0,6.838,53.184c3.81,1.389,7.96,2.758,12.572,4.107a306.242,306.242,0,0,0,23.821,24.3q2.887,8.666,6.116,17.03c11.429,7.146,23.921,14.071,36.935,20.573-3.93,12.239-6.958,22.888-9.224,32.087-5.073.141-9.986.262-14.838.362A213.348,213.348,0,0,0,214.67,430.984c116.539,0,211.182-93.323,214.33-209.574C428.218,218.371,427.6,215.411,426.754,212.332Z" transform="translate(0.5 0.5)" fill="#6dd5ed" stroke="#6dd5ed" stroke-width="1" opacity="0.39"/>
</svg>
