<svg id="dad45462-3683-403f-af52-46fed5253ca2" xmlns="http://www.w3.org/2000/svg" xmlns:xlink="http://www.w3.org/1999/xlink" viewBox="0 0 992.13 708.66"><defs><style>.cls-1,.cls-3{fill:#2193b0;}.cls-1,.cls-13,.cls-7{opacity:0.1;}.cls-1,.cls-17,.cls-4,.cls-7{isolation:isolate;}.cls-2,.cls-23{fill:none;}.cls-2{stroke:#535461;stroke-miterlimit:10;stroke-width:2px;}.cls-4{opacity:0.25;}.cls-5{fill:url(#linear-gradient);}.cls-6{fill:#65617d;}.cls-8{fill:#fbbebe;}.cls-9{fill:#e7effd;}.cls-10{fill:#3f3d56;}.cls-11{fill:#e3a79f;}.cls-12{fill:#7c5c5c;}.cls-14{fill:#3a3768;}.cls-15{fill:#e6e8ec;}.cls-16{fill:#c7cce1;}.cls-17{opacity:0.2;}.cls-18{fill:#dcdfed;}.cls-19{fill:#f2f3f3;}.cls-20{fill:#d44f6a;}.cls-21{fill:#fecb42;}.cls-22{fill:#97d25e;}</style><linearGradient id="linear-gradient" x1="778.78" y1="-27.3" x2="778.78" y2="654.33" gradientTransform="matrix(1, 0, 0, -1, -80.59, 666.52)" gradientUnits="userSpaceOnUse"><stop offset="0" stop-color="gray" stop-opacity="0.25"/><stop offset="0.54" stop-color="gray" stop-opacity="0.12"/><stop offset="1" stop-color="gray" stop-opacity="0.1"/></linearGradient></defs><title>service</title><path class="cls-1" d="M600.07,104.16c-46.75-1.62-91.28-16.72-133.8-33.19S381.62,36.17,336,27.42c-29.35-5.63-62.91-6.42-86.57,9.31C226.67,51.87,219.31,78,215.36,102.27c-3,18.25-4.72,37.46,3.43,54.54,5.65,11.85,15.7,21.83,22.65,33.19,24.17,39.54,7.08,88.28-19.11,126.88-12.29,18.06-26.55,35.34-36,54.58s-13.87,41.36-5.58,61c8.23,19.47,27.82,34.13,49.09,44.43,43.12,20.91,94,26.89,143.48,30.28,109.68,7.5,219.94,4.23,329.92,1,40.7-1.2,81.57-2.42,121.6-8.72C847,496,870,490.42,886.15,477c20.49-17,25.57-45.78,11.85-67.1-23-35.75-86.72-44.63-102.81-83-8.86-21.12.24-44.65,13.11-64.23,27.63-42,73.93-78.88,76.36-126.9,1.69-33-20.58-66-55-81.63C793.57,37.81,743.56,39.87,716.94,67,689.51,94.87,641.35,105.6,600.07,104.16Z" transform="translate(0 0)"/><path class="cls-2" d="M468.1,646.84s-38.94-69-97.61-88.87a120,120,0,0,1-60.81-45.49,202.13,202.13,0,0,1-17.94-32.27" transform="translate(0 0)"/><path class="cls-3" d="M254.86,467.45c6.68,6.48,37.81,13.2,37.81,13.2s-7.62-30.91-14.32-37.4a16.87,16.87,0,0,0-23.49,24.21Z" transform="translate(0 0)"/><path class="cls-3" d="M272.46,523.39c9.14,1.81,38.94-9.47,38.94-9.47s-23.22-21.8-32.35-23.62a16.87,16.87,0,0,0-7.2,33l.63.12Z" transform="translate(0 0)"/><path class="cls-3" d="M336.58,583.9c8.8-3,28.78-27.82,28.78-27.82s-31-7.1-39.84-4.05a16.87,16.87,0,0,0,11,31.88Z" transform="translate(0 0)"/><path class="cls-3" d="M395.41,618.8c9.19-1.52,33.09-22.55,33.09-22.55s-29.4-12.25-38.59-10.73a16.87,16.87,0,0,0,5.49,33.28Z" transform="translate(0 0)"/><path class="cls-3" d="M337.34,489.76c0,9.31-16.85,36.34-16.85,36.34s-16.88-27-16.89-36.32a16.87,16.87,0,0,1,33.74,0Z" transform="translate(0 0)"/><path class="cls-3" d="M405.62,531.42c-2.78,8.89-26.95,29.62-26.95,29.62s-8-30.82-5.24-39.71A16.87,16.87,0,0,1,406,530q-.19.71-.44,1.39Z" transform="translate(0 0)"/><path class="cls-3" d="M466.43,581c-1.24,9.23-21.55,33.76-21.55,33.76s-13.12-29-11.85-38.25A16.86,16.86,0,1,1,466.45,581Z" transform="translate(0 0)"/><path class="cls-4" d="M254.86,467.45c6.68,6.48,37.81,13.2,37.81,13.2s-7.62-30.91-14.32-37.4a16.87,16.87,0,0,0-23.49,24.21Z" transform="translate(0 0)"/><path class="cls-4" d="M272.46,523.39c9.14,1.81,38.94-9.47,38.94-9.47s-23.22-21.8-32.35-23.62a16.87,16.87,0,0,0-7.2,33l.63.12Z" transform="translate(0 0)"/><path class="cls-4" d="M336.58,583.9c8.8-3,28.78-27.82,28.78-27.82s-31-7.1-39.84-4.05a16.87,16.87,0,0,0,11,31.88Z" transform="translate(0 0)"/><path class="cls-4" d="M395.41,618.8c9.19-1.52,33.09-22.55,33.09-22.55s-29.4-12.25-38.59-10.73a16.87,16.87,0,0,0,5.49,33.28Z" transform="translate(0 0)"/><path class="cls-4" d="M337.34,489.76c0,9.31-16.85,36.34-16.85,36.34s-16.88-27-16.89-36.32a16.87,16.87,0,0,1,33.74,0Z" transform="translate(0 0)"/><path class="cls-4" d="M405.62,531.42c-2.78,8.89-26.95,29.62-26.95,29.62s-8-30.82-5.24-39.71A16.87,16.87,0,0,1,406,530q-.19.71-.44,1.39Z" transform="translate(0 0)"/><path class="cls-4" d="M466.43,581c-1.24,9.23-21.55,33.76-21.55,33.76s-13.12-29-11.85-38.25A16.86,16.86,0,1,1,466.45,581Z" transform="translate(0 0)"/><path class="cls-2" d="M465.86,645.47s-7.62-78.86-53.21-120.81c-19.13-17.61-32.42-40.63-37.16-66.22a201.52,201.52,0,0,1-3.33-36.78" transform="translate(0 0)"/><path class="cls-3" d="M343.6,395.06c3.48,8.64,29.22,27.39,29.22,27.39s5.54-31.36,2.07-40a16.88,16.88,0,0,0-31.32,12.61Z" transform="translate(0 0)"/><path class="cls-3" d="M337,453.33c7.62,5.36,39.42,7.11,39.42,7.11s-12.38-29.34-20-34.7A16.87,16.87,0,1,0,336.55,453l.47.33Z" transform="translate(0 0)"/><path class="cls-3" d="M371.12,534.66c9.31.78,37.61-13.76,37.61-13.76s-25.5-19.1-34.79-19.85a16.87,16.87,0,0,0-3.57,33.55Z" transform="translate(0 0)"/><path class="cls-3" d="M410.76,590.39c9,2.34,39.4-7.21,39.4-7.21s-21.91-23.11-30.93-25.44a16.87,16.87,0,0,0-8.46,32.65Z" transform="translate(0 0)"/><path class="cls-3" d="M410,448.87c-3.78,8.52-30.13,26.39-30.13,26.39s-4.49-31.53-.72-40A16.87,16.87,0,0,1,410,448.87Z" transform="translate(0 0)"/><path class="cls-3" d="M455.51,514.63c-6.14,7-36.64,16.17-36.64,16.17s5.15-31.43,11.3-38.42a16.86,16.86,0,1,1,25.34,22.25Z" transform="translate(0 0)"/><path class="cls-3" d="M491,584.62c-4.91,7.94-33.38,22.13-33.38,22.13s-.24-31.84,4.64-39.78A16.88,16.88,0,0,1,491,584.63Z" transform="translate(0 0)"/><ellipse class="cls-1" cx="548.26" cy="683.83" rx="227.52" ry="16.36"/><path class="cls-5" d="M870.11,227.1c.66-1.8-4.29-11.81-4.29-12.3s-5.12-6.07-5.12-9.18-6.77-9.84-6.77-9.84-9.08-3.78-10.07-12S833,175.45,833,175.45h0s0-.75.06-1.88c0-2.54-.08-7.11-1.22-9.6a9.82,9.82,0,0,0-5.62-4.76s-1-6.4-3-8.37A9.4,9.4,0,0,1,820.9,142c1-3.11-1.32-11-6.11-12.13s-10.24-3-10.24-3-.53.1-1.32.21l-.66-.21a29,29,0,0,1-3.47.43,4.35,4.35,0,0,1-2.8-.92c-1.69-1.8-15-5.25-17.5-5.25s-9.58-3.28-9.58-3.28l-7.09-5.41c-2-1.52-5.68-7.67-6.21-8.57l-.07-.12h0a30.41,30.41,0,0,1-1.3-3.58c-.08-.25-.14-.51-.2-.76A39.48,39.48,0,0,0,760.44,91c.17-.32.32-.65.48-1a3.56,3.56,0,0,0,1.07-.17l.43-.17a7.19,7.19,0,0,0,3.5-4.19h0c.12-.36.22-.72.31-1.08l.08-.36c.06-.25.11-.5.16-.75s0-.28.07-.42.08-.49.11-.74,0-.28.06-.41c0-.31.08-.62.12-.93h0c.14-1.16.27-2.32.52-3.45a.12.12,0,0,1,0-.05h0c1-4.45,3.66-8.21,5.56-12.32h0c.27-.59.52-1.19.76-1.79s.46-1.32.65-2c.06-.2.1-.41.16-.61q.19-.74.33-1.5c0-.21.08-.42.12-.64.12-.68.21-1.36.26-2a25.27,25.27,0,0,0-1.69-11.52c-1.24-3.08-3.08-5.86-4.33-8.93-1.9-4.67-2.4-10-4.71-14.39-3.89-7.46-13-11.19-20.57-8.39-3.59,1.34-6.7,3.94-10.35,5.08-4.88,1.56-10.1.39-15.15-.31s-10.63-.76-14.69,2.54c-4.68,3.8-5.92,10.94-10.34,15.11-1.85,1.75-4.14,2.87-6.09,4.49a10,10,0,0,0-3.06,4.17,1.43,1.43,0,0,1-.11.36c0,.12-.08.28-.11.42s-.06.33-.08.49a1.49,1.49,0,0,0,0,.34,5.08,5.08,0,0,0,0,.85h0a7.06,7.06,0,0,0,.14.85,1.69,1.69,0,0,0,.06.22,6.52,6.52,0,0,0,.2.69v.13c.09.25.19.5.3.75l.16.36c0,.1.09.2.14.31a19.47,19.47,0,0,1,1.53,3.81,4.23,4.23,0,0,1-.15,2.54,7.62,7.62,0,0,1-1.83,2.4A34.13,34.13,0,0,0,677,70.65c-.19.51-.36,1-.53,1.53v0l.22.06a11.05,11.05,0,0,0,1.45.31c.28,0,.56.07.85.08a12.87,12.87,0,0,0,3.39-.25l.85-.2A20.21,20.21,0,0,0,686.54,71v1.57a39,39,0,0,0,21.67,34.88c.05.36.09.71.14,1.07s.08.6.11.9L708,109s-3-1.47-5.78,2.79-8.09,6.23-8.09,6.23-30.06,4.76-31.21,8.69l-14,.85s-5,.65-5.44,11-3.14,11.32-3.14,11.32S634.53,160,635,165.27s-4.46,7.87-4.46,7.87l-.66,9.31s-5.45-.85-6.94,5.58-4.12,9.31-4.12,9.31-9.09,7.55-9.58,13.94l-5.61,3.44s-13.05-3-16-8.2l-.91-.85a.63.63,0,0,1-.08-.13.27.27,0,0,0,0,.06c-1.95-1.84-6.09-5.7-5.46-4.81a4.08,4.08,0,0,1,.27,2.64l-1-1.07-2.6-2.89s-19.41-22.29-31.79-23.86l-.94-1.85a2.12,2.12,0,0,0-2.85-.93l-18.68,9.31a2.11,2.11,0,0,0-1,2.82h0l2.09,4.11h0a.19.19,0,0,0-.09.26h0l.74,1.45a.2.2,0,0,0,.27.09h0l.77,1.52h0a.23.23,0,0,0-.1.3l1.4,2.74a.22.22,0,0,0,.29.11h0l.57,1.11h0a.22.22,0,0,0-.09.29l1.42,2.79a.2.2,0,0,0,.27.1h0l13.54,26.76a2.13,2.13,0,0,0,2.85.94l14.34-7.17.51.37,4.23,5.44c-.72,1.69-1.32,3.39-1.83,4.9a1.3,1.3,0,0,1,0,.14c-.11.32-.21.64-.3.95l-.1.32c-.1.31-.19.62-.28.91L563,234a1.47,1.47,0,0,1-.09.31c-.47,1.64-.76,2.91-.92,3.61l-1.09-.34,1.07.46v.17c-.05.22-.07.35-.07.35.32.15.66.3,1,.44,5.78,2.54,34.65,15.18,36.13,17.11,1.65,2.13,12.55,8.36,22.46,3.11s12.05-13.28,12.05-13.28,9.58-13.29,9.91-15.24,7.76-4.23,7.76-4.23.66,22-3.14,30-10.9,43.62-10.9,43.62a5.21,5.21,0,0,1,1.41-.08l-.41,2.06a4.69,4.69,0,0,1,1.74,0c-.52,4-3.55,22.85-3.55,22.85s-1,8.53-2.65,11.48-1.81,18.37-1.81,18.37l-2.64,11.16s.35.77,1,1.92v0s2.84,6.3,7.62,9.83a20.16,20.16,0,0,1-1.33,5.08c-1.69,3.28-1.32,7.87-1.32,7.87s-2.8,12.62-2.48,16.23-1.88,12.46-1.88,12.46l-3,28.53s-2,24.76-1,31.49-.66,15.9-.66,15.9,2,19.52,1.48,21.64-3,11.32-1.48,16.4.66,19,.66,19,1,18.38,2.14,24.28-.33,13.45-.33,13.45-1.16,12.63-1.69,12.63-4.79,8.68,4,17.22,3.35,7.19,3.35,7.19-6.94-3.44-6.11,3.61c.78,6.71,1.87,5,2,4.77l-1.69,5.39,1.16.16-1,1.15a26.06,26.06,0,0,1-3.33,3.45c-2,1.47-2.15,4.75-2.15,4.75s-12.21,13.29-23.61,20c-6,3.54-11.17,6.53-13.42,9-2,2.23-1.69,4,2.54,5.43,8.92,3,24.61,4.43,35.83.66A41.79,41.79,0,0,0,642,674.14s7.11-3.61,14-2.3,20.8-7.7,20.8-7.7l-.25-2.33-.74-6.7a5.17,5.17,0,0,1-1.16-4.1c.23-1-.12-3.45-.57-5.92-.12-.65-.25-1.3-.37-1.9l1.27-.24s-1.64-8.36,1.33-10,2.14-23.12,2.14-23.12-3.8-4.92-5.78-5.74-.17-11,.17-12.3,3-26.73,3-26.73-1-8,.33-11.48-1.65-16.73-1.65-16.73-1-1.64.85-3.61,1.13-19.46,1.13-19.46-.16-8.85-.16-11.16,2-10.66,3.79-13.44.67-11.49.67-11.49h0l.1-.65a7.25,7.25,0,0,1,.14-.93l.15-.85A124.27,124.27,0,0,1,684.45,461c2.15-6.89,4.63-19,4.63-19l15.39-40.09.18-.47s7.09,13.12,7.09,25.27c0,0,1.83,14.59,1.33,18.53s1.49,22.46,1.49,22.46,2.14,26.56,2.14,27.71,2.64,21.65,4.3,24.77-1.69,12.62-2.65,13.6.33,25.1.33,25.1-2.48,19-3,23-2.48,19-.85,24.94,1,6.72,1,6.72,5.92,6.07,2.48,6.56a9.1,9.1,0,0,0-6.61,12c2.13,7.05,7.28,17.55,7.28,17.55s1-.23,2.73-.58V651l.2,9.78s1.15,9.31.49,11.49c-.48,1.55-1.14,8.9-1.46,12.7-.12,1.41-.19,2.34-.19,2.34s0,8.68,18.32,6.07,21.63-9.84,21.63-9.84l.14-.91c.27-1.69.85-5.17,1.35-7.13.67-2.63-5.27-14.44-5.27-14.44s-1-8-2.65-9.84a8.7,8.7,0,0,1-1.33-3.44c-.15-.66-.28-1.35-.39-2,.43.06.85.14,1.22.22,0,0-1-5.74,2.82-7.55s2.8-5.57,2.31-7.21,1.48-10.82,1.48-10.82a5.36,5.36,0,0,1,1.32-5.25c2.32-2.3,4.13-18.38,4.13-18.38l.4-61.92s1.16-11-.16-15.42-2.65-13-.85-15.24.17-13,.17-13,0-22.47,2.47-28,1.69-40.84,1.69-40.84l.65-23.12s5.39-5.08,4.11-31.72c5.76-.36,12.25-.57,13.23.23,1.81,1.47,13.54,9,20.47,4.23,1.49-.66,8.25-6.4,8.25-6.4l-2.91-49.17c1.82,2.74,2.92,4.56,2.92,4.56,0-6.89,19.47-29.19,19.47-29.19s18.16-23.45,22.13-26.24S869.63,248,869.63,248a72.56,72.56,0,0,1,4-8.2C875.4,236.79,869.45,228.92,870.11,227.1Zm-42.61,17.22c-5,.49-15.35,11.81-15.52,14.26-.08,1.3-1.18,3-2.19,4.41-.08-1-.16-2-.25-3-1.17-14.49-2.42-32.16-1.85-33.86,1-3,.65-16.23.65-16.23h0l.19-.25c3.33,10.29,13.67,22.43,13.67,22.43s1.82,5.25,4,5.41,1.34,6.86,1.34,6.86Z" transform="translate(0 0)"/><path class="cls-6" d="M562.74,240.58s6-31.57,25.39-31.73L602.28,238l-9.44,6.51S572.34,245.14,562.74,240.58Z" transform="translate(0 0)"/><path class="cls-7" d="M602.28,238l-9.44,6.52s-14.39.46-24.75-2.08a28.54,28.54,0,0,1-5.36-1.83,1.87,1.87,0,0,1,.11-.51,1,1,0,0,1,0-.12,71.45,71.45,0,0,1,3.66-11.6c.59-1.41,1.27-2.88,2-4.33,2.84-5.46,6.82-10.81,12.27-13.46a16.76,16.76,0,0,1,6.46-1.69h.86l.3.64,4.79,9.84Z" transform="translate(0 0)"/><path class="cls-6" d="M763.09,369.16s20.31-2,22.13-.49,13.35,9,20.18,4.23,2.28-21.16,2.28-21.81-.64-23.92-.64-23.92l-12.21-16.44L779.52,282l-31.25-3.09.85,45.71L749,348Z" transform="translate(0 0)"/><path class="cls-7" d="M763.09,369.16s20.31-2,22.13-.49,13.35,9,20.18,4.23,2.28-21.16,2.28-21.81-.64-23.92-.64-23.92l-12.21-16.44L779.52,282l-31.25-3.09.85,45.71L749,348Z" transform="translate(0 0)"/><path class="cls-8" d="M584.05,208s-1.62,19.86-14,20.18c0,0-3.5-2.12-8.22-5.64-10.87-8.13-28.12-23.77-23.35-38.31,6.84-20.83,40,17.58,40,17.58l2.54,2.86Z" transform="translate(0 0)"/><path class="cls-7" d="M584.05,208s-1.62,19.86-14,20.18c0,0-3.5-2.12-8.22-5.64l-1.06-1.35a16.16,16.16,0,0,0,6.77,1.82c3.11.07,6.6-1.08,8.85-5.57a70.89,70.89,0,0,0,3.39-7.88,23.24,23.24,0,0,0,1.25-4.88Z" transform="translate(0 0)"/><path class="cls-9" d="M578.69,244l-2.78-3.58-9.4-12.06-4.77-6.16A16.08,16.08,0,0,0,568.5,224c3.11.07,6.6-1.08,8.85-5.58a70.61,70.61,0,0,0,3.39-7.88c1.55-4.39,1.52-6.65,1-7.41s3.45,3,5.37,4.77l.07.07.91.85.33.66,4.71,9.43.05.4C593.59,222.32,595.18,241.31,578.69,244Z" transform="translate(0 0)"/><path class="cls-6" d="M676.18,662.92s-13.67,9-20.5,7.62-13.84,2.29-13.84,2.29a41.19,41.19,0,0,1-17.26,11.23c-11.06,3.74-26.52,2.28-35.3-.66-4.16-1.38-4.49-3.17-2.5-5.37,2.23-2.46,7.33-5.43,13.24-8.95,11.22-6.67,23.27-19.86,23.27-19.86s.16-3.25,2.12-4.71a25.26,25.26,0,0,0,3.28-3.39c1.74-2.07,3.39-4.23,3.39-4.23l40.2,1.3s.69,2.9,1.22,5.87c.45,2.43.8,4.9.57,5.86A5.29,5.29,0,0,0,675.2,654l.72,6.64Z" transform="translate(0 0)"/><path class="cls-6" d="M760.33,674.15c-.48,1.95-1.07,5.44-1.33,7.08-.09.56-.14.9-.14.9s-3.26,7.16-21.32,9.77-18.06-6-18.06-6,.07-.93.19-2.33c.31-3.81,1-11.1,1.44-12.65.65-2.12-.48-11.39-.48-11.39l-.19-9.7L720.3,643l29.95-3.1a57.29,57.29,0,0,0,1,6.67,8.46,8.46,0,0,0,1.31,3.39c1.63,1.8,2.61,9.77,2.61,9.77S761,671.54,760.33,674.15Z" transform="translate(0 0)"/><path class="cls-7" d="M672.31,638.18s.69,2.9,1.22,5.87c-4.34.8-23.33,4.09-28.08,1.79-5.37-2.61-16.93-4.07-16.93-4.07l.19-.66c1.74-2.07,3.39-4.23,3.39-4.23Z" transform="translate(0 0)"/><path class="cls-7" d="M751.19,646.64c-7.62-1.29-24.22,1.83-30.78,3.17l-.14-6.77,29.95-3.1A57.29,57.29,0,0,0,751.19,646.64Z" transform="translate(0 0)"/><path class="cls-10" d="M768.13,399.92l-.65,22.95s.85,35-1.63,40.53-2.45,27.83-2.45,27.83,1.63,10.58-.16,12.85-.49,10.75.85,15.14.15,15.3.15,15.3L763.92,596s-1.79,15.95-4.07,18.23a5.33,5.33,0,0,0-1.3,5.21s-2,9.11-1.46,10.74,1.46,5.37-2.28,7.15-2.78,7.49-2.78,7.49c-8.95-2.12-34.33,3.59-34.33,3.59S712.63,638,710.54,631s3.1-11.39,6.51-11.85-2.44-6.52-2.44-6.52.65-.85-1-6.67.32-20.84.85-24.74,2.93-22.79,2.93-22.79-1.3-23.92-.32-24.9,4.23-10.42,2.61-13.54-4.23-23.44-4.23-24.55S713.35,468,713.35,468s-1.95-18.39-1.46-22.29-1.3-18.38-1.3-18.38c0-12.05-7-25.07-7-25.07l-.18.47-15.13,39.78s-2.44,12-4.56,18.88a123.69,123.69,0,0,0-3.17,14.13l-.14.85c-.06.36-.11.68-.14.91l-.1.66h0s1.13,8.62-.65,11.39-3.82,11.06-3.82,13.37.15,11.08.15,11.08.66,17.41-1.13,19.37-.85,3.58-.85,3.58,2.94,13.18,1.63,16.6-.32,11.38-.32,11.38-2.58,25.17-2.87,26.49-2.12,11.39-.17,12.21,5.7,5.7,5.7,5.7.85,21.32-2.11,22.95-1.31,9.93-1.31,9.93-23.59,4.56-29,2-16.93-4.07-16.93-4.07l1.62-5.35c-.09.19-1.17,1.92-1.94-4.74-.85-7,6-3.58,6-3.58s5.37,1.3-3.27-7.16-4.39-17.09-3.9-17.09,1.63-12.53,1.63-12.53,1.46-7.49.32-13.35-2.11-24.09-2.11-24.09.85-13.83-.65-18.88,1-14.16,1.46-16.29-1.46-21.48-1.46-21.48,1.63-9.11.65-15.78,1-31.25,1-31.25l2.93-28.32s2.11-8.79,1.79-12.37S635,391.49,635,391.49s-.32-4.56,1.3-7.81,2.29-14,2.29-14l15.62-35.81,7.62-31.57,103.35-1s.38,2.73,1,7.71,1.52,12.35,2.54,21.44c.9,8.26,1.88,18,2.84,28.78C774.64,393.73,768.13,399.92,768.13,399.92Z" transform="translate(0 0)"/><path class="cls-8" d="M758.53,114.94l-24.1,25.72s-30.91-12.37-27.66-16.61c1.26-1.64,1.06-6.77.33-12.51-1.14-9-3.58-19.39-3.58-19.39s54-8.79,49.46.32c-1.69,3.33-1.37,7.22-.34,10.81A40.63,40.63,0,0,0,758.53,114.94Z" transform="translate(0 0)"/><path class="cls-7" d="M753,92.47c-1.69,3.33-2.45,3.66-1.41,7.25-7.07,7.62-16.08,15.87-27.22,15.87a38.54,38.54,0,0,1-17.25-4c-1.14-9-3.58-19.39-3.58-19.39S757.55,83.37,753,92.47Z" transform="translate(0 0)"/><path class="cls-8" d="M763.09,75.87A38.74,38.74,0,1,1,685.61,77q0-.57,0-1.14v-.56a38.73,38.73,0,1,1,77.46.56h0Z" transform="translate(0 0)"/><path class="cls-7" d="M768.7,331.42c-5.13,0-22.22.19-41.31.49h-.23l-6.31.1h-.19c-22.64.36-45-4.06-53.91-3.22-19,1.79,6.83-17.58,6.83-17.58a159.15,159.15,0,0,0,43.38,4.38l5.48-.28c17.31-1,34.7-2.61,43.78-5.33C766.83,315,767.72,322.36,768.7,331.42Z" transform="translate(0 0)"/><path class="cls-11" d="M768.7,330.44c-5.13,0-22.22.19-41.31.48h-.23l-6.31.11h-.19c-22.64.36-45-4.06-53.91-3.22-19,1.79,6.83-17.57,6.83-17.57a159.54,159.54,0,0,0,43.38,4.38l5.48-.29c17.31-1,34.7-2.61,43.78-5.33C766.83,314,767.72,321.35,768.7,330.44Z" transform="translate(0 0)"/><path class="cls-7" d="M713.93,125.68l-29.95,14-23.11,178.7s13.67-6.18,21.48-2.28,31.89.33,31.89.33,17.58-1,20.19,1,33.2-8.13,33.2-8.13,5.54-12.37,1.3-14.32,1.3-21.16,1.3-21.16l-2.61-128.9-5.21-16.6-14-8.46L734.1,131.21l-6.77,1Z" transform="translate(0 0)"/><path class="cls-9" d="M713.93,123.72l-29.95,14L660.88,316.43s13.67-6.19,21.48-2.28,31.89.32,31.89.32,17.58-1,20.19,1,33.2-8.13,33.2-8.13,5.54-12.37,1.3-14.32,1.3-21.16,1.3-21.16l-2.61-128.92-5.21-16.6-14-8.46-14.34,11.4-6.77,1Z" transform="translate(0 0)"/><path class="cls-7" d="M713.44,132s8.62,10.25,8.46,12.37-.48,7.16-.48,7.16l-6.52,13.19s-3.58,16.44-3.58,19.86-5.7,33-5.7,33l-6.83,45.57-8.62,59.73L699,338l10.42-8.79,13.83-106.45,2.93-21s3.09-37.76,3.09-41.66S727.44,146,727.44,146s2.12-9.77,10.9-12-.65-.49-.65-.49l-5.08-4.07-4.39,1.79S716,127.47,713.44,132Z" transform="translate(0 0)"/><path class="cls-10" d="M712.47,131.07s8.62,10.25,8.46,12.37-.49,7.16-.49,7.16l-6.51,13.19s-3.54,16.42-3.54,19.83-5.7,33-5.7,33l-6.88,45.64L689.24,322,698,337.1l10.37-8.81,13.85-106.42,2.93-21s3.09-37.76,3.09-41.67S726.48,145,726.48,145s2.12-9.76,10.9-12-.65-.48-.65-.48l-5.08-4.07-4.33,1.78S715.08,126.49,712.47,131.07Z" transform="translate(0 0)"/><path class="cls-7" d="M706.77,114s-1.3,1-1.63,7.48-4.88,21.16-4.88,21.16,16.93-11.72,25.39-10.42Z" transform="translate(0 0)"/><path class="cls-9" d="M706.77,112s-1.3,1-1.63,7.49-4.88,21.16-4.88,21.16,16.93-11.71,25.39-10.41Z" transform="translate(0 0)"/><path class="cls-7" d="M753,108.75l-26.7,23.44s22.46,13.35,25.39,16.61,5.86-31.9,5.86-31.9Z" transform="translate(0 0)"/><path class="cls-9" d="M754,106.8l-26.65,23.42s22.46,13.34,25.39,16.6,5.87-31.9,5.87-31.9Z" transform="translate(0 0)"/><path class="cls-7" d="M707.75,114s-2.93-1.46-5.7,2.77-8,6.18-8,6.18-29.62,4.72-30.76,8.62l-13.83.85s-4.88.64-5.37,10.9S641,154.49,641,154.49s-5.7,10.09-5.21,15.29-4.39,7.81-4.39,7.81l20.31,52.89s.65,21.81-3.1,29.79-10.74,43.29-10.74,43.29,2.94-.65,2.77,1.3S637,328.14,637,328.14s-1,8.46-2.6,11.39-1.79,18.23-1.79,18.23L630,368.83s6.19,13.84,15.62,11.85,26.64-38.85,26.64-38.85L683.21,302l8.46-39.38,2.44-26.69L698,176.8l5.7-39.06S710,116.73,707.75,114Z" transform="translate(0 0)"/><path class="cls-6" d="M706.77,112s-2.93-1.46-5.7,2.77-8,6.19-8,6.19-29.62,4.71-30.76,8.62l-13.84.85s-4.88.65-5.37,10.9-3.1,11.23-3.1,11.23-5.7,10.09-5.21,15.29-4.39,7.81-4.39,7.81l20.31,52.89s.65,21.81-3.09,29.79-10.74,43.29-10.74,43.29,2.93-.65,2.77,1.3-3.58,23.27-3.58,23.27-1,8.46-2.61,11.39-1.79,18.23-1.79,18.23l-2.58,11s6.19,13.84,15.62,11.85,26.53-38.89,26.53-38.89L682.2,300l8.46-39.39,2.45-26.69L697,174.8l5.7-39.06S709,114.78,706.77,112Z" transform="translate(0 0)"/><path class="cls-7" d="M602.28,238l-9.44,6.52s-14.39.46-24.75-2.08l-5.25-2.34-1.06-.46,1.08.34c5.44,1.62,9.7,1.58,13,.47,13.36-4.49,11.85-26.55,11.37-31.55-.05-.5-.08-.85-.11-.95a.27.27,0,0,1,0-.06l.08.13a6,6,0,0,0,.62.85c.19.21.38.43.59.63h0l4.71,9.43.05.4Z" transform="translate(0 0)"/><path class="cls-6" d="M635,174.34l-4.55,1.3-.65,9.31s-5.37-.85-6.84,5.54-4.06,9.31-4.06,9.31-9,7.49-9.45,13.83L603.92,217s-12.87-3-15.79-8.17c0,0,5.86,42-25.39,31.73,0,0,35,15.3,36.62,17.42s12.37,8.29,22.13,3.09,11.88-13.21,11.88-13.21,9.44-13.19,9.77-15.14,7.62-4.23,7.62-4.23l14-33.86Z" transform="translate(0 0)"/><path class="cls-7" d="M749.25,128.28,754,106.8s2.12,7,4.23,8.62l7,5.37s7,3.26,9.44,3.26,15.62,3.39,17.25,5.21,8.14.49,8.14.49,5.37,1.79,10.09,2.93,7,9,6,12a9.39,9.39,0,0,0,2.29,8.79c1.95,2,2.93,8.3,2.93,8.3a9.52,9.52,0,0,1,5.53,4.71c1.63,3.58,1.14,11.39,1.14,11.39L803.77,212.1s.32,13.19-.65,16.08,3.39,52.73,3.39,52.73l5.08,85.61s-6.67,5.7-8.13,6.35-2.94-30.28-2.94-31.41-37.59-56.31-37.59-56.31-5.08-8.14-5.08-9.93S753.12,257,753.12,257L746,225.25Z" transform="translate(0 0)"/><path class="cls-6" d="M830,176.06c0,1.12-.06,1.86-.06,1.86l-24.23,34.15h0s.34,13.18-.64,16.08c-.57,1.69.68,19.21,1.83,33.59.85,10.39,1.59,19.14,1.59,19.14l2.14,36.31,2.89,49.3s-6.67,5.7-8.13,6.35-2.93-30.28-2.93-31.42-37.6-56.3-37.6-56.3-5.08-8.14-5.08-9.93S755.1,257,755.1,257l-7.16-31.74,3.25-97L754,106.74s4.07,7,6.19,8.62,7,5.37,7,5.37,7,3.26,9.45,3.26,15.62,3.39,17.25,5.21,8.14.49,8.14.49,5.37,1.79,10.08,2.93,7,9,6,12a9.39,9.39,0,0,0,2.28,8.79c2,2,2.93,8.29,2.93,8.29a9.56,9.56,0,0,1,5.54,4.73C830,169,830.08,173.52,830,176.06Z" transform="translate(0 0)"/><path class="cls-7" d="M631.1,609.7c.85,0,35,1.3,34.34,6.84S631.1,609.7,631.1,609.7Z" transform="translate(0 0)"/><path class="cls-7" d="M638.75,619s22.95,3.74,16.93,7.16S638.75,619,638.75,619Z" transform="translate(0 0)"/><path class="cls-7" d="M724,606.12s38.09,3.26,32.39,7.48-19.21,4.88-19.86,5.08S724,606.12,724,606.12Z" transform="translate(0 0)"/><path class="cls-7" d="M719.47,622.89s21.16,3.58,21.8,7.62S719.47,622.89,719.47,622.89Z" transform="translate(0 0)"/><path class="cls-7" d="M731.18,524.91s19.37,4.55,20.51,7.62Z" transform="translate(0 0)"/><path class="cls-7" d="M656.48,538.91s-10.09,2.93-.32,8.79S656.48,538.91,656.48,538.91Z" transform="translate(0 0)"/><path class="cls-7" d="M701.24,382.5c1.14,0,18.88-5.86,25.06-3.25s13.84,2.6,13.84,2.6Z" transform="translate(0 0)"/><path class="cls-7" d="M703.52,401.08l-.18,1.61-15.13,39.78s-2.44,12-4.56,18.88a123.69,123.69,0,0,0-3.17,14.13l13.43-83.3Z" transform="translate(0 0)"/><path class="cls-10" d="M727.15,330.92l-6.31.11h-.19l-3.7-16.4c1.82-.09,3.64-.19,5.48-.3Z" transform="translate(0 0)"/><path class="cls-8" d="M803.93,311.06l-4.05,3.33-13.54,11.14s-36.62,19.54-46.71,1c-8.9-16.34,32.63-28,42.63-30.56,1.36-.35,2.13-.52,2.13-.52Z" transform="translate(0 0)"/><path class="cls-7" d="M647.53,151.07s7.16,3.25,8.79,7.81S647.53,151.07,647.53,151.07Z" transform="translate(0 0)"/><path class="cls-7" d="M625.4,199.89s-10.42,12.7-6.19,17.58S625.4,199.89,625.4,199.89Z" transform="translate(0 0)"/><path class="cls-7" d="M811.58,158.23s-9.77,1-10.09,9.44Z" transform="translate(0 0)"/><path class="cls-7" d="M721.09,291.69c1-1,23.44-34.18,28.64-31.25Z" transform="translate(0 0)"/><path class="cls-7" d="M763.09,75.87a38.6,38.6,0,0,1-4.58,18.28l-.29-.05c-2.45-.52-3.73-3.39-5.61-5.16a7.62,7.62,0,0,0-8.79-1.24,8.94,8.94,0,0,0-4.32,8.35c-1.24-5.21-.85-10.76-2.06-16s-4.86-10.5-9.84-10.6c-2.15,0-4.66.8-6.21-.85-.94-1-1.13-2.54-1.84-3.68-3.56-5.77-14.39-2.85-18.84.1-4.28,2.84-9.58,7.69-15.09,10.22a38.73,38.73,0,1,1,77.46.56h0Z" transform="translate(0 0)"/><path class="cls-12" d="M719.55,64c.71,1.18.9,2.72,1.84,3.68,1.55,1.61,4.06.79,6.21.85,5,.08,8.63,5.37,9.84,10.6s.85,10.76,2.06,16a8.92,8.92,0,0,1,4.33-8.35A7.62,7.62,0,0,1,752.61,88c1.88,1.79,3.16,4.65,5.61,5.16s4.82-1.84,5.7-4.43.85-5.43,1.41-8.11c1.11-5.08,4.42-9.23,6.26-14.06a25.49,25.49,0,0,0-.17-18.18c-1.22-3.06-3-5.81-4.23-8.86-1.88-4.64-2.37-9.87-4.65-14.29-3.83-7.4-12.86-11.1-20.27-8.32-3.54,1.33-6.61,3.9-10.2,5.08-4.82,1.54-10,.38-14.94-.31s-10.48-.76-14.48,2.54c-4.6,3.77-5.87,10.85-10.16,15-1.82,1.74-4.08,2.84-6,4.45s-3.57,4-3.39,6.61c.29,3.39,3.59,6.43,2.37,9.56a7.74,7.74,0,0,1-1.8,2.38,33.91,33.91,0,0,0-7.88,13.41c8.71,2.72,18.14-6.88,25-11.42C705.15,61.16,716,58.28,719.55,64Z" transform="translate(0 0)"/><path class="cls-7" d="M803.93,311.06l-4.05,3.33c-3.57-5.92-18.24-17.83-18.24-17.83l.63-.61c1.36-.35,2.13-.52,2.13-.52Z" transform="translate(0 0)"/><path class="cls-9" d="M807.84,305s-1.46,3.62-3,6.77-3.14,6-3.22,3.66c-.16-4.56-19-19.87-19-19.87l2.54-2.49,3-2.88Z" transform="translate(0 0)"/><path class="cls-7" d="M808.5,280.94l2.14,36.31c-5.08-7.86-18.93-28-27.86-27.36L804.42,265a29.12,29.12,0,0,0,2.48-3.19C807.73,272.19,808.5,280.94,808.5,280.94Z" transform="translate(0 0)"/><path class="cls-7" d="M807.84,305s-1.46,3.62-3,6.77c-5.67-7.78-13.47-17-19.7-18.69l3-2.88Z" transform="translate(0 0)"/><path class="cls-6" d="M824.12,173.39l5.86,4.55s9.76.17,10.74,8.3,9.93,11.85,9.93,11.85,6.67,6.67,6.67,9.76,5.08,8.63,5.08,9.12,4.88,10.42,4.23,12.21,5.21,9.61,3.39,12.54a71.75,71.75,0,0,0-3.91,8.13s-7.62,14.65-11.55,17.42-21.8,26-21.8,26-19.21,22.13-19.21,29c0,0-18.72-31.25-29.79-30.47l21.64-24.9s3.75-4.06,3.91-6.51,10.41-13.67,15.29-14.16c0,0,.85-6.67-1.3-6.83s-3.9-5.37-3.9-5.37-14.32-16.93-14.48-27.67S824.12,173.39,824.12,173.39Z" transform="translate(0 0)"/><path class="cls-7" d="M832.75,188.83S819.07,198.92,822,202.17,832.75,188.83,832.75,188.83Z" transform="translate(0 0)"/><path class="cls-7" d="M833.4,230.49s25.39-8.13,28,0Z" transform="translate(0 0)"/><path class="cls-7" d="M676.18,662.92s-13.67,9-20.5,7.62-13.84,2.29-13.84,2.29a41.19,41.19,0,0,1-17.26,11.23c-11.06,3.74-26.52,2.28-35.3-.66-4.16-1.38-4.49-3.17-2.5-5.37,9.56,1.9,30.91,5.69,36.67,2.94,7.48-3.58,18.22-11.39,18.22-11.39s14-2,16-2c1.39,0,12.2-4.46,18.3-7Z" transform="translate(0 0)"/><path class="cls-7" d="M759,681.24c-.09.56-.14.9-.14.9s-3.26,7.16-21.32,9.77-18.06-6-18.06-6,.07-.93.19-2.33C725.37,685.71,737.85,688.14,759,681.24Z" transform="translate(0 0)"/><path class="cls-7" d="M654.29,186.87s0,37.11-3.17,40.77S654.29,186.87,654.29,186.87Z" transform="translate(0 0)"/><path class="cls-7" d="M801,198.83l4.71,13.26S807.6,199.08,801,198.83Z" transform="translate(0 0)"/><g class="cls-13"><path d="M685.93,56.58c1.19-3.06-1.93-6-2.34-9.31a6.13,6.13,0,0,0-.52,2.95c.21,2.46,2,4.77,2.54,7.05A3.85,3.85,0,0,0,685.93,56.58Z" transform="translate(0 0)"/><path d="M739.94,91.63c-1.17-5.14-.85-10.57-2-15.7s-4.85-10.51-9.84-10.6c-2.15,0-4.66.79-6.22-.85-.93-1-1.13-2.54-1.83-3.68-3.56-5.77-14.39-2.84-18.85.11-6.66,4.43-15.8,13.68-24.33,11.58-.41,1-.8,2-1.11,3,8.71,2.72,18.14-6.88,25-11.42,4.44-3,15.29-5.92,18.85-.11.71,1.18.9,2.72,1.84,3.68,1.55,1.61,4.06.79,6.21.85,5,.08,8.63,5.37,9.84,10.6s.85,10.76,2.06,16A8.79,8.79,0,0,1,739.94,91.63Z" transform="translate(0 0)"/><path d="M764.41,85.52c-.85,2.59-3.21,5-5.71,4.43s-3.73-3.39-5.6-5.16a7.62,7.62,0,0,0-8.79-1.23A8.87,8.87,0,0,0,740,91.45a8.46,8.46,0,0,1,3.83-4.71A7.62,7.62,0,0,1,752.61,88c1.88,1.79,3.16,4.65,5.61,5.16s4.82-1.84,5.7-4.43a22.14,22.14,0,0,0,.9-4.67A13,13,0,0,1,764.41,85.52Z" transform="translate(0 0)"/><path d="M772.07,63.36c-1.83,4.82-5.15,9-6.25,14.07-.22,1-.35,2.07-.47,3.12,1.12-5.08,4.41-9.21,6.24-14a25.14,25.14,0,0,0,1.51-6.77A24.73,24.73,0,0,1,772.07,63.36Z" transform="translate(0 0)"/></g><rect class="cls-14" x="551.45" y="184.4" width="0.74" height="6.11" rx="0.32" ry="0.32" transform="translate(-25.34 268.23) rotate(-26.73)"/><rect class="cls-14" x="526.38" y="191.41" width="0.41" height="2.01" rx="0.18" ry="0.18" transform="translate(-30.26 257.51) rotate(-26.74)"/><rect class="cls-14" x="528.36" y="194.71" width="0.47" height="3.5" rx="0.2" ry="0.2" transform="translate(-31.88 258.75) rotate(-26.73)"/><rect class="cls-14" x="530.5" y="198.93" width="0.45" height="3.53" rx="0.19" ry="0.19" transform="translate(-33.56 260.16) rotate(-26.73)"/><rect class="cls-14" x="533.18" y="177.39" width="24.8" height="50.41" rx="1.9" ry="1.9" transform="translate(-32.82 267.05) rotate(-26.73)"/><path class="cls-3" d="M541,178.09a.85.85,0,0,0-.43,1.12l0,.08.08.16a.85.85,0,0,1-.32,1.15l-.08,0L531,185.37a.85.85,0,0,1-1.16-.31l0-.08-.08-.17a.85.85,0,0,0-1.12-.43l-.08,0-1.83.91a1.69,1.69,0,0,0-.76,2.27v0l20,39.64a1.69,1.69,0,0,0,2.27.76h0l16.38-8.25a1.69,1.69,0,0,0,.76-2.27h0l-19.94-39.65a1.69,1.69,0,0,0-2.27-.75h0Z" transform="translate(0 0)"/><rect class="cls-15" x="532.77" y="181.69" width="3.46" height="0.7" rx="0.3" ry="0.3" transform="translate(-24.76 259.86) rotate(-26.73)"/><circle class="cls-15" cx="536.86" cy="180.8" r="0.4"/><path class="cls-1" d="M124.34,34.32s82.22-5,72.53,52.66c0,0,1.92,10.16-7.3,14.8,0,0-.14-4.23-8.46-2.82a38.28,38.28,0,0,1-8.94.42,18.52,18.52,0,0,1-10.92-4.5h0s-23.07-9.52-32.07-47.32c0,0-6.64-8.24-6.38-10.36l13.87,5.92s-4.74,10-1,18.33c0,0,.45-18,3.11-17.55.54.09,7.21,3.47,7.21,3.47s-8.16,17.44-2,30.11c0,0-2.34-21.48,4.55-28.85l9.77,5.7s-9.54,18-3.07,32.71c0,0-1.69-22.54,5.08-31.32l8.85,6.9s-9,17.77-3.5,29.94c0,0,.71-26.24,5.41-28.22,0,0,7.74,6.83,8.93,9.63,0,0-6.14,12.88-2.33,19.69,0,0,2.33-17.48,4.23-17.56,0,0,7.72,11.59,8.52,19.52,0,0-.34-11.81-6.65-20.63,0,0,7.46,1.28,11.85,6.12,0,0-1.2-8.19-13.72-8.9,0,0-6.37-8.79-8.08-9.31,0,0,12.45-1,20,2.3,0,0-6.64-7.73-22.28-4.23l-8.74-7.13s16.39-2.25,23.34.23c0,0-8-6.83-25.7-1.85l-9.53-5.68s14-3,22.3-1.92c0,0-8.79-4.74-25.09.4L141.36,42s10.24-2,13.24-2.33,3.16-1.15,3.16-1.15a35.55,35.55,0,0,0-19.23,2.14S124.09,35.23,124.34,34.32Z" transform="translate(0 0)"/><path class="cls-1" d="M170.38,188.46s37.15-2.24,32.77,23.79c0,0,.85,4.6-3.3,6.69,0,0-.07-1.93-3.81-1.28a16.78,16.78,0,0,1-4,.19,8.39,8.39,0,0,1-4.93-2h0s-10.44-4.32-14.51-21.39c0,0-3-3.72-2.89-4.67l6.27,2.67s-2.14,4.52-.46,8.28c0,0,.2-8.12,1.41-7.92.25,0,3.26,1.57,3.26,1.57s-3.68,7.88-.91,13.6c0,0-1-9.7,2.06-13l4.42,2.58s-4.34,8.13-1.41,14.82c0,0-.75-10.16,2.31-14.15l4,3.11s-4,8-1.58,13.54c0,0,.32-11.85,2.45-12.76,0,0,3.5,3.08,4,4.35,0,0-2.78,5.82-1.06,8.9,0,0,1.06-7.9,1.92-7.93,0,0,3.49,5.23,3.85,8.82a19,19,0,0,0-3-9.31,10.51,10.51,0,0,1,5.33,2.77s-.54-3.7-6.2-4c0,0-2.88-4-3.65-4.23,0,0,5.62-.47,9,1,0,0-3-3.49-10.06-1.9l-4-3.22s7.41-1,10.55.11c0,0-3.61-3.09-11.6-.85l-4.3-2.54s6.31-1.35,10.07-.85c0,0-4-2.14-11.33.18L178.05,192s4.62-.91,6-1.06,1.42-.52,1.42-.52a16,16,0,0,0-8.68,1S170.25,188.86,170.38,188.46Z" transform="translate(0 0)"/><path class="cls-1" d="M42.93,49.31S80.08,47.07,75.7,73.1c0,0,.85,4.6-3.3,6.7,0,0-.07-1.93-3.81-1.28a17.22,17.22,0,0,1-4,.19,8.4,8.4,0,0,1-4.93-2h0S49.18,72.36,45.11,55.29c0,0-3-3.72-2.89-4.68l6.27,2.67s-2.14,4.53-.46,8.29c0,0,.2-8.12,1.41-7.92.25,0,3.26,1.57,3.26,1.57S49,63.09,51.8,68.82c0,0-1-9.71,2.06-13l4.42,2.54S54,66.46,56.89,73.1c0,0-.75-10.16,2.31-14.14l4,3.11s-4,8-1.58,13.54c0,0,.32-11.85,2.45-12.75,0,0,3.5,3.08,4,4.35,0,0-2.78,5.82-1.06,8.9,0,0,1.06-7.9,1.92-7.94,0,0,3.49,5.24,3.85,8.82a19,19,0,0,0-3-9.31,10.44,10.44,0,0,1,5.33,2.77s-.54-3.71-6.2-4c0,0-2.88-4-3.65-4.23,0,0,5.62-.47,9,1,0,0-3-3.5-10.06-1.9l-3.92-3.19s7.41-1,10.55.11c0,0-3.61-3.09-11.6-.85L55,54.86S61.31,53.5,65.06,54c0,0-4-2.14-11.33.18l-3.07-1.38s4.63-.91,6-1,1.42-.52,1.42-.52a16,16,0,0,0-8.72.91S42.82,49.72,42.93,49.31Z" transform="translate(0 0)"/><ellipse class="cls-3" cx="882.24" cy="635.68" rx="39.27" ry="6.64"/><path class="cls-3" d="M898.47,624.83a11.3,11.3,0,0,0,3.75-5.65c.49-2.27-.47-4.93-2.62-5.76-2.4-.91-5,.75-6.92,2.43s-4.18,3.61-6.73,3.25a10.23,10.23,0,0,0,3.17-9.58,3.94,3.94,0,0,0-.85-1.95c-1.33-1.43-3.75-.85-5.35.3-5.08,3.57-6.49,10.47-6.52,16.68-.52-2.24-.08-4.58-.09-6.87s-.64-4.84-2.54-6.08a7.83,7.83,0,0,0-3.94-.92c-2.29-.08-4.82.14-6.38,1.81-1.94,2.07-1.44,5.55.25,7.84s4.23,3.72,6.6,5.29a14.65,14.65,0,0,1,4.72,4.5,4.43,4.43,0,0,1,.35.85H889.7A40.19,40.19,0,0,0,898.47,624.83Z" transform="translate(0 0)"/><ellipse class="cls-3" cx="91.31" cy="686.01" rx="30.82" ry="5.21"/><path class="cls-3" d="M104,677.49a9,9,0,0,0,2.95-4.44c.37-1.76-.37-3.88-2.06-4.52-1.89-.72-3.9.58-5.43,1.9s-3.28,2.83-5.28,2.54a8,8,0,0,0,2.49-7.52,3.14,3.14,0,0,0-.69-1.53c-1-1.12-2.95-.63-4.23.25-4,2.8-5.08,8.22-5.12,13.09-.4-1.76-.06-3.59-.08-5.39s-.5-3.81-2-4.77a6.12,6.12,0,0,0-3.09-.73c-1.79-.07-3.78.12-5,1.42-1.52,1.63-1.13,4.37.19,6.15s3.33,2.92,5.19,4.16a11.49,11.49,0,0,1,3.71,3.54,4.23,4.23,0,0,1,.28.63H97.07A31.2,31.2,0,0,0,104,677.49Z" transform="translate(0 0)"/><ellipse class="cls-3" cx="169" cy="646.88" rx="30.82" ry="5.21"/><path class="cls-3" d="M181.75,638.36a9,9,0,0,0,2.94-4.44,3.94,3.94,0,0,0-2.06-4.51c-1.88-.73-3.89.58-5.43,1.9s-3.28,2.83-5.27,2.54a8,8,0,0,0,2.48-7.52,3.11,3.11,0,0,0-.69-1.52c-1-1.13-2.94-.64-4.19.24-4,2.81-5.08,8.22-5.12,13.09-.41-1.76-.07-3.59-.08-5.39s-.51-3.8-2-4.77a6.05,6.05,0,0,0-3.09-.72c-1.79-.07-3.79.11-5,1.42-1.52,1.63-1.13,4.36.19,6.15s3.33,2.91,5.19,4.16a11.55,11.55,0,0,1,3.71,3.53,3.34,3.34,0,0,1,.27.63H174.8A31.2,31.2,0,0,0,181.75,638.36Z" transform="translate(0 0)"/><path class="cls-16" d="M518.94,204v93.55a9.37,9.37,0,0,1-9.35,9.39H499.47V194.65h10.08a9.37,9.37,0,0,1,9.39,9.35Z" transform="translate(0 0)"/><path class="cls-17" d="M511.39,194.83v112a9.45,9.45,0,0,1-1.84.18H508V194.65h1.54A9.45,9.45,0,0,1,511.39,194.83Z" transform="translate(0 0)"/><rect class="cls-18" x="438.09" y="340.35" width="36.35" height="291.42"/><rect class="cls-16" x="425.27" y="662.88" width="57.8" height="8.12"/><rect class="cls-7" x="425.27" y="662.88" width="57.8" height="4.55"/><rect class="cls-7" x="438.09" y="626" width="36.35" height="5.76"/><path class="cls-18" d="M412.56,627.2h83.22a34.45,34.45,0,0,1,34.45,34.45h0v5.3H378.11v-5.3a34.45,34.45,0,0,1,34.45-34.45Z" transform="translate(0 0)"/><rect class="cls-7" x="438.09" y="380.47" width="36.35" height="34.96"/><rect class="cls-7" x="438.09" y="378.09" width="36.35" height="34.96"/><rect class="cls-18" x="434.72" y="379.27" width="43.5" height="34.96"/><path class="cls-16" d="M494,318.39V332.9a13.61,13.61,0,0,1-13.61,13.61H432.15a13.61,13.61,0,0,1-13.61-13.61h0V318.39a13.6,13.6,0,0,1,13.61-13.59H480.4A13.6,13.6,0,0,1,494,318.39Z" transform="translate(0 0)"/><path class="cls-7" d="M494,318.39v1.48a47.48,47.48,0,0,1-75.49,0v-1.48a13.6,13.6,0,0,1,13.61-13.59h48.25A13.6,13.6,0,0,1,494,318.36Z" transform="translate(0 0)"/><path class="cls-16" d="M412.63,183.22H499.9a3.83,3.83,0,0,1,3.83,3.83h0V296.24a41.14,41.14,0,0,1-41.14,41.14H449.94a41.14,41.14,0,0,1-41.14-41.14V187.05a3.83,3.83,0,0,1,3.83-3.83Z" transform="translate(0 0)"/><path class="cls-16" d="M428.76,126.82h55a14.61,14.61,0,0,1,14.61,14.61h0v41.86a5.26,5.26,0,0,1-5.26,5.26H419.42a5.26,5.26,0,0,1-5.26-5.26h0V141.42a14.61,14.61,0,0,1,14.61-14.61h0Z" transform="translate(0 0)"/><rect class="cls-17" x="424.09" y="170.12" width="65.94" height="4.37"/><rect class="cls-7" x="418.53" y="197.23" width="75.47" height="54.77"/><rect class="cls-3" x="418.53" y="196.04" width="75.47" height="54.77"/><g class="cls-13"><rect x="418.95" y="260.2" width="16.98" height="6.06" rx="0.67" ry="0.67"/><rect x="438.16" y="260.2" width="16.98" height="6.06" rx="0.67" ry="0.67"/><rect x="457.38" y="260.2" width="16.98" height="6.06" rx="0.67" ry="0.67"/><rect x="476.6" y="260.2" width="16.98" height="6.06" rx="0.67" ry="0.67"/><rect x="418.95" y="272.07" width="16.98" height="6.06" rx="0.67" ry="0.67"/><rect x="438.16" y="272.07" width="16.98" height="6.06" rx="0.67" ry="0.67"/><rect x="457.38" y="272.07" width="16.98" height="6.06" rx="0.67" ry="0.67"/><rect x="418.95" y="283.64" width="16.98" height="6.06" rx="0.67" ry="0.67"/><rect x="438.16" y="283.64" width="16.98" height="6.06" rx="0.67" ry="0.67"/><rect x="457.38" y="283.64" width="16.98" height="6.06" rx="0.67" ry="0.67"/><rect x="418.95" y="296.4" width="16.98" height="6.06" rx="0.67" ry="0.67"/><rect x="438.16" y="296.4" width="16.98" height="6.06" rx="0.67" ry="0.67"/><rect x="457.38" y="296.4" width="16.98" height="6.06" rx="0.67" ry="0.67"/><rect x="476.6" y="272.07" width="16.98" height="6.06" rx="0.67" ry="0.67"/><rect x="477.64" y="282.98" width="15.05" height="21.6" rx="1.67" ry="1.67"/></g><rect class="cls-19" x="418.95" y="259.01" width="16.98" height="6.06" rx="0.67" ry="0.67"/><rect class="cls-19" x="438.16" y="259.01" width="16.98" height="6.06" rx="0.67" ry="0.67"/><rect class="cls-19" x="457.38" y="259.01" width="16.98" height="6.06" rx="0.67" ry="0.67"/><rect class="cls-20" x="476.6" y="259.01" width="16.98" height="6.06" rx="0.67" ry="0.67"/><rect class="cls-19" x="418.95" y="270.87" width="16.98" height="6.06" rx="0.67" ry="0.67"/><rect class="cls-19" x="438.16" y="270.87" width="16.98" height="6.06" rx="0.67" ry="0.67"/><rect class="cls-19" x="457.38" y="270.87" width="16.98" height="6.06" rx="0.67" ry="0.67"/><rect class="cls-19" x="418.95" y="282.44" width="16.98" height="6.06" rx="0.67" ry="0.67"/><rect class="cls-19" x="438.16" y="282.44" width="16.98" height="6.06" rx="0.67" ry="0.67"/><rect class="cls-19" x="457.38" y="282.44" width="16.98" height="6.06" rx="0.67" ry="0.67"/><rect class="cls-19" x="418.95" y="295.21" width="16.98" height="6.06" rx="0.67" ry="0.67"/><rect class="cls-19" x="438.16" y="295.21" width="16.98" height="6.06" rx="0.67" ry="0.67"/><rect class="cls-19" x="457.38" y="295.21" width="16.98" height="6.06" rx="0.67" ry="0.67"/><rect class="cls-21" x="476.6" y="270.87" width="16.98" height="6.06" rx="0.67" ry="0.67"/><rect class="cls-22" x="477.64" y="281.8" width="15.05" height="21.6" rx="1.67" ry="1.67"/><path class="cls-23" d="M348.32,272.42" transform="translate(0 0)"/><rect class="cls-16" x="456.16" y="244.16" width="8.13" height="0.97"/><rect class="cls-16" x="467.55" y="244.16" width="8.13" height="0.97"/><rect class="cls-16" x="478.94" y="244.16" width="8.13" height="0.97"/><rect class="cls-23" width="992.13" height="708.66"/></svg>