<?xml version="1.0" encoding="utf-8"?>
<!-- Generator: Adobe Illustrator 21.1.0, SVG Export Plug-In . SVG Version: 6.00 Build 0)  -->
<svg version="1.1" id="_x38_3b95cf8-345b-454a-b8f1-f6ca7493daa9"
	 xmlns="http://www.w3.org/2000/svg" xmlns:xlink="http://www.w3.org/1999/xlink" x="0px" y="0px" viewBox="0 0 992.1 708.7"
	 style="enable-background:new 0 0 992.1 708.7;" xml:space="preserve">
<style type="text/css">
	.st0{opacity:0.1;fill:#2193B0;enable-background:new    ;}
	.st1{fill:none;stroke:#535461;stroke-width:2;stroke-miterlimit:10;}
	.st2{fill:#2193B0;}
	.st3{opacity:0.25;enable-background:new    ;}
	.st4{fill:#FFFFFF;}
	.st5{opacity:0.2;fill:#2193B0;enable-background:new    ;}
	.st6{opacity:0.5;fill:#2193B0;enable-background:new    ;}
	.st7{opacity:0.1;enable-background:new    ;}
	.st8{fill:#FFD037;}
	.st9{fill:#444053;}
	.st10{fill:#9D9CB5;}
	.st11{fill:url(#SVGID_1_);}
	.st12{opacity:2.000000e-02;enable-background:new    ;}
	.st13{fill:#EFB7B9;}
	.st14{fill:#FF6484;}
	.st15{fill:#925978;}
	.st16{opacity:0.1;}
	.st17{fill:url(#SVGID_2_);}
	.st18{fill:#FBBEBE;}
	.st19{fill:none;stroke:#2193B0;stroke-miterlimit:10;}
	.st20{fill:#65617D;}
	.st21{fill:none;}
</style>
<title>features overview</title>
<g>
	<path class="st0" d="M552.4,151.1c-57.2-0.3-112.1-15-164.6-31.2S283.4,85.8,227.3,77.8c-36.1-5.1-77.1-4.9-105.7,12.4
		c-27.5,16.7-35.8,44.5-40,70.3c-3.2,19.4-4.8,39.7,5.6,57.6c7.2,12.4,19.8,22.6,28.6,34.4c30.6,41.1,11,93.1-20.1,134.7
		C81.1,406.6,64.1,425.3,53,446c-11.1,20.6-15.9,44.1-5.3,64.7c10.6,20.4,34.9,35.2,61.1,45.5c53.3,20.8,115.6,25.6,176.3,27.7
		c134.4,4.7,269.2-2,403.7-8.7c49.8-2.5,99.7-5,148.6-12.8c27.1-4.3,55.1-10.9,74.5-25.5c24.7-18.6,30.1-49.1,12.8-71.3
		c-29.1-37.1-107.2-44.6-127.9-84.7c-11.4-22.1-0.9-47.2,14.4-68.3c32.7-45.2,88.4-85.6,90.2-136.4c1.2-34.9-26.9-69.2-69.4-84.6
		C787.4,75.3,726.3,79,694.4,108.4C661.6,138.7,602.9,151.4,552.4,151.1z"/>
	<g id="db976b58-83c4-4bad-bfc1-713fe8b9d2f6">
		<path class="st1" d="M519.8,297.8c0,0-25.1-44.5-62.9-57.3c-15.9-5.3-29.6-15.6-39.2-29.3c-4.5-6.6-8.4-13.5-11.6-20.8"/>
		<path class="st2" d="M382.4,182.1c4.3,4.2,24.4,8.5,24.4,8.5s-4.9-19.9-9.2-24.1c-4.3-4.2-11.2-4.1-15.4,0.2
			C377.9,171.1,378.1,178,382.4,182.1z"/>
		<path class="st2" d="M393.8,218.2c5.9,1.2,25.1-6.1,25.1-6.1s-15-14.1-20.9-15.2c-5.9-1.2-11.6,2.7-12.8,8.6
			C384,211.3,387.9,217.1,393.8,218.2z"/>
		<path class="st2" d="M435,257.2c5.7-2,18.6-17.9,18.6-17.9s-20-4.6-25.7-2.6c-5.7,1.9-8.8,8-6.9,13.7c1.9,5.7,8,8.8,13.7,6.9
			C434.9,257.3,434.9,257.2,435,257.2L435,257.2z"/>
		<path class="st2" d="M473,279.7c5.9-1,21.3-14.5,21.3-14.5s-18.9-7.9-24.9-6.9c-5.9,1-9.9,6.6-9,12.5S467,280.7,473,279.7
			L473,279.7L473,279.7z"/>
		<path class="st2" d="M435.5,196.5c0,6-10.9,23.4-10.9,23.4s-10.9-17.4-10.9-23.4c0-6,4.9-10.9,10.9-10.9S435.5,190.5,435.5,196.5
			L435.5,196.5z"/>
		<path class="st2" d="M479.5,223.4c-1.8,5.7-17.4,19.1-17.4,19.1s-5.2-19.9-3.4-25.6c1.8-5.7,7.9-8.9,13.6-7.1
			C478.2,211.6,481.4,217.7,479.5,223.4L479.5,223.4L479.5,223.4z"/>
		<path class="st2" d="M518.7,255.3c-0.8,6-13.9,21.8-13.9,21.8s-8.4-18.7-7.7-24.7c0.8-6,6.3-10.1,12.2-9.3
			C515.4,243.9,519.5,249.4,518.7,255.3z"/>
		<path class="st3" d="M382.4,182.1c4.3,4.2,24.4,8.5,24.4,8.5s-4.9-19.9-9.2-24.1c-4.3-4.2-11.2-4.1-15.4,0.2
			C377.9,171.1,378.1,178,382.4,182.1z"/>
		<path class="st3" d="M393.8,218.2c5.9,1.2,25.1-6.1,25.1-6.1s-15-14.1-20.9-15.2c-5.9-1.2-11.6,2.7-12.8,8.6
			C384,211.3,387.9,217.1,393.8,218.2z"/>
		<path class="st3" d="M435,257.2c5.7-2,18.6-17.9,18.6-17.9s-20-4.6-25.7-2.6c-5.7,1.9-8.8,8-6.9,13.7c1.9,5.7,8,8.8,13.7,6.9
			C434.9,257.3,434.9,257.2,435,257.2L435,257.2z"/>
		<path class="st3" d="M473,279.7c5.9-1,21.3-14.5,21.3-14.5s-18.9-7.9-24.9-6.9c-5.9,1-9.9,6.6-9,12.5S467,280.7,473,279.7
			L473,279.7L473,279.7z"/>
		<path class="st3" d="M435.5,196.5c0,6-10.9,23.4-10.9,23.4s-10.9-17.4-10.9-23.4c0-6,4.9-10.9,10.9-10.9S435.5,190.5,435.5,196.5
			L435.5,196.5z"/>
		<path class="st3" d="M479.5,223.4c-1.8,5.7-17.4,19.1-17.4,19.1s-5.2-19.9-3.4-25.6c1.8-5.7,7.9-8.9,13.6-7.1
			C478.2,211.6,481.4,217.7,479.5,223.4L479.5,223.4L479.5,223.4z"/>
		<path class="st3" d="M518.7,255.3c-0.8,6-13.9,21.8-13.9,21.8s-8.4-18.7-7.7-24.7c0.8-6,6.3-10.1,12.2-9.3
			C515.4,243.9,519.5,249.4,518.7,255.3z"/>
		<path class="st1" d="M518.4,296.9c0,0-4.9-50.8-34.3-77.9c-12.4-11.3-20.8-26.2-24-42.7c-1.4-7.8-2.2-15.8-2.1-23.7"/>
		<path class="st2" d="M439.6,135.5c2.2,5.6,18.8,17.7,18.8,17.7s3.6-20.2,1.3-25.8c-2.2-5.6-8.4-8.4-14-6.2
			c-5.6,2.2-8.4,8.4-6.2,14C439.5,135.2,439.5,135.4,439.6,135.5z"/>
		<path class="st2" d="M435.3,173c4.9,3.5,25.4,4.6,25.4,4.6s-8-18.9-12.9-22.4c-4.9-3.5-11.7-2.3-15.2,2.6S430.4,169.6,435.3,173
			L435.3,173z"/>
		<path class="st2" d="M457.3,225.5c6,0.5,24.2-8.9,24.2-8.9s-16.4-12.3-22.4-12.8c-6-0.5-11.2,3.9-11.7,9.9
			C446.9,219.7,451.3,225,457.3,225.5L457.3,225.5z"/>
		<path class="st2" d="M482.9,261.4c5.8,1.5,25.4-4.6,25.4-4.6s-14.1-14.9-19.9-16.4c-5.7-1.8-11.8,1.4-13.6,7.1
			c-1.8,5.7,1.4,11.8,7.1,13.6C482.1,261.1,482.5,261.2,482.9,261.4L482.9,261.4z"/>
		<path class="st2" d="M482.4,170.2c-2.4,5.5-19.4,17-19.4,17s-2.9-20.3-0.5-25.8c2.4-5.5,8.9-8,14.3-5.5
			C482.3,158.2,484.8,164.7,482.4,170.2z"/>
		<path class="st2" d="M511.7,212.6c-4,4.5-23.6,10.4-23.6,10.4s3.3-20.3,7.3-24.8c4-4.5,10.8-5,15.3-1
			C515.3,201.2,515.7,208,511.7,212.6L511.7,212.6L511.7,212.6z"/>
		<path class="st2" d="M534.6,257.7c-3.1,5.1-21.5,14.3-21.5,14.3s-0.2-20.5,3-25.7c3.3-5,10-6.4,15.1-3.2
			C535.9,246.3,537.5,252.7,534.6,257.7z"/>
	</g>
	<path class="st0" d="M755,620.2c2.7,5.5-16.4,11.4-40,13.1c-21.2,1.5-38.5-1-40.8-5.4c-2.2-4.5,11.3-9.9,32-12.3
		C729.4,612.8,752.3,614.8,755,620.2z"/>
	<polygon class="st4" points="199.8,330.3 490.8,227.2 490.8,583.3 199.8,577.2 	"/>
	<polygon class="st5" points="199.8,330.3 490.8,227.2 490.8,583.3 199.8,577.2 	"/>
	<polygon class="st4" points="0,389.1 166,330.3 166,577.2 0,577.2 	"/>
	<polygon class="st5" points="0,389.1 166,330.3 166,577.2 0,577.2 	"/>
	<polygon class="st4" points="490.8,227.2 781.9,330.3 781.9,577.2 490.8,583.3 	"/>
	<polygon class="st6" points="490.8,227.2 781.9,330.3 781.9,577.2 490.8,583.3 	"/>
	<polygon class="st4" points="984.7,389.8 816.6,330.3 816.6,577.2 984.7,577.2 	"/>
	<polygon class="st6" points="984.7,389.8 816.6,330.3 816.6,577.2 984.7,577.2 	"/>
	<path class="st4" d="M96.7,432c-1.2,0-2.1,1.6-2.1,3.6v44.7c0.1,4.4-1,8.8-3,12.7c-1.9,3.4-4.8,5.5-7.6,5.5h-1.8
		c-2.7,0-5.4-2-7.5-5.7c-2.2-3.9-3.3-8.3-3.3-12.8v-57.7c-0.1-3.2,0.8-6.3,2.4-9.1c1.5-2.4,3.5-3.7,5.6-3.7c2.1,0,4,1.3,5.5,3.7
		c1.5,2.8,2.3,5.9,2.2,9.1v53.8c0,3.9-1.8,7.4-4,7.4c-1.8,0-3.9-3-3.9-7.4v-30.7c0-2-1-3.6-2.1-3.6c-1.2,0-2.1,1.6-2.1,3.6v30.7
		c0,8.2,3.5,14.3,8.2,14.3c2.3,0,4.4-1.4,5.9-4c1.7-3.2,2.5-6.7,2.4-10.3v-53.8c0.1-5-1.1-9.9-3.6-14.2c-2.3-3.8-5.3-5.9-8.5-5.9
		s-6.2,2.1-8.5,5.9c-2.4,4.3-3.7,9.3-3.6,14.2V480c0,6.6,1.7,13.3,4.5,17.9c2.8,4.6,6.6,7.3,10.5,7.3h1.9c3.8,0,7.6-2.7,10.4-7.4
		c1.5-2.5,2.6-5.2,3.3-7.9c0.8-3.2,1.2-6.4,1.2-9.7v-44.8C98.8,433.5,97.9,431.9,96.7,432L96.7,432z"/>
	<path class="st2" d="M505.7,531.5c0,0,5.4,7.1-2.5,17.8c-7.9,10.7-14.5,19.7-11.8,26.4c0,0,11.9-19.9,21.7-20.1
		C522.8,555.3,516.4,543.4,505.7,531.5z"/>
	<path class="st7" d="M505.7,531.5c0.5,0.7,0.8,1.4,1.1,2.2c9.5,11.1,14.5,21.5,5.4,21.8c-8.5,0.2-18.7,15.4-21.1,19.3
		c0.1,0.3,0.2,0.6,0.3,0.9c0,0,11.9-19.9,21.7-20.1C522.8,555.4,516.4,543.4,505.7,531.5z"/>
	<path class="st8" d="M515.8,540.5c0,2.5-0.3,4.5-0.6,4.5s-0.6-2-0.6-4.5s0.3-1.3,0.7-1.3C515.6,539.2,515.8,538,515.8,540.5z"/>
	<path class="st8" d="M519.2,543.5c-2.2,1.2-4.1,1.9-4.3,1.6s1.5-1.5,3.7-2.7s1.3-0.3,1.5,0S521.4,542.3,519.2,543.5z"/>
	<path class="st2" d="M477.1,531.5c0,0-5.4,7.1,2.5,17.8s14.4,19.7,11.8,26.4c0,0-11.9-19.9-21.7-20.1
		C460,555.3,466.4,543.4,477.1,531.5z"/>
	<path class="st7" d="M477.1,531.5c-0.5,0.7-0.8,1.4-1.1,2.2c-9.5,11.1-14.5,21.5-5.4,21.8c8.5,0.2,18.7,15.4,21.1,19.3
		c-0.1,0.3-0.2,0.6-0.3,0.9c0,0-11.9-19.9-21.7-20.1C460,555.4,466.4,543.4,477.1,531.5z"/>
	<path class="st8" d="M467,540.5c0,2.5,0.3,4.5,0.6,4.5c0.3,0,0.6-2,0.6-4.5s-0.4-1.3-0.7-1.3S467,538,467,540.5z"/>
	<path class="st8" d="M463.6,543.5c2.2,1.2,4.1,1.9,4.3,1.6c0.2-0.3-1.5-1.5-3.7-2.7s-1.3-0.3-1.5,0S461.4,542.3,463.6,543.5z"/>
	<ellipse class="st0" cx="491.4" cy="621.1" rx="56.6" ry="8.7"/>
	<path class="st9" d="M520.6,566.1l-0.3,2.2l-0.4,3.1l-0.2,1.3l-0.4,3.1l-0.2,1.3l-0.4,3.1l-4.3,35.5c-0.4,3.2-5.6,5.6-11.8,5.6
		h-22.5c-6.3,0-11.4-2.5-11.8-5.6l-4.3-35.5l-0.4-3.1l-0.2-1.3l-0.4-3.1l-0.2-1.3l-0.4-3.1l-0.3-2.2c-0.2-1.8,2.6-3.3,6.1-3.3h46.1
		C518,562.8,520.8,564.3,520.6,566.1z"/>
	<polygon class="st10" points="520.3,568.3 519.9,571.4 462.9,571.4 462.5,568.3 	"/>
	<polygon class="st10" points="519.7,572.7 519.4,575.9 463.5,575.9 463.1,572.7 	"/>
	<polygon class="st10" points="519.2,577.2 518.8,580.3 464,580.3 463.6,577.2 	"/>
	<path class="st4" d="M381.3,373.1l-8.7,11.6c-0.1,0.2-0.4,0.3-0.7,0.3l-9-2.2c-0.3-0.1-0.6-0.5-0.6-0.8l-1.6-11.9
		c0-0.3,0-0.6,0.2-0.9l8.7-11.6c0.7-1,0.6-2.3-0.2-3.1c-1.6-1.6-3.8-2.6-6.2-2.7c-0.1,0-0.3,0-0.4,0c-2.4,0.2-7.6,2-11.7,7.6
		c-3.9,5.5-8,15.6-4.4,26.9c0.4,1.4,0.9,3.2-0.5,5.1c-1.4,1.9-38.8,48.4-38.8,48.4c-3.5,4-3.2,11.4,0,15.7c1.4,2,3.6,3.2,6.1,3.3
		c2.4,0,4.6-1.3,5.7-3.4c0,0,34.8-49.1,36.5-51.4c0.5-0.8,1.3-1.2,2.2-1.3c0.6,0,1.2,0.2,1.7,0.6c1.9,1.3,4.1,1.9,6.3,1.9
		c5.2,0,10.7-3.2,14-7.6c3.4-4.4,5.5-9.8,5.7-15.5c0.1-3.1-0.6-6.1-2.1-8.8c-0.3-0.7-1.1-1-1.8-0.7
		C381.6,372.7,381.4,372.9,381.3,373.1L381.3,373.1z M315.5,449.8c-0.7,1.1-2.1,1.4-3.2,0.7c-0.3-0.2-0.5-0.4-0.7-0.7
		c-1-1.5-1-3.6,0-5.1c0.7-1.1,2.1-1.4,3.2-0.7c0.3,0.2,0.5,0.4,0.7,0.7C316.6,446.3,316.6,448.3,315.5,449.8L315.5,449.8z"/>
	<path class="st4" d="M690.2,395.6c-2.4-27.9-21.3-49.6-44.3-49.6c-15.2,0-28.6,9.5-36.7,24c-2.5-1.3-5.2-2-8-2
		c-11.6,0-21,12.8-21.2,27.2c-11.9,4.7-19.7,19.2-19.7,34.4c0,18.6,12.1,35,27,35h98.1c14.9,0,27-16.4,27-35
		C712.4,413,702.8,398.4,690.2,395.6L690.2,395.6z M668,389.2l-39.7,49.8l0,0c-0.5,0.6-1.8,2-3.5,2c-1.4-0.2-2.7-0.9-3.5-2.1
		l-16.7-20.8c-0.5-0.6-0.5-1.5,0-2.1l5.3-6.6c0.2-0.3,0.5-0.4,0.8-0.4c0.3,0,0.6,0.2,0.8,0.4l13.2,16.4l36.2-45.6
		c0.2-0.3,0.5-0.4,0.8-0.4c0.3,0,0.6,0.2,0.8,0.4l5.2,6.7C668.4,387.6,668.5,388.5,668,389.2L668,389.2z"/>
	<ellipse class="st4" cx="930.7" cy="427.7" rx="9" ry="12"/>
	<path class="st4" d="M930.7,444.4c-1,0-2-0.2-2.9-0.5l-8.9,12.1c-0.2,0.2-0.2,0.5,0,0.7l14.2,20.1c1,1.4,1,3.2,0,4.6
		c-0.4,0.6-1,0.9-1.7,0.9c-0.7,0-1.3-0.4-1.7-0.9l-14.1-20.1c-0.1-0.2-0.3-0.2-0.5-0.1c0,0-0.1,0.1-0.1,0.1l-3.4,4.7
		c-2.9,3.9-6.7,3.3-10.8,3.3s-8.1-2.3-11-6.3l-3.3-4.5c-0.1-0.2-0.3-0.2-0.5-0.1c0,0-0.1,0.1-0.1,0.1l-14.1,20.1
		c-0.4,0.6-1,0.9-1.7,0.9c-0.7,0-1.3-0.4-1.7-0.9c-1-1.4-1-3.2,0-4.6l14.2-20.1c0.1-0.2,0.1-0.5,0-0.7l-20.3-27.5
		c-0.2-0.3-0.6-0.1-0.6,0.3v55.1c0,4.4,2.7,8,6,8l66.2,2.7c3.3,0,6-3.7,6-8v-44.7C937.5,442.4,934.3,444.4,930.7,444.4z"/>
	<path class="st4" d="M918.2,427.7c0-2.8,0.5-5.5,1.5-8l-52.3-2.7c-1.4,0-2.8,0.7-3.7,1.8l29.5,40.1c1.6,2.5,4.4,4,7.4,4.1
		c2.7,0,5.4,1.3,7.4-1.4l15.1-20.6C920.2,437.8,918.2,433.1,918.2,427.7z"/>
	<path class="st2" d="M991.9,572.1c0,0-10.7-0.6-9.4,6.8c-0.1,0.8,0.2,1.5,0.9,1.9c0,0,0-0.6,1.1-0.4c0.4,0.1,0.8,0.1,1.2,0.1
		c0.5,0,1-0.2,1.4-0.6l0,0c0,0,3-1.2,4.2-6.1c0,0,0.9-1.1,0.8-1.3l-1.8,0.8c0.3,0.7,0.4,1.6,0.1,2.4c0,0-0.1-2.3-0.4-2.3
		c-0.1,0-0.9,0.5-0.9,0.5s1.1,2.3,0.3,3.9c0,0,0.3-2.7-0.6-3.7l-1.3,0.7c0,0,1.2,2.3,0.4,4.2c0,0,0.2-2.9-0.7-4.1l-1.2,0.9
		c0,0,1.2,2.3,0.5,3.9c0,0-0.1-3.4-0.7-3.7c-0.4,0.4-0.8,0.8-1.2,1.3c0,0,0.8,1.7,0.3,2.5c0,0-0.3-2.3-0.5-2.3
		c-0.5,0.8-0.9,1.6-1.1,2.5c0.1-1,0.4-1.9,0.9-2.7c-0.6,0.1-1.1,0.4-1.5,0.8c0,0,0.2-1.1,1.8-1.2c0.3-0.4,0.7-0.8,1-1.2
		c-0.9-0.1-1.8,0-2.6,0.3c0,0,0.9-1,2.9-0.5l1.1-0.9c-1-0.2-2-0.2-3,0c0,0,1-0.9,3.3-0.2l1.2-0.7c-1-0.2-1.9-0.3-2.9-0.3
		c1.1-0.4,2.2-0.4,3.3,0.1l0.9-0.4c0,0-1.3-0.3-1.7-0.3c-0.4,0-0.4-0.2-0.4-0.2c0.8-0.1,1.7,0,2.5,0.3
		C990.7,572.7,991.3,572.4,991.9,572.1z"/>
	<ellipse class="st0" cx="984.6" cy="581.5" rx="7.6" ry="1.3"/>
	<path class="st2" d="M827.5,572.4c0,0-12.9-0.8-11.4,8.2c-0.2,0.9,0.3,1.9,1.1,2.3c0,0,0-0.7,1.3-0.4c0.5,0.1,0.9,0.1,1.4,0.1
		c0.6,0,1.2-0.3,1.7-0.7l0,0c0,0,3.7-1.5,5-7.4c0,0,1.1-1.3,1-1.6l-2.2,0.9c0.4,0.9,0.5,1.9,0.2,2.9c0,0-0.1-2.8-0.5-2.7
		c-0.1,0-1.1,0.5-1.1,0.5s1.3,2.7,0.3,4.7c0,0,0.4-3.4-0.7-4.6l-1.5,0.9c0,0,1.5,2.8,0.5,5.1c0,0,0.3-3.5-0.8-4.9l-1.4,1.1
		c0,0,1.4,2.7,0.5,4.7c0,0-0.1-4.1-0.8-4.4c-0.5,0.4-1,0.9-1.4,1.5c0,0,0.9,2,0.4,3.1c0,0-0.4-2.7-0.7-2.7c-0.6,0.9-1.1,2-1.3,3.1
		c0.1-1.2,0.4-2.3,1-3.2c-0.7,0.1-1.3,0.4-1.8,0.9c0,0,0.2-1.3,2.2-1.4c0.4-0.5,0.8-1,1.3-1.5c-1.1-0.1-2.1,0-3.1,0.4
		c0,0,1-1.2,3.5-0.7l1.4-1.1c-1.2-0.2-2.4-0.2-3.7,0c0,0,1.3-1.1,4-0.3l1.5-0.9c-1.1-0.3-2.3-0.4-3.5-0.3c0,0,1.4-0.7,3.9,0.1
		l1.1-0.5c0,0-1.6-0.3-2.1-0.4s-0.5-0.2-0.5-0.2c1-0.2,2.1-0.1,3,0.3C826,573,826.8,572.7,827.5,572.4z"/>
	<ellipse class="st0" cx="818.6" cy="583.8" rx="9.1" ry="1.5"/>
	
		<linearGradient id="SVGID_1_" gradientUnits="userSpaceOnUse" x1="769.4093" y1="-63.6698" x2="769.4093" y2="142.8077" gradientTransform="matrix(1 0 0 -1 -56.96 567.0514)">
		<stop  offset="0" style="stop-color:#808080;stop-opacity:0.25"/>
		<stop  offset="0.54" style="stop-color:#808080;stop-opacity:0.12"/>
		<stop  offset="1" style="stop-color:#808080;stop-opacity:0.1"/>
	</linearGradient>
	<path class="st11" d="M746.7,482.3c0,0,1.1-1,0.7-1.7c-0.2-0.4-0.2-0.9,0-1.4c0,0-2.4-9.3-3.2-10.2c-0.6-0.7-1-1.5-1.3-2.3
		c0.1-0.2,0.1-0.4,0.1-0.6c0-0.9-0.4-1.8-0.9-2.6c-0.7-1-1.1-2.2-1.1-3.4c0-0.2,0-0.3,0-0.5l0,0l0,0c-0.5-1.4-1.7-2.4-3.2-2.8
		c0.3-2,0.7-3.9,0.8-5.9c0.4-6.2-1.9-12.2-4.2-18c-0.5-1.4-1.2-2.8-2-4.1c-2-2.7-5.2-4.4-8.5-4.7c-1.2-0.2-2.5,0-3.7,0.4
		c-1.2,0.5-2.2,1.2-3.2,2.1c-1,0.8-2,1.7-2.9,2.6l-0.1,0.1l-0.3,0.3l-0.1,0.1l-0.3,0.3l-0.1,0.1c-0.1,0.2-0.3,0.3-0.4,0.5l0,0
		c-0.1,0.2-0.2,0.3-0.3,0.5l-0.1,0.2l-0.2,0.3l-0.1,0.2c-0.1,0.1-0.1,0.2-0.2,0.4l-0.1,0.2c-0.1,0.2-0.2,0.3-0.3,0.5l-0.3,0.7v0.1
		l-0.2,0.5c-0.2,0.6-0.5,1.2-0.8,1.7l0,0l-0.1,0.1l-0.7,0.8c-0.3,0.4-0.6,0.8-0.7,1.3l-0.1,0.1c0,0.1,0,0.1-0.1,0.2l-0.1,0.2
		c0,0.1,0,0.1-0.1,0.2c0,0.1,0,0.1,0,0.2l-0.1,0.2c0,0.1,0,0.1,0,0.2c0,0.1,0,0.1,0,0.2v0.2v0.2c0,0.1,0,0.1,0,0.2
		c0,0.1,0,0.1,0,0.2c0,0,0,0.3,0,0.4s0,0.1,0,0.2c0,0.1,0,0.2,0,0.2c0,0.1,0,0.1,0,0.2c0,0.1,0,0.2,0,0.2v0.2c0,0.1,0,0.2,0,0.2
		c0,0.1,0,0.1,0,0.2l0.1,0.2c0,0,0,0.1,0,0.1l0.1,0.3c0,0,0,0.1,0,0.1s0.1,0.3,0.1,0.4c0.3,0.6,0.6,1.2,1,1.7
		c0.3,0.4,0.5,0.7,0.8,1.1l0.4,0.5c0.3,0.4,0.5,0.7,0.7,1.1c1.3,2.5,1.2,5.5-0.3,7.9l-0.3,0.5c-0.2,0.3-0.3,0.6-0.4,0.9
		c-0.1,0.6,0.1,1.1,0.5,1.6l-0.8,0.2c-0.7,0.2-1.1,0.3-1.1,0.3c-0.6,0-1.1,0-1.7,0c-0.8,0.2-1.5,0.7-2,1.3c0,0-3.5,0.4-4.6-0.6
		c-1.1-1-5.1-1.4-5.1-1.4s-1.1-2.2-2.4-2.9c-1.2-0.7-4.2-2-4.3-2.6c-0.3-0.7-0.6-1.4-1.1-2c-0.6-0.1-1.2-0.2-1.8-0.2l-0.2-0.3
		l-2.4-4.2c0,0-3.1-3.6-4.7-3.9s2.3,3.8,2.5,4c-1.2-0.8-2.8-0.6-3.7,0.6c-1.3,1.4,2.1,4.8,4.3,6.7l0.3,0.3c0,0.2,0,0.4,0.1,0.6
		c1,5,6.3,9.4,6.3,9.4s0.6,2.8,2.6,3.5c1.6,0.5,10.2,4.4,14.7,5.2c-0.4,1-0.8,3.2,1,6.5c0,0,0.4,5.9-0.5,6.6s-0.9,9.3-0.9,9.3
		s-3.7,14.8,0,17.9c0.2,0.2,0.5,0.4,0.8,0.5c0,0.2,0.1,0.5,0.1,0.7c0.2,1.5,0.2,3-0.2,3.7c-0.9,1.4,0.3,5.4,0.3,5.4s-3.5,20-2,27
		c1,5.3,1.5,10.6,1.4,16c0,0-0.5,6.2,2.2,9.9c0.3,0.9,0.5,1.8,0.5,2.7c0.2,1.8,0.6,3.5,1.4,5.2c0.6,1.2,1.8,6.2,0.8,7.6
		c-1,1.4,1.1,16.2,1.1,16.2s-1.7,4.6,0,7l0.1,0.1c-1,0-2.1-0.2-3.1-0.4c-2-0.7-0.5,1.8,1.8,3.5c-1,2.3-2.4,5.4-2.9,6.4
		c-2,0.3-6,0.9-8.4,0.4c-3.2-0.8,1.4,4.4,5.8,5.4c3.1,0.6,6.2,0.8,9.3,0.7l2.8-3.1c2.3,0.3,4.6,0.4,6.9,0.3l-0.2,2.9h1.7v-3
		c1-0.1,2.1-0.2,3.2-0.4c0,0,0.1-3.2-0.1-6.1l1,0.1l0.2-1.7l3.6,0.6l3.2-26.5c0,0,0.4-9.9,1.1-15.4s-1.7-24.1-1.7-24.1
		s-0.2-0.9-0.3-2.6c-0.2-1.7,0-11.7,0-11.7s1.3-5.5,1.1-5.9s0.1-2.8,0.1-2.8c5.5-11.2-1.3-21.3-3.6-24.3c0.1-0.1,0.2-0.3,0.2-0.5
		c0-0.1,0-0.1,0-0.2c-0.4-0.9-0.8-1.9-1.3-2.7l1.4-1.7c0.5,0.7,0.8,1.2,0.8,1.2s1.5-3.3,3-4.6c1.5-1.3,8.6-13.2,8.6-13.2
		s1.7-1.1,0.8-2C746.2,482.2,746.7,482.3,746.7,482.3z M724.7,576.4c-0.1-0.4-0.3-0.7-0.6-1c0,0-0.3-1.8-0.3-4.2
		c0.5,1.8,1.1,3.2,1.1,3.2L724.7,576.4z M728.8,619.8c0-0.2,0-0.3,0-0.5h0.1L728.8,619.8z M729.9,498.9v-0.1c0-0.5,0.2-0.9,0.6-1.2
		c0.2-0.1,0.3-0.4,0.3-0.6c0-0.4-0.2-0.8-0.4-1.1c0.2,0.1,0.7,0.4,1.1-0.6c0.1-0.2,0.1-0.3,0.1-0.5c-0.1-0.9-0.4-1.7-1-2.4l3.9-8.3
		c0.4,0.1,0.9,0.2,1.3,0.3l0,0c-1,3.2-1.9,7-1.9,7l-3.1,6.7c0.2,0.1,0.4,0.2,0.5,0.4L729.9,498.9z"/>
	<path class="st9" d="M716.7,614.6c0,0-5.1,0.6-7.6-0.2c-2.5-0.9,0.8,3.7,4.1,4.8c2.4,0.7,4.8,1.1,7.3,1.2l4-3.7l4.2,0.3l-0.7,4.1
		l1.3,0.1l0.5-5.4L716.7,614.6z"/>
	<path class="st7" d="M716.7,614.6c0,0-5.1,0.6-7.6-0.2c-2.5-0.9,0.8,3.7,4.1,4.8c2.4,0.7,4.8,1.1,7.3,1.2l4-3.7l4.2,0.3l-0.7,4.1
		l1.3,0.1l0.5-5.4L716.7,614.6z"/>
	<path class="st9" d="M709.3,624c0,0-6.2,1.3-9.3,0.6c-3.1-0.8,1.4,4.4,5.6,5.3c3,0.6,6,0.8,9,0.7l4.4-5l5.1-0.1l-0.4,5.1h1.6V624
		H709.3z"/>
	<path class="st7" d="M709.3,624c0,0-6.2,1.3-9.3,0.6c-3.1-0.8,1.4,4.4,5.6,5.3c3,0.6,6,0.8,9,0.7l4.4-5l5.1-0.1l-0.4,5.1h1.6V624
		H709.3z"/>
	<path class="st9" d="M732.1,507c0,0,10.5,11.7,4.2,24.9c0,0-0.3,2.4-0.1,2.8c0.2,0.4-1,5.9-1,5.9s-0.2,9.9,0,11.6
		c0.2,1.7,0.3,2.6,0.3,2.6s2.4,18.4,1.6,23.9c-0.8,5.5-1.1,15.3-1.1,15.3l-3.1,26.3l-16.2-3l7.3-36.1l0.3-6.4c0,0-3-7.8-1.7-11.8
		c1.3-4-0.3-54.4-0.3-54.4L732.1,507z"/>
	<path class="st12" d="M732.1,507c0,0,10.5,11.7,4.2,24.9c0,0-0.3,2.4-0.1,2.8c0.2,0.4-1,5.9-1,5.9s-0.2,9.9,0,11.6
		c0.2,1.7,0.3,2.6,0.3,2.6s2.4,18.4,1.6,23.9c-0.8,5.5-1.1,15.3-1.1,15.3l-3.1,26.3l-16.2-3l7.3-36.1l0.3-6.4c0,0-3-7.8-1.7-11.8
		c1.3-4-0.3-54.4-0.3-54.4L732.1,507z"/>
	<path class="st9" d="M724.3,563.6c-1.8,3.5-0.7,12.1-0.7,12.1c2.4,2.1,1.1,20.5,1.1,20.5s1.7,18.1,2.7,20.2
		c1.1,2.1,0.9,10.8,0.9,10.8c-12.4,2.3-20.5-2.6-20.5-2.6s4-9,4-9.4c0-0.2,0.6,0.4,0.7,0.6l-0.7-1c-1.7-2.4,0-6.9,0-6.9
		s-2.1-14.6-1.1-16s-0.2-6.3-0.8-7.5c-0.7-1.6-1.2-3.4-1.4-5.1c0-0.9-0.2-1.8-0.5-2.7c-2.6-3.7-2.1-9.9-2.1-9.9
		c0.1-5.3-0.4-10.6-1.3-15.8c-1.5-7,1.9-26.8,1.9-26.8s-1.1-3.9-0.3-5.3c0.4-0.6,0.3-2.2,0.2-3.7c-0.2-1.8-0.6-3.5-0.6-3.5l23-4.1
		c0.5,0.8,0.9,1.6,1.3,2.3c7.6,14.1,2.5,19.3,2.5,19.3l-4.9,15C727.9,544,726.2,560.1,724.3,563.6z"/>
	<path class="st13" d="M687.9,453.6l-3.3,2.7c0,0-0.6-0.5-1.5-1.3c-2.1-1.8-5.4-5.2-4.1-6.6c0.8-1.1,2.3-1.4,3.5-0.6
		c0,0,0,0,0.1,0.1c-0.2-0.2-4-4.3-2.4-4c1.6,0.3,4.6,3.9,4.6,3.9l2.4,4.2L687.9,453.6z"/>
	<polygon class="st13" points="731.9,499.1 728,500.3 731,505.5 734.4,501.1 	"/>
	<circle class="st13" cx="722.8" cy="439.8" r="11"/>
	<path class="st13" d="M716.3,443.8c0,0,10,15.9,0.5,17.3s12.8,11,12.8,11l8.3-8.4c0,0-8.7-15-7.3-20.7
		C732,437.3,716.3,443.8,716.3,443.8z"/>
	<path class="st7" d="M730.4,509.8c-2.2,0.7-4.5,1.2-6.8,1.6c0,0-12.4,5.5-16.9,3.7c-0.2-1.8-0.6-3.5-0.6-3.5l23-4
		C729.5,508.2,730,509,730.4,509.8z"/>
	<path class="st14" d="M741.8,468.1l-2.2,4.6L737,478l-0.4,0.7l-3,6.5l-3.8,8.2c0,0,1.4,1.6,0.9,2.9c-0.4,1.3-1,0.7-1.1,0.6
		c0.1,0.1,0.9,1.2,0.2,1.7c-0.5,0.4-0.7,1-0.5,1.6c0,0,3.1,5.1,3.7,7c0.6,1.9-9.4,3.5-9.4,3.5s-14.2,6.3-17.8,3.2
		c-3.5-3.1,0-17.8,0-17.8s0-8.4,0.9-9.2c0.9-0.8,0.5-6.6,0.5-6.6c-2.4-4.5-0.8-7-0.8-7l-0.7-11.5c0,0,1.1-1.2,1.9-1.3
		c0.5-0.1,1.1-0.1,1.6,0c0,0,0.4-0.2,1.1-0.3c1.4-0.4,3.6-0.9,4.4-0.5c1.2,0.6,8.8-0.9,8.8-0.9c3.3-0.5,6.6-0.8,9.9-0.9
		c1.1-0.1,2.3,0.1,3.3,0.4c1.5,0.3,2.7,1.4,3.2,2.8c-0.1,1.4,0.2,2.7,1,3.9C742.4,467.2,741.8,468.1,741.8,468.1z"/>
	<path class="st7" d="M687.9,453.6l-3.3,2.7c0,0-0.6-0.5-1.5-1.3c-0.3-2.8,2.2-3.2,3.9-3.1L687.9,453.6z"/>
	<path class="st14" d="M707.2,461.8l-1.4,0.1c0,0-3.4,0.4-4.5-0.6c-1.1-1-5-1.3-5-1.3s-1.1-2.2-2.3-2.9s-4-1.9-4.1-2.6
		c-0.2-0.7-0.6-1.4-1.1-1.9c0,0-6.3-1.5-5.4,3.5c0.9,5,6.1,9.3,6.1,9.3s0.6,2.7,2.5,3.5c1.9,0.7,14.5,6.6,16.5,5.1
		C710.6,472.3,707.2,461.8,707.2,461.8z"/>
	<path class="st7" d="M741,465c-0.8-1.1-1.1-2.5-1-3.9c-0.5-1.4-1.7-2.5-3.2-2.8c-0.5-0.2-1.1-0.3-1.6-0.3c1.5,0.3,2.7,1.4,3.2,2.8
		c-0.1,1.4,0.2,2.7,1,3.9c1.3,2.2,0.8,3.1,0.8,3.1l-2.2,4.6l-2.5,5.2l-0.4,0.7l-3,6.5l-3.8,8.2c0,0,1.3,1.6,0.9,2.9
		c-0.4,1.3-1,0.7-1.1,0.6c0.1,0.1,0.9,1.2,0.2,1.7c-0.5,0.4-0.7,1-0.5,1.6c0,0,3.1,5.1,3.7,7c0.6,1.9-9.4,3.5-9.4,3.5
		s-9.9,4.4-15.2,4c4.6,1.8,16.9-3.7,16.9-3.7s10-1.6,9.4-3.5c-0.6-1.9-3.7-7-3.7-7c-0.1-0.6,0-1.2,0.5-1.6c0.7-0.5-0.1-1.6-0.2-1.7
		c0.1,0.1,0.7,0.6,1.1-0.6c0.4-1.2-0.9-2.9-0.9-2.9l3.8-8.2l3-6.5l0.4-0.7l2.5-5.2l2.2-4.6C741.8,468.1,742.4,467.2,741,465z"/>
	<path class="st14" d="M740.3,466.9l1.5,1.3c0.3,0.8,0.7,1.6,1.3,2.3c0.8,0.9,3.1,10.1,3.1,10.1c-0.2,0.4-0.2,0.9,0,1.4
		c0.3,0.7-0.7,1.7-0.7,1.7s-0.5-0.2,0.3,0.8c0.8,0.9-0.8,2-0.8,2s-6.9,11.8-8.3,13.1c-1.4,1.3-2.9,4.6-2.9,4.6s-3-4.7-3.7-4.8l3-6.7
		c0,0,2-9.3,3.5-11c1.5-1.7-0.8-7.5-0.8-7.5L740.3,466.9z"/>
	<path class="st7" d="M741.2,484c-1.3,1.5-3.5,1.8-5.5,1.6c-0.3,0-0.6-0.1-0.9-0.1c-0.4-0.1-0.9-0.2-1.3-0.3
		c-1.5-0.4-2.9-1.1-4.2-2.1c-0.3-0.2-0.6-0.4-0.9-0.5c-0.8-0.1-1.6,0.3-2,1.1c-0.4,0.7-0.6,1.5-1.1,2.2c-1,1.3-2.5,2.1-4.1,2
		c-1.6,0-3.2-0.4-4.7-0.9c1.3-1.4,2.4-3.1,3-5c0.3-1.2,0.4-2.5,0.2-3.8c-0.4-6-2.4-12.2-7.3-15.7c-0.8-0.6-1.8-1.3-2.1-2.2
		c1.4-0.4,3.6-0.9,4.4-0.5c1.2,0.6,8.8-0.9,8.8-0.9c3.3-0.5,6.6-0.8,9.9-0.9c1.1-0.1,2.3,0.1,3.3,0.4c-0.5,2.5-0.6,5-0.3,7.5
		c0.3,1.5,0.9,3,1.7,4.4c0.4,0.8,0.9,1.7,1.4,2.5c1.3,2.3,2.5,4.6,2.7,7.2C742.5,481.4,742.1,482.9,741.2,484z"/>
	<path class="st7" d="M724.6,495.9c0.6-0.2,1.3-0.2,2-0.2c0.6,0.2,1.1,0.5,1.5,0.9h-4.3c-1.1,0-2.8,0.1-3.7-0.7
		C720.8,495.1,723.5,496,724.6,495.9z"/>
	<path class="st15" d="M709.6,438.5c-1.3,1.8-1.6,4.2-0.7,6.3c0.7,1.6,2,2.9,2.9,4.5c1.3,2.5,1.2,5.4-0.3,7.8
		c-0.3,0.4-0.6,0.9-0.7,1.4c-0.2,1.3,1.1,2.2,2.2,3c4.9,3.5,6.9,9.8,7.3,15.7c0.1,1.3,0,2.5-0.2,3.8c-0.6,1.9-1.7,3.6-3,5
		c1.5,0.6,3.1,0.9,4.7,0.9c1.6,0,3.2-0.7,4.1-2c0.4-0.7,0.6-1.5,1.1-2.2c0.4-0.7,1.2-1.2,2-1.1c0.3,0.1,0.6,0.3,0.9,0.5
		c1.9,1.4,4,2.2,6.3,2.5c2,0.2,4.2-0.1,5.5-1.6c0.9-1.2,1.2-2.6,1-4.1c-0.4-5.1-4.8-9.1-5.8-14.1c-0.8-4.1,0.6-8.2,0.9-12.4
		c0.4-6.1-1.8-12.1-4-17.8c-0.5-1.4-1.1-2.8-1.9-4.1c-2-2.6-4.9-4.3-8.2-4.6c-1.2-0.2-2.4,0-3.6,0.4c-1.1,0.5-2.2,1.2-3.1,2.1
		c-2.1,1.8-4.2,3.7-5.5,6.2c-0.5,1-0.8,2.1-1.4,3.1"/>
	<g class="st16">
		<path d="M711.5,436.3c0.5-1,0.9-2.1,1.4-3.1c0.5-0.9,1.1-1.8,1.8-2.6c-1.3,1.2-2.3,2.5-3.1,4.1c-0.5,1-0.8,2.1-1.3,3l0.7-0.6
			c-0.2,0.2-0.3,0.5-0.5,0.7C710.9,437.4,711.2,436.8,711.5,436.3z"/>
		<path d="M737.5,483.2c-2.3-0.3-4.5-1.1-6.3-2.5c-0.3-0.2-0.6-0.4-0.9-0.5c-0.8-0.1-1.6,0.3-2,1.1c-0.1,0.1-0.2,0.3-0.2,0.4
			c0.3-0.1,0.6-0.2,0.9-0.1c0.3,0.1,0.6,0.3,0.9,0.5c1.9,1.4,4,2.2,6.3,2.5c2,0.2,4.2-0.1,5.5-1.6c0.2-0.2,0.3-0.4,0.4-0.6
			C740.7,483.2,739,483.5,737.5,483.2z"/>
		<path d="M723,485.5c-1.6,0-3.2-0.4-4.7-0.9c1.3-1.4,2.4-3.1,3-5c0.3-1.2,0.4-2.5,0.2-3.8c-0.4-6-2.4-12.3-7.3-15.7
			c-1.1-0.8-2.4-1.7-2.2-3c0.1-0.5,0.4-1,0.7-1.4c1.4-2.4,1.5-5.3,0.3-7.8c-0.8-1.6-2.2-2.9-2.9-4.5c-0.7-1.8-0.6-3.9,0.3-5.6
			c-0.2,0.2-0.5,0.5-0.7,0.7c-0.2,0.3-0.4,0.5-0.6,0.7c-0.9,1.7-1,3.8-0.3,5.6c0.7,1.6,2,2.9,2.9,4.5c1.3,2.5,1.2,5.4-0.3,7.8
			c-0.3,0.4-0.6,0.9-0.7,1.4c-0.2,1.3,1.1,2.2,2.2,3c4.9,3.5,6.9,9.8,7.3,15.7c0.1,1.3,0,2.5-0.2,3.8c-0.6,1.9-1.7,3.6-3,5
			c1.5,0.6,3.1,0.9,4.7,0.9c1.6,0,3.2-0.7,4.1-2c0.1-0.1,0.1-0.2,0.2-0.3C725.1,485.1,724,485.5,723,485.5z"/>
	</g>
	
		<linearGradient id="SVGID_2_" gradientUnits="userSpaceOnUse" x1="98.7385" y1="-37.2972" x2="98.7385" y2="92.5128" gradientTransform="matrix(1 0 0 -1 -56.96 567.0514)">
		<stop  offset="0" style="stop-color:#808080;stop-opacity:0.25"/>
		<stop  offset="0.54" style="stop-color:#808080;stop-opacity:0.12"/>
		<stop  offset="1" style="stop-color:#808080;stop-opacity:0.1"/>
	</linearGradient>
	<path class="st17" d="M64.9,594.3c-1.9-0.2-3.7-0.9-5.3-1.9l-0.2-0.1c0.1-0.2,0.2-0.4,0.3-0.6c-0.2-0.4-0.3-0.9-0.3-1.4
		c0-0.5-0.1-0.9-0.3-1.4v-2.3c-0.5-0.8-0.8-1.7-0.8-2.6c-0.1-1.9-0.1-11.2-0.1-11.2c-0.1-0.5-0.1-1-0.1-1.5c0.1-1.1,0.1-1.5,0.1-1.5
		c-0.2-0.6-0.3-1.3-0.2-2c0.1-0.6-0.1-1.2-0.5-1.7l1-5.1c0,0,0.6-17.6-1.1-23l0,0c0,0,0,0,0-0.1c0.1-3.4-1.9-9.1-0.8-13.1
		S58,520,58,520s-5.2-13.1-6.5-16.2c-0.8-2-1.7-3.9-2.7-5.8c-0.1-0.1-0.2-0.2-0.2-0.3l-0.1-0.2c0.3-0.5,0.5-1,0.5-1.6
		c0.1-0.9-0.1-2.1,0.6-2.7c0.3-0.2,0.6-0.4,0.9-0.6c1.1-0.7,1.7-2,1.5-3.3c-0.2-1-0.7-1.9-1.4-2.7c0.1-0.4,0.1-0.9,0.1-1.4
		c0-2.1-0.9-4.1-2.4-5.5l0,0v-0.4c0-0.9-0.3-1.8-0.8-2.6l0.2,0.1l-0.3-0.3c-0.2-0.2-0.3-0.3-0.5-0.4c-3.2-2.2-7.2-2.4-10.6-0.5
		c-0.8,0.4-1.5,1.1-2.1,1.8c-1.1,1.7-0.8,3.8-1.4,5.8c-0.6,1.9-1.8,3.3-2.9,4.9s-2,3.5-1.6,5.3c0.3,1.4,1.2,2.6,1.2,3.9
		c-0.1,1.5-1.2,2.7-2.7,2.9l0,0h-0.4c1.4,0.8,2.9,1.3,4.5,1.4c0,0.1-0.1,0.2-0.1,0.4c-1.2,4.8-2.4,11-2.4,11s0.8,6.2-0.8,11
		S26,539,26,539s4.4-2.3,4.7-0.8s0,1.9,0,1.9c0.6,0.3,1.3,0.6,2,0.9v0.6l-0.2,2.6c-0.1,0.5,0,1.1,0.2,1.6c0.4,0.7,0,2.7,0,2.7
		s-0.3,0.2,0,1.2c0.1,0.8,0.1,1.6-0.3,2.3c0,0-0.4,5-0.5,6.1c-0.3,1.4-0.8,2.8-1.4,4.1c0,0,1.2,1.5,0,1.7c-1.2,0.2-1.3,2-1.3,2
		s-1.4,1.2-1.4,1.6c-4.2,4.7-6.9,10.5-7.8,16.7c0,0-1.5,1.3-1.3,2.6c0.1,0.7-0.1,1-0.3,1.1c0.3,0,0.5,0.2,0.4,0.8
		c-0.2,1.1-0.8,3.4-0.8,3.4h0.1l0,0c-1.1,1.3-2.8,3.5-3.1,5.5v0.2l-0.6,1.4l5.5,2.4l0.5-0.7c0,0,2.4,2.7,5.2,3.4
		c0.5,0.1,1,0.2,1.5,0.2c1.5,0,3.1-0.3,4.5-0.9c0,0,2-2.5-3.2-3c0,0-3.1-3.5-2.7-5c0.1-0.6,0.2-1.3,0.2-1.9c0-0.1,0-0.3,0-0.4
		l0.4,0.1l0.1-1.1c0.2-0.2,0.2-0.4,0.2-0.7c0-0.5-0.4-0.5,0-0.8c0.4-0.3,0.4,0,0.4-0.7c0-0.7-0.3-0.5,0.3-1.2
		c0.6-0.7-0.1-1.9-0.1-1.9c0.8-0.6,1.3-1.5,1.4-2.4c-0.1-1.4,4.6-10.4,5.6-10.7c1-0.3,1-2.1,1-2.1s1.3,0.3,1.7,0
		c0.7-0.7,1.2-1.5,1.7-2.4c0,0,5.3-13.3,5.3-18.4l0.3-1.1c0,0,2,2.6,1.7,4.5c-0.3,1.9,1.5,3.2,1.5,3.2v5.7c0.2,1,0.3,2,0.3,3
		c-0.1,0.9,0.8,1.9,0.5,2.7c-0.2,0.7-0.2,1.5,0,2.2c0,0-0.1,1.9,0,2.4c0.1,0.5-0.3,6.7,1.5,9.4c0,0,0.8,1.9,0,3.2
		c-0.8,1.3,0.7,2.6,0.7,2.6s-0.9,1.5,0,2.6c0.5,0.7,0.8,1.5,0.6,2.4c-0.4,1.4-0.6,3.2,0,4.4l0,0l0.2,1.9l5.3-0.4v-1.1
		c2.3,0.6,4.7,0.7,7,0.4c1.8-0.2,3.5-1.1,4.6-2.5C68.6,596.6,70.7,592.9,64.9,594.3z"/>
	<path class="st14" d="M67.6,596.6c-1.1,1.4-2.7,2.3-4.5,2.5c-2.3,0.3-4.6,0.1-6.8-0.4v1.1l-5.1,0.4l-0.2-1.9l0,0
		c-0.6-1.3-0.3-3.1,0-4.5c0.2-0.6,0.4-1.3,0.6-1.9c0,0,4.4-3.8,5.9-0.9c0.3,0.6,0.8,1.1,1.3,1.5c1.5,1,3.3,1.7,5.1,1.9
		C69.7,593,67.6,596.6,67.6,596.6z"/>
	<path class="st7" d="M53.9,593c0,0,0,3.5,2.5,3.4c2.5-0.1,2.9-1.4,2.1-2.3c-0.5-0.6-1-1.3-1.4-2.1L53.9,593z"/>
	<path class="st14" d="M32,603.5c-1.4,0.6-2.9,0.9-4.3,0.9c-0.5,0-0.9-0.1-1.4-0.2c-2.7-0.6-5-3.4-5-3.4l-0.5,0.7l-5.3-2.4l0.6-1.4
		v-0.2c0.2-1.9,1.8-4.1,2.9-5.4c0.6-0.7,1.1-1.2,1.1-1.2l6.4,0.9c0,0,0,0.8,0,1.8c0,0.6-0.1,1.3-0.2,1.9c-0.3,1.5,2.7,5,2.7,5
		C34,601,32,603.5,32,603.5z"/>
	<path class="st9" d="M19.3,587.9c-0.1,0-0.2,0-0.3,0C19.1,587.9,19.2,587.9,19.3,587.9z"/>
	<path class="st7" d="M26.5,591.9c0,0,0,0.8,0,1.8l-7.5-1.2c0,0,0-0.1,0.1-0.4c0.6-0.7,1.1-1.2,1.1-1.2L26.5,591.9z"/>
	<path class="st7" d="M58.9,592.4c-1.1,2.6-7.9,2-7.9,2c0-0.2,0.1-0.4,0-0.6c0.2-0.6,0.4-1.3,0.6-1.9c0,0,4.4-3.8,5.9-0.9
		C57.9,591.5,58.4,592,58.9,592.4z"/>
	<path class="st9" d="M59,591.7c-0.7,3-8,2.3-8,2.3c0.1-0.9-0.1-1.8-0.6-2.5c-0.9-1.1,0-2.5,0-2.5s-1.4-1.3-0.7-2.5
		c0.7-1.3,0-3.2,0-3.2c-1.7-2.7-1.4-8.8-1.5-9.4s0-2.4,0-2.4c-0.2-0.7-0.2-1.5,0-2.2c0.3-0.8-0.5-1.7-0.5-2.7c0-1-0.1-2-0.3-3v-5.7
		c-1-0.8-1.5-2-1.5-3.2c0.3-1.9-1.7-4.5-1.7-4.5l-0.3,1.1c-0.1,5-5.2,18.3-5.2,18.3c-0.5,0.8-1,1.6-1.7,2.3c-0.4,0.3-1.7,0-1.7,0
		s-0.1,1.7-1,2.1c-0.9,0.3-5.5,9.2-5.4,10.7c-0.1,1-0.6,1.9-1.3,2.5c0,0,0.7,1.2,0.1,1.9c-0.6,0.7-0.3,0.5-0.3,1.1s0,0.4-0.4,0.7
		s0,0.3,0,0.8c0,0.2-0.1,0.5-0.2,0.7l-0.1,1.1l-7.8-1.3c0,0,0.5-2.3,0.7-3.4c0.1-0.6-0.2-0.8-0.4-0.8c0.2-0.1,0.4-0.3,0.3-1
		c-0.2-1.3,1.2-2.6,1.2-2.6c0.8-6.2,3.4-12,7.4-16.7c0-0.4,1.3-1.5,1.3-1.5s0.1-1.8,1.3-2c1.1-0.2,0-1.7,0-1.7
		c0.6-1.3,1-2.7,1.3-4.1c0.1-1.1,0.4-6.1,0.4-6.1c0.3-0.7,0.4-1.5,0.2-2.3c-0.3-0.9,0-1.1,0-1.1s0.4-2,0-2.7
		c-0.2-0.5-0.3-1.1-0.2-1.6l0.2-2.6l0.3-3.9c0,0,20.8-3.6,23.1-0.7c0.3,0.4,0.4,0.8,0.5,1.2c1.6,5.3,1.1,22.8,1.1,22.8l-1,5.1
		c0.4,0.5,0.5,1.1,0.5,1.7c-0.1,0.7,0,1.3,0.2,1.9c0,0,0,0.4-0.1,1.5c-0.1,0.5,0,1,0.1,1.5c0,0,0.1,9.2,0.1,11.1
		c0,0.9,0.2,1.8,0.7,2.6v2.3c0.2,0.4,0.3,0.9,0.3,1.3C58.7,590.8,58.8,591.2,59,591.7z"/>
	<path class="st7" d="M27.7,604.4c-0.5,0-0.9-0.1-1.4-0.2c-2.7-0.6-5-3.4-5-3.4l-0.5,0.7l-5.3-2.4l0.6-1.4v-0.2l5.5,2.7
		C21.5,600.3,25.9,602.4,27.7,604.4z"/>
	<path class="st7" d="M63.1,599.1c-2.3,0.3-4.6,0.1-6.8-0.4v1.1l-5.1,0.4l-0.2-1.9c1.6,0,4.2,0.1,5.4,0
		C58.6,598.2,60.9,598.5,63.1,599.1z"/>
	<path class="st7" d="M21.9,586.2c0.3,0,0.5,0,0.8,0.1c0.3,0.2,0.5,0.3,0.7,0.5c0.2,0.1,0.3,0.2,0.5,0.3c0.2,0.2,0.3,0.5,0.5,0.7
		c0.4,0.4,0.9,0.3,1.4,0.4c0.1,0,0.1,0,0.1,0.1c0,0.1,0,0.1-0.1,0.1c-0.2,0.1-0.5,0.1-0.8,0c-0.2-0.1-0.4-0.3-0.6-0.5
		c-0.4-0.3-0.8-0.6-1.3-0.8c-0.6-0.3-1.7-0.3-2.1-0.9C21.3,586.2,21.6,586.2,21.9,586.2z"/>
	<path class="st7" d="M21.4,587.6c0.1,0,0.3,0.1,0.4,0.2l0.7,0.3c-0.5,0-1-0.1-1.4-0.3c-0.2-0.1-0.3-0.1-0.4-0.2
		C20.9,587.5,21.1,587.5,21.4,587.6z"/>
	<path class="st7" d="M22.3,588.8c0.1,0,0.3,0,0.4,0c0.3,0.1,0.5,0.2,0.7,0.4c0.5,0.4,1.1,0.6,1.8,0.6c-0.1,0.1-0.3,0.1-0.4,0.1
		h-1.4c-0.2,0-0.3,0-0.5,0c-0.2,0-0.4-0.1-0.6-0.2c-0.2-0.1-1.3-0.4-1.3-0.7C21,588.6,22,588.8,22.3,588.8z"/>
	<path class="st7" d="M55,590.5c0.4,0,0.9,0,1.3,0c0.5,0,0.9-0.2,1.3-0.4c0.4-0.3,0.3-0.6-0.2-0.6c-0.5,0-0.9,0.1-1.3,0.3
		c-0.2,0.1-0.4,0.2-0.6,0.3C55.5,590.2,55.1,590.5,55,590.5z"/>
	<path class="st7" d="M56.7,591.2c0,0.2-0.2,0.3-0.4,0.3c-0.4,0.1-0.8,0.2-1.2,0.3c-0.1,0-0.4,0-0.3-0.2s0.5-0.1,0.6-0.1
		C55.8,591.4,56.2,591.3,56.7,591.2z"/>
	<path class="st7" d="M52.6,590.9c0.6-0.1,1.1,0.1,1.6,0.3l0,0l0,0c-0.1,0.2-0.3,0.3-0.5,0.3c-0.2,0-0.4-0.1-0.6-0.2
		c-0.3-0.1-0.7-0.2-1.1-0.2c-0.2,0-0.3,0-0.5,0c-0.5-0.1-0.3-0.3,0-0.3C51.9,590.9,52.3,590.9,52.6,590.9z"/>
	<path class="st7" d="M34.2,564.6c-0.7-0.5-1.5-0.7-2.3-0.7C32.8,563.8,33.6,564.1,34.2,564.6z"/>
	<path class="st7" d="M33.6,561.9c0.6,0,1.2,0.2,1.7,0.5l-0.6-0.2C34.4,562.1,34,562,33.6,561.9c-0.2,0.1-0.5,0.1-0.7,0.1
		s-0.5-0.1-0.8-0.1C32.6,561.9,33.1,561.9,33.6,561.9z"/>
	<path class="st7" d="M35.7,563.2c0.2,0,0.4,0.1,0.5,0.3c-0.5-0.2-1-0.4-1.5-0.5c-0.3-0.1-1.2-0.5-1.4-0.2
		C34,563,34.8,563,35.7,563.2z"/>
	<path class="st7" d="M37.5,557.3c0.9-0.3,1.7-0.8,2.3-1.5c0,0.6-0.3,1.2-0.8,1.5c-0.5,0.3-1.1,0.5-1.7,0.6
		c-0.6,0.1-1.2,0.3-1.7,0.5c-0.3,0.1-1.1,0.9-1.4,0.9c-0.3,0,0.2-0.6,0.3-0.7C35.4,558.1,36.4,557.6,37.5,557.3z"/>
	<path class="st7" d="M53.9,565.9c-0.3-0.1-3.7,0.6-3.5-0.1c0.1-0.4,1.3-0.3,1.5-0.2C52.6,565.6,53.3,565.7,53.9,565.9z"/>
	<path class="st18" d="M50.2,485.9c0,0.6-0.1,1.1-0.2,1.7c-0.9,4.1-5,6.7-9.1,5.8c-4.1-0.9-6.7-5-5.8-9.1c0.9-4.1,5-6.7,9.1-5.8
		C47.7,479.2,50.2,482.3,50.2,485.9z"/>
	<path class="st19" d="M46.5,489c0,0-2.5,7.2-1.1,8.7c1.4,1.5-10.1,2.3-10.1,2.3s4.8-8.6,4.3-10.8C39.2,487.1,46.5,489,46.5,489z"/>
	<path class="st7" d="M56.8,538.3c0,0.2,0,0.3,0,0.5c-0.1,3.4-6.2,10.3-7.6,9.1c-1.4-1.2-11-3.4-11-3.4s-1.4-2.2-2.9-2.2
		c-0.8-0.1-1.7-0.3-2.4-0.6l0.3-3.9c0,0,20.8-3.6,23.1-0.7C56.5,537.5,56.7,537.9,56.8,538.3z"/>
	<path class="st20" d="M56.8,538.2c-0.1,1.7-1.6,4.3-3.4,6.3c-1.7,2-3.6,3.4-4.3,2.9c-0.5-0.3-1.1-0.6-1.7-0.8
		c-3.2-1.2-9.3-2.6-9.3-2.6s-1.4-2.2-2.9-2.2c-1.5,0-4.3-1.5-4.3-1.5s0.3-0.4,0-1.9c-0.3-1.5-4.6,0.8-4.6,0.8s-0.2-9.9,1.3-14.7
		c1.5-4.8,0.8-11,0.8-11s1.1-6.1,2.3-10.9c0.7-2.9,1.5-5.3,2.1-5.7c1.5-1,9.6,0,9.6,0c1.5,0,3.1,0.2,4.6,0.4c0.4,0.2,0.7,0.4,1,0.8
		l0.2,0.3c1.1,1.8,1.9,3.8,2.7,5.8c1.3,3.1,6.3,16.1,6.3,16.1s-0.1,0.9-1.3,4.8C54.9,529.1,56.9,534.8,56.8,538.2z"/>
	<path class="st18" d="M51,542.2l2.4,2.4c0,0,2.2,7.6-0.7,7c-2.9-0.7-5.3-4.9-5.3-4.9L51,542.2z"/>
	<path class="st7" d="M57.1,521c-5.7-0.1-7.2-8-7.2-8s-0.4-7.9-1.1-9.4c-0.4-1.4-0.7-2.9-0.7-4.4c1.1,1.8,1.9,3.8,2.7,5.8
		C52.1,508,57.1,521,57.1,521z"/>
	<path class="st20" d="M57.3,520.4c-5.7-0.1-7.2-8-7.2-8s-0.4-7.9-1.1-9.4c-0.4-1.4-0.7-2.9-0.7-4.4c1.1,1.8,1.9,3.8,2.7,5.8
		C52.3,507.4,57.3,520.4,57.3,520.4z"/>
	<path class="st7" d="M47.1,500.7c0,0-1.7-4.6-4.4,0c-1.7,3.2-2.7,6.7-2.8,10.3l-0.5,12.6c0.4,0.8,0.7,1.7,0.8,2.6
		c0,0.9,1.6,3.7,1.6,3.7s0.4,5.3,1.9,6.2l1.5,4.3c0,0,0.1,2.9,1.1,4c0.6,0.8,0.8,1.9,0.5,2.9l6-2.1c0,0-0.7,0.2,0-1.6
		c0.7-1.8-0.4-4.1-0.4-4.1s-3.8-8.3-4.3-9.5c-0.5-1.2-1.1-2.6-0.9-4c0.2-1.4,0.1-16.3,0.4-18.6C48,505.1,47.1,500.7,47.1,500.7z"/>
	<path class="st14" d="M47.7,500.1c0,0-1.7-4.6-4.4,0c-1.7,3.2-2.7,6.7-2.8,10.3L40,523c0.4,0.8,0.7,1.7,0.8,2.6
		c0,0.9,1.6,3.7,1.6,3.7s0.4,5.3,1.9,6.2l1.5,4.4c0,0,0.1,2.9,1.1,4c0.6,0.8,0.8,1.9,0.5,2.9l5.9-2.1c0,0-0.7,0.2,0-1.6
		c0.7-1.8-0.4-4.2-0.4-4.2s-3.8-8.3-4.3-9.5c-0.5-1.2-1.1-2.6-0.9-4c0.2-1.4,0.1-16.3,0.4-18.6C48.6,504.4,47.7,500.1,47.7,500.1z"
		/>
	<path class="st7" d="M47.9,539.4c0.3,0,0.5,0.1,0.7,0.2c0.2,0.1,0.3,0.2,0.5,0.3c0.2,0.1,0.4,0.2,0.7,0.2c-0.3,0-0.5,0-0.8,0
		c-0.2,0-0.3,0-0.5-0.1c-0.2-0.1-0.3-0.2-0.4-0.3c-0.2-0.1-0.3-0.2-0.5-0.3c-0.1-0.1-0.3-0.1-0.4-0.2
		C47.4,539.4,47.6,539.4,47.9,539.4z"/>
	<path class="st7" d="M50.1,541.2c0.3,0,0.5-0.1,0.8-0.1c0.4,0,0.7,0,1.1,0.1c-0.5,0.3-1.1,0.4-1.7,0.3c-0.2,0-0.4,0-0.5,0
		c-0.2,0.1-0.7,0.7-0.8,0.1C48.9,541.1,49.8,541.3,50.1,541.2z"/>
	<path class="st7" d="M47.1,477.8l-1-0.7c0.1,0,0.2,0.1,0.3,0.1c0.2,0.1,0.4,0.3,0.5,0.4l0.3,0.3L47.1,477.8z"/>
	<path class="st7" d="M48.1,498.2c-0.2,0.4-0.5,0.7-0.8,1c-0.2,0.1-0.5,0.2-0.7,0.3c-0.4,0-0.7,0-1.1-0.1c-0.4-0.1-0.9-0.3-1.3-0.4
		c-0.8-0.4-1.7-0.7-2.6-0.9c-1.3-0.4-2.8-0.1-3.9,0.8c-0.8,0.9-1.1,2.2-1.9,3.1c-1.1,1.2-3,1.1-4.6,0.8l-0.4-0.1
		c0.7-2.9,1.5-5.3,2.1-5.7c1.5-1,9.6,0,9.6,0c1.5,0,3.1,0.2,4.6,0.4C47.6,497.5,47.9,497.8,48.1,498.2z"/>
	<path class="st7" d="M34.9,485.9c0-4.2,3.4-7.6,7.6-7.7c2,0,3.9,0.8,5.4,2.2l0,0c0,1.3-0.3,2.7,0.1,4c0.5,1.2,1.1,2.2,2,3.1
		c-0.9,4.1-5,6.7-9.1,5.7C37.4,492.5,34.9,489.4,34.9,485.9z"/>
	<path class="st9" d="M47.2,477.6c-3-2.8-7.5-3.3-11.1-1.2c-0.8,0.4-1.5,1.1-2,1.8c-1.1,1.7-0.8,3.8-1.3,5.7
		c-0.5,1.9-1.8,3.3-2.8,4.9c-1,1.6-1.9,3.5-1.5,5.3c0.3,1.3,1.2,2.5,1.2,3.9c-0.1,1.6-1.4,2.8-2.9,2.9c1.4,0.8,2.9,1.3,4.5,1.4
		c1.6,0.2,3.4,0.3,4.6-0.8c0.8-0.9,1-2.2,1.9-3.1c1.1-0.9,2.5-1.2,3.9-0.8c1.3,0.3,2.6,0.9,3.9,1.3c0.3,0.1,0.7,0.1,1.1,0.1
		c1.1-0.2,1.8-1.4,1.9-2.6c0.1-0.9-0.1-2.1,0.6-2.7c0.3-0.2,0.5-0.4,0.8-0.6c1.1-0.7,1.6-2,1.5-3.3c-0.3-2.3-2.7-3.7-3.4-5.9
		c-0.4-1.3-0.1-2.6-0.1-4c0-1.3-0.5-2.9-1.8-3.3"/>
	<path class="st7" d="M51.3,489.9c-0.3-2.3-2.7-3.7-3.4-5.9c-0.4-1.3-0.1-2.6-0.1-4c0-0.9-0.3-1.8-0.8-2.6l0.2,0.1
		c-0.1-0.1-0.2-0.2-0.3-0.3c-0.2-0.2-0.3-0.3-0.5-0.4l-0.3-0.2l0.2,0.2l-0.2-0.1c0.5,0.8,0.8,1.7,0.8,2.6c0,1.3-0.3,2.7,0.1,4
		c0.6,2.2,3.1,3.7,3.4,5.9c0.2,1.3-0.4,2.5-1.5,3.3c-0.3,0.2-0.6,0.4-0.8,0.6c-0.7,0.7-0.5,1.8-0.6,2.7c-0.1,1.2-0.7,2.4-1.9,2.6
		c-0.4,0-0.7,0-1.1-0.1c-1.3-0.3-2.6-1-3.9-1.3c-1.3-0.4-2.8-0.1-3.9,0.8c-0.8,0.8-1.1,2.2-1.9,3.1c-1.1,1.1-3,1.1-4.6,0.8
		c-1-0.1-2.1-0.4-3.1-0.7c-0.1,0-0.3,0-0.4,0c1.4,0.8,2.9,1.3,4.5,1.4c1.6,0.2,3.4,0.3,4.6-0.8c0.8-0.9,1.1-2.2,1.9-3.1
		c1.1-0.9,2.5-1.2,3.9-0.8c1.3,0.3,2.6,0.9,3.9,1.3c0.4,0.1,0.7,0.1,1.1,0.1c1.1-0.2,1.8-1.4,1.9-2.6c0.1-0.9-0.1-2.1,0.6-2.7
		c0.3-0.2,0.5-0.4,0.8-0.6C50.8,492.4,51.4,491.1,51.3,489.9z"/>
	<path class="st0" d="M80.7,599c1.5,4.9-18.2,8-41.3,7.1c-20.7-0.8-37-4.6-38.2-8.6c-1.2-4,12.9-7.2,33.4-7.3
		C57.4,590.2,79.2,594.1,80.7,599z"/>
</g>
<rect class="st21" width="992.1" height="708.7"/>
</svg>
